<svg width="237" height="353" viewBox="0 0 237 353" fill="none" xmlns="http://www.w3.org/2000/svg">
<g clip-path="url(#clip0_3125_25276)">
<path d="M148.232 51.0194C147.632 42.9493 145.178 35.1266 141.06 28.1602C136.764 21.076 131.007 14.9889 124.174 10.3047C117.34 5.62047 109.586 2.44668 101.43 0.994884C66.1348 -5.11526 34.4853 17.5955 20.8544 49.1707C16.8236 58.6935 14.2965 68.7845 13.3633 79.083C12.766 84.4307 12.6914 89.8239 13.1406 95.1861C13.6306 100.339 13.7791 106.085 16.8527 110.443C16.9537 110.607 17.0995 110.738 17.2728 110.822C17.4461 110.906 17.6397 110.938 17.8309 110.916C18.022 110.893 18.2027 110.816 18.3517 110.694C18.5007 110.572 18.6117 110.411 18.6716 110.228C19.9857 106.605 19.6813 103.086 19.7333 99.2843C19.7853 95.0228 20.0377 90.7539 20.2753 86.5072C20.7617 78.1402 22.2319 69.8595 24.6556 61.8365C28.8206 47.9829 36.3784 35.2948 47.0768 25.5171C68.2804 6.21412 103.776 1.87837 124.289 24.5668C129.093 29.8563 132.607 36.1861 134.556 43.0606C135.574 46.7727 138.224 57.5601 133.873 60.0027C128.135 63.2248 132.307 70.6936 137.994 69.8918C146.888 68.6593 148.818 58.3991 148.232 51.0194Z" fill="#534741"/>
<path d="M218.569 218.057L208.345 210.462C208.665 205.395 208.583 200.311 208.1 195.257C208.1 195.257 207.922 193.357 206.512 182.814L206.192 160.104L205.881 137.348L191.916 155.107L186.347 162.205C183.71 161.043 180.936 160.22 178.092 159.755C176.332 159.468 174.552 159.324 172.768 159.324C172.39 159.324 172.026 159.324 171.647 159.361V159.324H168.834C152.315 158.121 117.755 153.504 98.9938 135.841C88.9785 126.42 80.3738 120.74 73.6252 117.281C71.9806 108.542 67.1349 100.732 60.0362 95.3768C52.9375 90.022 44.0964 87.5081 35.2423 88.327C26.3882 89.1458 18.158 93.2385 12.1618 99.8043C6.1655 106.37 2.83449 114.937 2.82031 123.829V217.293C2.82031 220.393 3.43103 223.462 4.61759 226.326C5.80415 229.19 7.5433 231.792 9.7357 233.984C11.9281 236.176 14.5308 237.914 17.3951 239.1C20.2595 240.285 23.3293 240.895 26.4294 240.894H171.618C171.996 240.894 172.36 240.894 172.739 240.894C180.139 240.871 187.331 238.448 193.237 233.99L214.292 232.765L236.609 231.465L218.569 218.057Z" fill="#C7B299"/>
<path d="M199.714 173.935C202.553 177.241 204.926 180.921 206.767 184.871C206.678 184.218 206.589 183.527 206.492 182.792L206.173 160.081L205.883 137.348L191.918 155.107L186.35 162.205C186.061 162.093 195.734 169.206 199.714 173.935Z" fill="#534741"/>
<path d="M218.569 218.057L208.621 210.685C206.907 216.541 204.076 222.009 200.284 226.788C198.099 229.537 195.608 232.028 192.859 234.212L214.271 232.727L236.588 231.428L218.569 218.057Z" fill="#534741"/>
<path d="M216.281 223.618L209.6 220.106C209.102 221.057 208.679 222.029 208.152 222.972C206.382 226.162 203.961 228.944 201.047 231.139L213.401 230.626L228.442 230.01L216.281 223.618Z" fill="#C7B299"/>
<path d="M73.7883 115.38C72.5548 111.687 70.9374 108.134 68.9626 104.778C65.2505 98.5938 59.9124 93.3597 53.238 90.4717C51.145 89.5485 48.9337 88.9213 46.6676 88.6082C47.3358 88.2444 47.952 87.8658 48.4791 87.5837C55.2946 83.5895 80.4033 65.311 77.107 58.7183C76.7292 58.0848 76.2644 57.5075 75.726 57.0033C75.6982 57.4642 75.616 57.9203 75.481 58.3619C74.7776 60.4658 73.4164 62.2878 71.5982 63.5589C71.0042 63.9895 70.4548 63.0095 71.0265 62.5715C72.8083 61.2351 74.902 58.3916 74.5307 56.0901C73.1906 55.2327 71.6216 54.8029 70.0317 54.8577C70.3074 55.8995 70.353 56.9889 70.1653 58.0501C69.9129 59.869 69.2076 61.9033 67.6633 63.0243C67.0768 63.4475 66.5497 62.4824 67.1065 62.0592C67.6957 61.5311 68.1533 60.8726 68.4429 60.1363C69.0934 58.6899 69.3175 57.0878 69.0888 55.5184C69.0564 55.3456 69.0067 55.1764 68.9403 55.0136C68.0865 55.1713 67.2657 55.4725 66.5126 55.9045C66.5126 55.9045 44.2918 70.5302 36.6003 74.9848C29.384 79.1423 7.00735 90.2564 7.00735 90.2564C5.23151 91.29 3.93662 92.9841 3.40528 94.969C2.87395 96.9538 3.14932 99.0682 4.17129 100.851C5.20489 102.627 6.89898 103.922 8.88383 104.453C10.8687 104.984 12.9831 104.709 14.7657 103.687C14.7657 103.687 34.8111 94.8297 45.012 89.5066C47.352 89.7878 49.647 90.364 51.8423 91.2216C55.0339 92.5144 57.9815 94.3422 60.5583 96.6264C66.0745 101.437 69.7867 107.956 72.2441 114.801C72.9345 116.716 73.5359 118.669 74.0704 120.629C74.605 122.589 74.9762 124.861 75.7335 126.843C75.9042 127.288 76.6689 127.288 76.6392 126.724C76.4386 124.757 76.0432 122.815 75.4588 120.926C74.9836 119.062 74.412 117.214 73.7883 115.38Z" fill="#534741"/>
<path d="M87.2274 193.565C86.0709 187.48 83.5203 181.746 79.7758 176.813C76.0312 171.879 71.1945 167.88 65.6451 165.13C71.2059 163.719 76.6256 162.093 80.8351 158.166C82.2624 156.857 83.2176 155.114 83.5524 153.206C83.9979 150.541 82.5947 148.306 82.2086 147.505C81.4326 145.662 80.1667 144.068 78.5485 142.894C76.6329 141.728 74.3858 141.227 72.1562 141.469C63.9896 141.981 49.0743 148.381 45.8818 149.576C45.8818 149.576 14.0839 158.945 12.5173 159.228C7.09766 159.97 -3.39278 164.833 1.08403 171.552C7.46145 183.817 52.6379 166.852 62.772 165.724C85.2674 175.42 94.08 206.126 78.6821 225.608C78.1179 226.35 79.4245 227.137 79.9517 226.35C83.2692 221.636 85.6202 216.312 86.8689 210.685C88.1177 205.058 88.2396 199.239 87.2274 193.565ZM73.1956 161.321C73.0985 161.635 72.8863 161.9 72.6017 162.064C72.2909 162.23 71.9484 162.33 71.5967 162.355C71.2449 162.381 70.8916 162.332 70.56 162.212C70.2619 162.109 69.9737 161.98 69.6988 161.826C69.5297 161.733 69.3683 161.626 69.2162 161.507C68.9323 161.481 68.6655 161.36 68.4592 161.163C68.2529 160.966 68.1194 160.705 68.0803 160.423C68.042 160.143 68.0968 159.859 68.2362 159.614C68.3977 159.329 68.6641 159.118 68.9786 159.027C69.3259 158.941 69.6825 158.898 70.0403 158.901C70.3979 158.908 70.7537 158.953 71.102 159.035C71.4455 159.112 71.7757 159.239 72.082 159.413C72.277 159.53 72.4609 159.664 72.6314 159.814C72.7912 159.961 72.931 160.128 73.0471 160.311C73.1404 160.46 73.2017 160.627 73.2273 160.801C73.2528 160.975 73.2421 161.152 73.1956 161.321ZM72.8244 149.442C73.1898 148.485 73.8469 147.667 74.7027 147.104C75.3198 146.622 76.0881 146.374 76.8706 146.406C77.4228 146.307 77.9915 146.355 78.5188 146.547C78.8526 146.659 79.1398 146.878 79.3354 147.171C79.511 147.493 79.5613 147.868 79.4765 148.225C79.3282 148.779 79.0055 149.271 78.5559 149.628C78.1082 149.999 77.6077 150.302 77.071 150.526C76.5413 150.772 75.9825 150.949 75.408 151.053C74.8426 151.195 74.2511 151.195 73.6856 151.053C73.3791 150.947 73.1175 150.74 72.9432 150.467C72.8553 150.316 72.7994 150.148 72.779 149.974C72.7585 149.801 72.774 149.625 72.8244 149.457V149.442ZM72.4235 154.045C73.5114 153.524 74.7427 153.383 75.9203 153.645C76.4659 153.727 76.9932 153.903 77.4794 154.164C78.0078 154.435 78.4367 154.867 78.7044 155.397C78.8045 155.578 78.8625 155.78 78.8741 155.987C78.8856 156.194 78.8505 156.4 78.7712 156.592C78.6921 156.773 78.5728 156.935 78.4223 157.063C78.2719 157.192 78.0941 157.284 77.9026 157.334C76.9786 157.598 76.008 157.657 75.0591 157.505C74.3686 157.394 72.0894 156.213 71.8741 155.679C71.7622 155.387 71.7559 155.066 71.8562 154.77C71.9566 154.475 72.1573 154.223 72.4235 154.06V154.045ZM67.5606 145.307C67.6794 145.129 67.813 144.943 67.9467 144.765C67.9697 144.675 68.0073 144.59 68.058 144.513C68.26 144.052 68.5648 143.643 68.9489 143.317C69.1016 143.186 69.2628 143.064 69.4315 142.954C69.6061 142.854 69.7901 142.772 69.9809 142.709C70.0653 142.679 70.1523 142.656 70.2408 142.642C70.4379 142.597 70.6406 142.582 70.8421 142.597C71.0815 142.595 71.3171 142.657 71.5251 142.775C71.6762 142.861 71.8057 142.981 71.9038 143.124C72.021 143.256 72.105 143.414 72.1488 143.585C72.2116 143.828 72.2116 144.084 72.1488 144.327C72.0301 144.666 71.8679 144.988 71.6662 145.285C71.449 145.608 71.2003 145.909 70.9238 146.183C70.6454 146.452 70.3335 146.684 69.9958 146.874C69.5966 147.109 69.1446 147.239 68.6817 147.252C68.4594 147.252 68.2412 147.193 68.0485 147.083C67.8558 146.972 67.6953 146.813 67.5829 146.621C67.4588 146.425 67.3911 146.199 67.3872 145.967C67.3833 145.735 67.4433 145.507 67.5606 145.307ZM60.5224 159.844C57.9611 160.378 54.583 159.844 53.0982 157.394C51.7544 155.077 54.2787 151.937 56.0679 150.549C59.832 147.631 64.7542 149.42 65.1626 149.576C66.833 150.148 68.0506 151.298 68.1323 152.546C68.1134 153.309 67.882 154.052 67.4641 154.691C67.0822 155.3 66.623 155.856 66.098 156.347C65.6019 156.859 65.0574 157.321 64.4721 157.728C63.3564 158.757 61.9972 159.485 60.5224 159.844Z" fill="#534741"/>
<path d="M131.01 168.003C126.399 124.942 95.8634 133.005 95.8634 133.005C108.655 147.312 111.981 159.784 112.635 162.806C115.532 161.569 118.508 160.528 121.544 159.688C121.654 159.657 121.772 159.672 121.871 159.728C121.971 159.785 122.044 159.878 122.075 159.988C122.105 160.099 122.091 160.217 122.034 160.316C121.978 160.416 121.884 160.489 121.774 160.519C117.919 161.674 114.134 163.05 110.437 164.64L97.9125 170.757C93.9405 173.192 92.7155 177.083 93.1907 180.052C94.4907 180.125 95.7931 179.964 97.0364 179.577C98.8255 179.054 100.565 178.374 102.233 177.543C102.842 177.246 103.384 178.144 102.768 178.464C100.96 179.419 99.0498 180.166 97.0735 180.691C95.8899 181.02 94.6637 181.17 93.4357 181.136C93.521 181.39 93.6227 181.638 93.7401 181.879C94.5928 183.663 95.6067 185.365 96.7691 186.964C98.0841 187.017 99.3976 186.828 100.645 186.408C102.205 185.826 103.698 185.079 105.099 184.18C105.715 183.809 106.265 184.759 105.663 185.146C104.183 186.154 102.575 186.963 100.882 187.551C99.8333 187.872 98.7422 188.035 97.6452 188.034C100.132 190.758 103.102 191.746 108.039 191.671C114.513 191.538 126.6 182.658 126.6 182.658C132.376 178.924 131.411 171.804 131.01 168.003Z" fill="#534741"/>
<path d="M121.98 210.848C112.328 208.621 108.371 205.273 104.162 202.682C102.465 201.674 100.487 201.245 98.5251 201.459C96.5633 201.673 94.7244 202.519 93.2852 203.869L93.7159 203.743C95.0824 203.463 96.5001 203.574 97.8066 204.062C100.925 205.139 103.62 207.225 106.864 207.99C107.547 208.153 107.25 209.17 106.575 209.037C103.605 208.435 101.073 206.705 98.304 205.525C97.1058 204.936 95.7769 204.662 94.4434 204.731C93.3151 204.886 92.2597 205.378 91.4143 206.141C91.1787 206.522 90.9703 206.919 90.7907 207.329L89.7439 209.757C89.573 210.15 89.4291 210.554 89.3133 210.967C93.5599 207.582 98.0516 213.84 102.528 213.989C102.664 214.004 102.789 214.069 102.88 214.171C102.971 214.273 103.021 214.405 103.021 214.542C103.021 214.678 102.971 214.81 102.88 214.912C102.789 215.014 102.664 215.079 102.528 215.095C100.004 215.095 97.8512 213.528 95.7427 212.333C94.7476 211.698 93.646 211.248 92.4909 211.004C91.884 210.927 91.2674 210.997 90.6935 211.209C90.1196 211.421 89.6054 211.768 89.1945 212.222C89.1416 212.27 89.078 212.306 89.0089 212.326C88.7341 214.23 88.9933 216.173 89.7575 217.939C90.5217 219.704 91.7609 221.223 93.3372 222.326C99.4993 224.776 106.515 224.375 113.011 223.959C113.709 223.915 113.694 224.984 113.011 225.043C108.802 225.385 101.133 225.429 101.133 225.429C99.4325 229.142 99.7295 233.143 104.563 234.695C107.956 235.779 112.187 235.081 115.461 233.908C116.568 233.507 126.316 229.179 127.637 226.12L128.684 223.692C130.926 218.465 128.654 212.37 121.98 210.848Z" fill="#534741"/>
<path d="M203.639 200.803C203.424 184.953 196.215 171.916 186.92 169.621C187.373 167.394 187.811 165.167 188.249 162.94C189.311 157.498 190.417 152.026 190.944 146.51C190.944 146.346 190.714 146.332 190.669 146.473C189.058 151.87 188.026 157.446 186.957 162.969C186.541 165.1 186.126 167.238 185.732 169.369C185.152 169.283 184.566 169.239 183.98 169.235C183.366 169.24 182.753 169.29 182.146 169.384C181.871 167.157 181.589 164.929 181.307 162.702C180.609 157.171 179.822 151.655 178.887 146.168C178.82 145.805 178.226 145.908 178.256 146.265C178.649 151.885 179.251 157.475 179.919 163.073L180.721 169.755C178.994 170.246 177.373 171.051 175.939 172.131L175.88 171.982C174.655 168.82 173.4 165.664 172.168 162.509C169.666 156.221 167.209 149.888 164.38 143.755C164.224 143.399 163.638 143.666 163.764 144.023C165.917 150.511 168.456 156.874 170.943 163.237C172.175 166.399 173.4 169.562 174.655 172.717L174.789 173.051C168.686 178.367 164.499 188.791 164.335 200.855C164.499 212.92 168.686 223.351 174.789 228.666L174.655 229C173.386 232.156 172.161 235.318 170.943 238.474C168.456 244.844 165.917 251.206 163.764 257.695C163.645 258.052 164.224 258.319 164.38 257.962C167.209 251.815 169.666 245.497 172.168 239.209C173.423 236.054 174.677 232.898 175.88 229.735L175.939 229.587C177.373 230.667 178.994 231.472 180.721 231.963L179.919 238.607C179.251 244.205 178.649 249.796 178.256 255.416C178.256 255.772 178.82 255.869 178.887 255.512C179.845 250.018 180.609 244.51 181.307 238.979C181.589 236.746 181.869 234.507 182.146 232.26C182.753 232.357 183.366 232.407 183.98 232.408C184.567 232.409 185.152 232.364 185.732 232.275C186.126 234.413 186.541 236.543 186.957 238.682C188.034 244.205 189.066 249.781 190.669 255.178C190.714 255.319 190.959 255.305 190.944 255.141C190.417 249.625 189.311 244.153 188.249 238.711C187.811 236.484 187.373 234.257 186.92 232.03C196.245 229.698 203.424 216.661 203.639 200.803ZM180.461 201.768C180.461 201.999 180.119 201.991 180.104 201.768C180.008 199.935 180.104 198.101 180.104 196.267C180.104 196.074 180.372 196.089 180.394 196.267C180.565 198.093 180.409 199.927 180.461 201.768ZM181.404 201.026C181.396 201.057 181.379 201.085 181.354 201.104C181.329 201.124 181.298 201.135 181.266 201.135C181.235 201.135 181.204 201.124 181.179 201.104C181.154 201.085 181.136 201.057 181.129 201.026C181.129 200.061 181.129 199.103 181.033 198.145C181.033 197.93 181.359 197.93 181.367 198.145C181.426 199.125 181.419 200.083 181.404 201.048V201.026Z" fill="#534741"/>
<path d="M186.944 190.781C191.659 190.781 195.482 186.958 195.482 182.243C195.482 177.527 191.659 173.705 186.944 173.705C182.229 173.705 178.406 177.527 178.406 182.243C178.406 186.958 182.229 190.781 186.944 190.781Z" fill="#FBB03B"/>
<path d="M186.944 188.925C190.634 188.925 193.625 185.933 193.625 182.243C193.625 178.552 190.634 175.561 186.944 175.561C183.253 175.561 180.262 178.552 180.262 182.243C180.262 185.933 183.253 188.925 186.944 188.925Z" fill="black"/>
<path d="M190.282 179.273C191.307 179.273 192.138 178.442 192.138 177.417C192.138 176.392 191.307 175.561 190.282 175.561C189.257 175.561 188.426 176.392 188.426 177.417C188.426 178.442 189.257 179.273 190.282 179.273Z" fill="white"/>
<path d="M186.944 224.19C191.659 224.19 195.482 220.367 195.482 215.652C195.482 210.936 191.659 207.114 186.944 207.114C182.229 207.114 178.406 210.936 178.406 215.652C178.406 220.367 182.229 224.19 186.944 224.19Z" fill="#FBB03B"/>
<path d="M186.944 222.334C190.634 222.334 193.625 219.342 193.625 215.652C193.625 211.962 190.634 208.97 186.944 208.97C183.253 208.97 180.262 211.962 180.262 215.652C180.262 219.342 183.253 222.334 186.944 222.334Z" fill="black"/>
<path d="M190.282 212.682C191.307 212.682 192.138 211.851 192.138 210.826C192.138 209.801 191.307 208.97 190.282 208.97C189.257 208.97 188.426 209.801 188.426 210.826C188.426 211.851 189.257 212.682 190.282 212.682Z" fill="white"/>
<path d="M175.805 196.742L173.956 198.606L173.555 198.346C173.036 198.019 172.501 197.707 171.966 197.41L170.355 196.505C169.791 196.2 169.205 195.948 168.633 195.658C168.499 195.591 168.381 195.777 168.507 195.859C169.041 196.208 169.554 196.601 170.096 196.928L171.684 197.871C172.219 198.19 172.753 198.494 173.295 198.784L173.444 198.858C172.906 199.123 172.383 199.418 171.877 199.742C171.489 199.998 171.114 200.275 170.756 200.573C170.369 200.867 170.004 201.189 169.665 201.538C169.561 201.65 169.665 201.843 169.828 201.754C170.229 201.509 170.571 201.204 170.979 200.944C171.172 200.811 171.373 200.707 171.558 200.573L172.152 200.15C172.679 199.794 173.206 199.452 173.733 199.11L175.827 201.219L178.054 203.446V194.515L175.805 196.742Z" fill="#C7B299"/>
<path d="M178.65 194.047C178.641 194.047 178.631 194.051 178.624 194.058C178.617 194.065 178.613 194.075 178.613 194.084C178.613 194.094 178.617 194.104 178.624 194.111C178.631 194.118 178.641 194.121 178.65 194.121C178.66 194.121 178.67 194.118 178.677 194.111C178.684 194.104 178.688 194.094 178.688 194.084C178.688 194.075 178.684 194.065 178.677 194.058C178.67 194.051 178.66 194.047 178.65 194.047Z" fill="#C7B299"/>
<path d="M157.312 182.042L153.407 180.743L151.529 180.134C150.899 179.895 150.251 179.708 149.591 179.577C149.558 179.575 149.525 179.583 149.498 179.602C149.471 179.621 149.451 179.648 149.443 179.68C149.434 179.712 149.436 179.746 149.45 179.776C149.463 179.806 149.487 179.83 149.517 179.845C150.127 180.13 150.764 180.357 151.417 180.52C152.048 180.721 152.672 180.929 153.303 181.122L157.223 182.347C157.263 182.358 157.307 182.354 157.344 182.334C157.381 182.313 157.408 182.279 157.42 182.239C157.432 182.199 157.427 182.155 157.407 182.118C157.386 182.081 157.352 182.054 157.312 182.042Z" fill="#534741"/>
<path d="M154.551 182.955C153.066 182.606 151.522 182.28 149.992 181.975C149.881 181.975 149.821 182.124 149.94 182.154C151.425 182.532 152.954 182.896 154.476 183.23C154.655 183.267 154.729 183 154.551 182.955Z" fill="#534741"/>
<path d="M156.192 219.638L152.168 220.314L150.2 220.663C149.516 220.754 148.836 220.883 148.166 221.049C148.01 221.101 148.025 221.354 148.166 221.346C148.819 221.283 149.468 221.187 150.111 221.057L152.16 220.708L156.259 219.965C156.518 219.95 156.422 219.594 156.192 219.638Z" fill="#534741"/>
<path d="M22.6959 351.317C19.2682 351.339 15.8791 350.593 12.7771 349.134C9.71899 347.705 7.00074 345.639 4.80348 343.076C2.55464 340.462 0.914036 337.381 0 334.056L12.7029 330.663C13.0831 332.247 13.8481 333.714 14.9301 334.932C15.9889 336.109 17.2775 337.056 18.7165 337.716C20.1105 338.37 21.6312 338.71 23.171 338.711C25.1076 338.721 27.0109 338.208 28.6798 337.226C30.3196 336.28 31.6877 334.928 32.6518 333.299C33.6238 331.636 34.1362 329.745 34.1362 327.819C34.1362 325.894 33.6238 324.003 32.6518 322.34C31.6877 320.711 30.3196 319.359 28.6798 318.413C27.0109 317.431 25.1076 316.918 23.171 316.928C21.0961 316.844 19.0321 317.267 17.1574 318.161C15.8949 318.787 14.7215 319.578 13.668 320.514L2.53166 317.121L4.66242 280H42.7413V292.324H11.9159L16.5709 287.959L15.086 311.917L12.8588 309.2C14.6082 307.774 16.6288 306.718 18.7982 306.096C21.7559 305.207 24.8624 304.922 27.9325 305.259C31.0026 305.596 33.9735 306.547 36.6683 308.056C39.9951 309.972 42.7305 312.767 44.5751 316.134C46.5119 319.73 47.4887 323.765 47.4111 327.849C47.4581 332.062 46.2597 336.194 43.9663 339.728C41.6898 343.247 38.5748 346.145 34.9013 348.162C31.1739 350.251 26.9687 351.338 22.6959 351.317Z" fill="#116858"/>
<path d="M85.8526 297.254C88.4779 291.423 91.7636 285.913 95.6451 280.832C95.0289 280.794 94.4127 280.772 93.7817 280.772C89.0846 280.773 84.4456 281.809 80.1953 283.809C81.94 288.36 83.7218 292.889 85.8526 297.254Z" fill="#116858"/>
<path d="M81.4357 308.635C81.5916 308.145 81.7549 307.655 81.9182 307.15C82.9081 304.27 84.0094 301.439 85.222 298.657V298.62C82.8858 293.982 80.8571 289.195 79.149 284.291C75.7193 286.066 72.6164 288.411 69.9727 291.225C72.4746 297.848 76.8104 303.557 81.4357 308.635Z" fill="#116858"/>
<path d="M67.8518 308.22C70.9745 312.512 74.4513 316.535 78.2458 320.247C79.0327 316.772 79.9311 313.335 80.9927 309.949C78.1686 306.984 75.6029 303.782 73.3235 300.38C71.5932 297.823 70.1492 295.085 69.0174 292.213C66.6804 294.915 64.7541 297.947 63.3008 301.211C64.7262 303.617 66.2433 305.953 67.8518 308.22Z" fill="#116858"/>
<path d="M77.7908 321.368C71.9141 315.74 66.8872 309.288 62.8681 302.213C60.9509 306.83 59.9668 311.781 59.9727 316.78C59.9727 317.307 59.9727 317.827 60.0247 318.346C61.7545 319.549 63.5363 320.677 65.3553 321.732C67.1742 322.786 69.201 323.892 71.161 324.902C73.121 325.912 74.9548 326.706 76.7663 327.768C77.1301 325.667 77.5087 323.58 77.9987 321.494C77.9197 321.471 77.848 321.427 77.7908 321.368Z" fill="#116858"/>
<path d="M70.6108 325.904C68.6062 324.865 66.6165 323.788 64.6714 322.63C63.1197 321.702 61.5903 320.729 60.1055 319.66C60.4494 324.92 61.9289 330.043 64.4422 334.676C66.9555 339.309 70.4429 343.342 74.6644 346.499C74.6644 346.291 74.6644 346.09 74.6644 345.89C75.0095 340.192 75.6414 334.515 76.5576 328.881C74.5456 328.035 72.5708 326.928 70.6108 325.904Z" fill="#116858"/>
<path d="M91.3119 313.29C92.8933 307.032 94.5415 300.78 96.6425 294.73C98.1148 290.311 99.9524 286.022 102.136 281.908C100.433 281.449 98.6949 281.132 96.9395 280.958C94.0696 284.622 91.5375 288.538 89.3742 292.658C83.4348 303.973 79.8192 316.579 77.7553 329.327C76.7973 335.285 76.1579 341.289 75.8398 347.316C78.4388 349.062 81.2771 350.422 84.2663 351.354C85.7913 338.528 88.1447 325.813 91.3119 313.29Z" fill="#116858"/>
<path d="M103.158 282.19C100.562 287.135 98.4368 292.312 96.8103 297.655C94.8206 303.869 93.2021 310.232 91.6727 316.587C89.9107 323.902 88.4258 331.282 87.2182 338.726C86.5203 343.027 85.9189 347.338 85.4141 351.659C86.8187 352.043 88.2473 352.333 89.6904 352.527C89.6904 352.305 89.7498 352.089 89.7869 351.874C92.0211 337.492 96.2699 323.496 102.408 310.298C105.118 304.567 108.154 298.917 111.369 293.49C112.371 291.797 113.448 290.075 114.621 288.427C111.251 285.609 107.354 283.489 103.158 282.19Z" fill="#116858"/>
<path d="M104.363 309.378C110.585 316.245 118.855 319.408 127.178 322.274C127.444 320.457 127.578 318.623 127.579 316.787C127.618 311.609 126.565 306.481 124.49 301.737C122.416 296.992 119.365 292.738 115.537 289.251C113.903 291.651 112.404 294.139 111.045 296.705C108.744 300.862 106.464 305.057 104.363 309.326C104.363 309.378 104.363 309.378 104.363 309.378Z" fill="#116858"/>
<path d="M103.819 310.454C103.299 311.546 102.78 312.63 102.29 313.736C101.508 315.483 100.765 317.248 100.062 319.029C102.483 320.957 105.05 322.695 107.739 324.226C113.124 327.172 118.75 329.656 124.555 331.651C125.66 329.062 126.47 326.358 126.968 323.588C118.467 320.804 109.781 317.582 103.819 310.454Z" fill="#116858"/>
<path d="M93.0784 341.948C92.2766 345.497 91.5936 349.068 90.9922 352.661C91.9128 352.743 92.8408 352.787 93.7837 352.787C96.0309 352.776 98.2707 352.527 100.466 352.045C98.1269 348.585 95.6398 345.252 93.0784 341.948Z" fill="#116858"/>
<path d="M101.614 351.8C104.586 351.052 107.436 349.885 110.078 348.333C105.564 343.195 100.649 338.525 94.7247 335.229C94.2272 337.07 93.7744 338.941 93.3438 340.767C96.3533 344.249 99.1169 347.935 101.614 351.8Z" fill="#116858"/>
<path d="M95.0957 334.242C101.325 337.345 106.485 342.252 111.162 347.665C116.732 344.058 121.177 338.959 123.991 332.95C120.561 331.702 117.161 330.359 113.835 328.837C108.717 326.617 103.934 323.693 99.6245 320.15C97.8724 324.694 96.3405 329.327 95.0289 334.049L94.9844 334.219L95.0957 334.242Z" fill="#116858"/>
<path d="M163.802 297.254C166.427 291.423 169.713 285.913 173.594 280.832C172.978 280.794 172.362 280.772 171.731 280.772C167.034 280.773 162.395 281.809 158.145 283.809C159.889 288.36 161.671 292.889 163.802 297.254Z" fill="#116858"/>
<path d="M159.385 308.635C159.541 308.145 159.704 307.655 159.867 307.15C160.857 304.27 161.959 301.439 163.171 298.657V298.62C160.835 293.982 158.806 289.195 157.098 284.291C153.669 286.066 150.566 288.411 147.922 291.225C150.424 297.848 154.76 303.557 159.385 308.635Z" fill="#116858"/>
<path d="M145.801 308.22C148.924 312.512 152.401 316.535 156.195 320.247C156.982 316.772 157.88 313.335 158.942 309.949C156.118 306.984 153.552 303.782 151.273 300.38C149.542 297.823 148.098 295.085 146.967 292.213C144.63 294.915 142.703 297.947 141.25 301.211C142.675 303.617 144.192 305.953 145.801 308.22Z" fill="#116858"/>
<path d="M155.74 321.368C149.863 315.74 144.836 309.288 140.817 302.213C138.9 306.83 137.916 311.781 137.922 316.78C137.922 317.307 137.922 317.827 137.974 318.346C139.704 319.549 141.486 320.677 143.304 321.732C145.123 322.786 147.15 323.892 149.11 324.902C151.07 325.912 152.904 326.706 154.716 327.768C155.079 325.667 155.458 323.58 155.948 321.494C155.869 321.471 155.797 321.427 155.74 321.368Z" fill="#116858"/>
<path d="M148.56 325.904C146.555 324.865 144.566 323.788 142.621 322.63C141.069 321.702 139.54 320.729 138.055 319.66C138.399 324.92 139.878 330.043 142.391 334.676C144.905 339.309 148.392 343.342 152.614 346.499C152.614 346.291 152.614 346.09 152.614 345.89C152.959 340.192 153.591 334.515 154.507 328.881C152.495 328.035 150.52 326.928 148.56 325.904Z" fill="#116858"/>
<path d="M169.261 313.29C170.843 307.032 172.491 300.78 174.592 294.73C176.064 290.311 177.902 286.022 180.086 281.908C178.382 281.449 176.644 281.132 174.889 280.958C172.019 284.622 169.487 288.538 167.323 292.658C161.384 303.973 157.768 316.579 155.705 329.327C154.747 335.285 154.107 341.289 153.789 347.316C156.388 349.062 159.226 350.422 162.216 351.354C163.74 338.528 166.094 325.813 169.261 313.29Z" fill="#116858"/>
<path d="M181.107 282.19C178.511 287.135 176.386 292.312 174.759 297.655C172.77 303.869 171.151 310.232 169.622 316.587C167.86 323.902 166.375 331.282 165.167 338.726C164.469 343.027 163.868 347.338 163.363 351.659C164.768 352.043 166.196 352.333 167.64 352.527C167.64 352.305 167.699 352.089 167.736 351.874C169.97 337.492 174.219 323.496 180.357 310.298C183.067 304.567 186.104 298.917 189.318 293.49C190.321 291.797 191.397 290.075 192.57 288.427C189.2 285.609 185.304 283.489 181.107 282.19Z" fill="#116858"/>
<path d="M182.312 309.378C188.534 316.245 196.805 319.408 205.127 322.274C205.393 320.457 205.527 318.623 205.528 316.787C205.567 311.609 204.514 306.481 202.44 301.737C200.365 296.992 197.314 292.738 193.486 289.251C191.853 291.651 190.353 294.139 188.994 296.705C186.693 300.862 184.414 305.057 182.312 309.326C182.312 309.378 182.312 309.378 182.312 309.378Z" fill="#116858"/>
<path d="M181.768 310.454C181.249 311.546 180.729 312.63 180.239 313.736C179.457 315.483 178.715 317.248 178.012 319.029C180.433 320.957 182.999 322.695 185.688 324.226C191.073 327.172 196.699 329.656 202.504 331.651C203.609 329.062 204.419 326.358 204.917 323.588C196.416 320.804 187.73 317.582 181.768 310.454Z" fill="#116858"/>
<path d="M171.028 341.948C170.226 345.497 169.543 349.068 168.941 352.661C169.862 352.743 170.79 352.787 171.733 352.787C173.98 352.776 176.22 352.527 178.415 352.045C176.076 348.585 173.589 345.252 171.028 341.948Z" fill="#116858"/>
<path d="M179.564 351.8C182.535 351.052 185.385 349.885 188.027 348.333C183.513 343.195 178.598 338.525 172.674 335.229C172.176 337.07 171.724 338.941 171.293 340.767C174.303 344.249 177.066 347.935 179.564 351.8Z" fill="#116858"/>
<path d="M173.045 334.242C179.274 337.345 184.434 342.252 189.111 347.665C194.681 344.058 199.126 338.959 201.94 332.95C198.51 331.702 195.11 330.359 191.784 328.837C186.666 326.617 181.883 323.693 177.574 320.15C175.822 324.694 174.29 329.327 172.978 334.049L172.934 334.219L173.045 334.242Z" fill="#116858"/>
</g>
<defs>
<clipPath id="clip0_3125_25276">
<rect width="236.61" height="353" fill="white"/>
</clipPath>
</defs>
</svg>
