<?xml version="1.0" encoding="UTF-8" standalone="no"?>
<svg xmlns:dc="http://purl.org/dc/elements/1.1/" xmlns:cc="http://creativecommons.org/ns#" xmlns:rdf="http://www.w3.org/1999/02/22-rdf-syntax-ns#" xmlns:svg="http://www.w3.org/2000/svg" xmlns="http://www.w3.org/2000/svg" xmlns:sodipodi="http://sodipodi.sourceforge.net/DTD/sodipodi-0.dtd" xmlns:inkscape="http://www.inkscape.org/namespaces/inkscape" version="1.1" id="svg2" xml:space="preserve" width="1164.0933" height="755.90668" viewBox="0 0 1164.0933 755.90668" sodipodi:docname="Bialystok_logo_2020_PL_CMYK.eps"><metadata id="metadata8"><rdf:RDF><cc:Work rdf:about=""><dc:format>image/svg+xml</dc:format><dc:type rdf:resource="http://purl.org/dc/dcmitype/StillImage"/></cc:Work></rdf:RDF></metadata><defs id="defs6"/><sodipodi:namedview pagecolor="#ffffff" bordercolor="#666666" borderopacity="1" objecttolerance="10" gridtolerance="10" guidetolerance="10" inkscape:pageopacity="0" inkscape:pageshadow="2" inkscape:window-width="640" inkscape:window-height="480" id="namedview4"/><g id="g10" inkscape:groupmode="layer" inkscape:label="ink_ext_XXXXXX" transform="matrix(1.3333333,0,0,-1.3333333,0,755.90667)"><g id="g12" transform="scale(0.1)"><path d="m 5549.57,1696.91 -281.78,395.42 251.89,334.61 h -167.96 l -231.65,-330.58 h -2.67 v 663.76 H 4953.51 V 1696.91 h 163.89 v 372.42 h 2.67 l 243.85,-372.42 h 185.65 v 0" style="fill:#65696e;fill-opacity:1;fill-rule:nonzero;stroke:none" id="path14"/><path d="m 4688.91,2062.52 c 0.25,-34.76 -1.54,-68.18 -5.18,-99.99 -3.67,-31.84 -10.38,-60.24 -20.3,-85.34 -9.92,-24.81 -24.16,-44.69 -42.42,-59.07 -18.55,-14.76 -42.33,-22.05 -71.59,-22.44 -28.25,0.39 -51.5,7.68 -69.85,22.44 -18.22,14.38 -32.5,34.26 -42.52,59.07 -10.25,25.1 -17.27,53.5 -21.34,85.34 -4,31.81 -6.02,65.23 -5.76,99.99 -0.26,35.24 1.5,69.16 5.43,101.57 3.67,32.53 10.48,61.67 20.43,87.6 10.26,25.74 24.17,46.29 42.68,61.42 18.22,15.16 42,22.87 70.93,23.07 29.26,-0.2 53.04,-7.91 71.59,-23.07 18.26,-15.13 32.5,-35.68 42.42,-61.42 9.92,-25.93 16.63,-55.07 20.3,-87.6 3.64,-32.41 5.43,-66.33 5.18,-101.57 z m 163.91,-1.33 c 0,54.92 -6.11,105.17 -18.5,151.27 -12.2,45.97 -30.94,85.92 -55.92,120.04 -25.09,34.12 -56.84,60.64 -94.67,79.37 -38.18,18.84 -82.92,28.37 -134.31,28.56 -51.08,-0.19 -95.68,-9.72 -133.71,-28.56 -38.02,-18.73 -69.52,-45.25 -94.79,-79.37 -25.02,-34.12 -43.79,-74.07 -56.18,-120.04 -12.46,-46.1 -18.74,-96.35 -18.74,-151.27 0,-54.19 6.28,-104 18.74,-149.83 12.39,-45.9 31.16,-85.82 56.18,-120.01 25.27,-34.03 56.77,-60.38 94.79,-79.37 38.03,-18.77 82.63,-28.44 133.71,-28.7 50.96,0.26 95.7,9.93 133.7,28.7 38.02,18.99 69.67,45.34 94.79,79.37 25.01,34.19 43.79,74.11 56.24,120.01 12.56,45.83 18.67,95.64 18.67,149.83 v 0" style="fill:#65696e;fill-opacity:1;fill-rule:nonzero;stroke:none" id="path16"/><path d="m 4202.24,1703.65 v 102.93 c -6.54,-2.05 -13.17,-3.58 -19.26,-5.01 -6.14,-1.12 -12.84,-1.8 -20.07,-1.8 -18.99,0 -34.31,3.97 -46.13,12.01 -11.64,7.84 -20.23,18.64 -25.63,32.86 -5.49,14.28 -8.2,30.73 -8.2,50 v 426.64 h 119.29 v 105.66 h -119.29 v 207.21 l -165.28,-46.09 v -161.12 h -81.13 v -105.66 h 81.13 v -434.81 c 0,-25.76 3.64,-50.16 11.22,-73.81 7.51,-23.49 19.31,-44.44 35.23,-63.21 15.9,-18.48 36.66,-33.18 62.13,-43.95 25.54,-10.83 56.02,-16.49 91.96,-16.79 19.72,0.3 36.83,1.83 51.05,4.92 14.37,3.02 25.24,6.38 32.98,10.02 v 0" style="fill:#65696e;fill-opacity:1;fill-rule:nonzero;stroke:none" id="path18"/><path d="m 3791.35,1906.74 c 0.16,21.41 -2.34,42.02 -7.26,61.64 -5.2,19.94 -14.08,38.62 -26.86,56.74 -12.66,17.99 -30.59,35.2 -53.29,51.43 -22.83,16.27 -51.96,31.39 -87.41,45.61 -21.44,8.35 -40.21,17.86 -56.45,27.94 -16.26,10.44 -28.92,22.58 -37.96,36.63 -9.17,14.03 -13.76,30.87 -14.02,50.56 0,17.33 4.07,33.37 12.07,47.91 7.88,14.37 19.55,26.12 35.2,34.68 15.61,8.81 34.61,13.34 57.09,13.6 17.14,-0.26 33.44,-2.34 48.37,-6.54 14.81,-4.36 28.18,-9.51 39.76,-15.81 11.65,-6.13 21.07,-12.2 28.37,-18.34 l 40.65,96.26 c -23.42,15.8 -51.06,28.16 -82.24,37.37 -31.12,9.1 -67.04,13.82 -107.41,14.01 -34.97,-0.19 -66.59,-5.59 -95.09,-16.72 -28.33,-10.76 -52.73,-25.98 -73.16,-45.11 -20.33,-19.4 -35.82,-41.84 -46.9,-67.28 -10.87,-25.5 -16.23,-52.89 -16.47,-82.17 -0.16,-19 2.05,-37.97 6.51,-56.47 4.78,-18.74 12.92,-36.8 25.11,-54.42 11.88,-17.57 28.86,-34.26 50.78,-50.1 21.63,-15.78 49.77,-30.16 84.26,-43.56 24.72,-9.24 45.08,-19.13 60.9,-29.97 15.77,-10.9 27.32,-23.48 34.93,-37.93 7.52,-14.47 11.16,-32.04 11.16,-52.62 0,-20.01 -4.78,-37.78 -14.02,-53.32 -9.34,-15.3 -22.31,-27.5 -39.27,-36.09 -16.75,-8.78 -36.33,-13.27 -59.14,-13.56 -19.87,0 -38.64,2.05 -56.01,6.08 -17.41,3.88 -32.76,9.05 -46.49,15.39 -13.73,6.41 -25.28,13.04 -34.35,20.53 l -43.4,-105.6 c 22.06,-15.19 50.43,-27.81 85.11,-37.5 34.8,-9.93 73.64,-14.94 116.74,-15.39 39.98,0.26 76.13,6.41 108.2,18.12 31.82,11.77 59.15,27.74 81.98,48.24 22.54,20.53 39.66,44.04 52.02,70.65 11.78,26.71 17.99,55.08 17.99,85.11 v 0" style="fill:#65696e;fill-opacity:1;fill-rule:nonzero;stroke:none" id="path20"/><path d="m 3313.99,2426.94 h -154.32 l -135.63,-472.78 c -5.34,-19.22 -9.4,-36.52 -12.3,-52.34 -2.96,-15.58 -5.2,-28.23 -6.34,-37.47 -1.2,-9.53 -1.52,-14.28 -1.52,-14.47 h -2.8 c 0,0.19 0,4.94 -0.42,14.47 -0.43,9.24 -1.8,21.89 -4.08,37.47 -2.04,15.82 -5.46,33.12 -10.37,52.34 l -125.96,472.78 h -176.12 l 241.09,-730.03 -119.2,-291.3 h 174.79 l 333.18,1021.33 v 0" style="fill:#65696e;fill-opacity:1;fill-rule:nonzero;stroke:none" id="path22"/><path d="m 2104.69,1795.68 c -12.39,-5.99 -27.2,-11.03 -44.24,-14.67 -17.08,-3.68 -35.43,-5.67 -54.62,-5.67 -48.53,-0.16 -86.11,10.44 -112.75,32.05 -26.54,21.92 -39.79,56.28 -40.28,103.41 0,32.95 5.73,60.5 17.38,82.44 11.48,21.92 28.13,39.46 50.06,53.08 21.86,13.54 48.35,24.11 79.51,31.82 30.96,7.59 65.91,13.76 104.94,18.22 v -300.68 z m 154.33,-59.53 v 452.3 c -0.2,46.98 -7.16,86.48 -20.88,118.77 -13.83,32.28 -32.93,58.37 -57.33,77.88 -24.62,19.46 -53.05,33.74 -85.65,42.56 -32.63,8.71 -67.6,13.04 -105.63,12.77 -38.32,-0.19 -73.55,-3.38 -105.59,-9.24 -31.95,-5.87 -59.99,-13.13 -84.51,-21.67 -24.38,-8.35 -44.64,-16.7 -60.51,-24.59 l 38.03,-94.85 c 15.08,7.55 32.2,14.44 51.65,21.24 19.46,6.67 40.24,12.36 62.3,16.69 22.34,4.4 45.22,6.6 68.87,6.8 28.59,0.19 53.7,-3.25 75.69,-10.16 21.67,-7.09 38.52,-19.44 50.71,-37.04 12.24,-17.63 18.26,-41.93 18.52,-73.4 v -39.32 c -44.7,-4.19 -87.08,-10.08 -127.72,-17.8 -40.46,-7.67 -77.78,-18.04 -111.8,-30.87 -33.87,-13.1 -63.47,-29.34 -88.75,-48.99 -25.05,-19.84 -44.37,-43.82 -58.36,-71.95 -13.86,-28.34 -20.78,-61.53 -21.05,-99.91 0,-47.13 11.03,-87.06 32.92,-120.03 22.12,-33.15 55.18,-58.17 99.35,-75.87 44.05,-17.4 99.26,-25.93 165.68,-26.19 57.09,0.26 108.11,5.14 152.86,14.67 44.84,9.73 82.02,22.41 111.2,38.2 v 0" style="fill:#65696e;fill-opacity:1;fill-rule:nonzero;stroke:none" id="path24"/><path d="m 1604.44,1696.91 v 730.03 h -165.27 v -730.03 h 165.27 v 0" style="fill:#65696e;fill-opacity:1;fill-rule:nonzero;stroke:none" id="path26"/><path d="m 1612.6,2634.15 c -0.29,15.62 -4.36,29.61 -12.24,42.04 -7.9,12.33 -18.5,22.09 -32.07,29.53 -13.76,7.23 -29.08,10.9 -46.48,11.1 -16.99,-0.2 -32.08,-3.87 -45.84,-11.1 -13.54,-7.44 -24.41,-17.2 -32.47,-29.53 -8.26,-12.43 -12.23,-26.42 -12.49,-42.04 0.26,-15.11 4.23,-28.68 12.49,-40.82 8.06,-12.23 18.93,-21.96 32.47,-29.15 13.76,-7.48 28.85,-11.02 45.84,-11.32 17.4,0.3 32.72,3.84 46.48,11.32 13.57,7.19 24.17,16.92 32.07,29.15 7.88,12.14 11.95,25.71 12.24,40.82 v 0" style="fill:#65696e;fill-opacity:1;fill-rule:nonzero;stroke:none" id="path28"/><path d="m 1144.68,2390.36 c 0.48,-37.5 -6.45,-68.63 -20.44,-93.71 -13.92,-25.15 -37.37,-43.52 -69.51,-55.49 -32.31,-12.01 -75.929,-17.41 -130.742,-16.05 l -52.836,1.34 v 302.09 c 15.254,5.39 31.36,9.49 47.825,12.09 16.718,2.77 35.031,4.03 55.07,4.03 56.313,0 98.963,-12.75 127.583,-38.48 28.67,-25.8 43.05,-64.38 43.05,-115.82 z m 24.39,-436.2 c -0.16,-39.94 -8.33,-72.27 -24.39,-96.38 -15.98,-24.36 -38.3,-41.87 -66.53,-52.74 -28.5,-10.9 -61.39,-16.33 -98.705,-16.13 -22.8,0 -42.84,1.34 -60.215,4.36 -17.363,2.8 -33.503,7.18 -48.078,13.31 v 334.51 l 52.836,1.36 c 58.457,1.4 105.692,-4.7 141.762,-18.31 36.05,-13.77 62.56,-34.78 78.93,-62.95 16.45,-28.49 24.69,-64.15 24.39,-107.03 z m 172.09,-2.69 c -0.26,27.07 -4.49,51.98 -13.14,74.69 -8.59,22.93 -19.79,43.17 -34.29,61.52 -14.41,18.02 -30.45,33.72 -48.28,47.29 -17.82,13.6 -35.85,24.66 -54.91,33.48 -18.67,8.56 -36.44,14.8 -53.87,18.7 v 2.64 c 19.82,4.32 39.88,12.01 60.28,22.67 20.17,10.5 38.77,24.59 55.95,41.87 16.92,17.57 30.74,38.32 41.09,62.68 10.38,24.33 15.88,52.32 15.97,84.16 0,34.77 -6.86,66.82 -20.79,96 -13.91,29.28 -35,54.75 -62.71,76.61 -27.98,21.54 -62.98,38.22 -104.89,50.26 -42.06,11.94 -91.21,18.05 -147.523,18.15 -37.668,0 -72.832,-2.15 -106.047,-6.73 -33.184,-4.42 -63.301,-10.57 -90.344,-18.47 -26.836,-7.88 -49.859,-17.11 -68.992,-27.59 v -853.25 c 32.012,-16.89 71.277,-30.02 117.754,-39.08 46.594,-9 99.355,-13.79 158.398,-13.79 53.384,0 101.984,5.14 145.484,15.84 43.45,10.58 81.03,26.84 112.42,48.73 31.59,21.93 55.79,49.75 72.64,83.51 17.05,33.67 25.54,73.82 25.8,120.11 v 0" style="fill:#65696e;fill-opacity:1;fill-rule:nonzero;stroke:none" id="path30"/><path d="m 2648.93,2427.13 -95.41,-48.37 v 381.36 h -165.26 v -0.78 0 -438.98 l -86.5,-43.16 v -97.3 l 86.5,45.93 v -526.71 0 -2.21 h 165.26 v 587.25 l 95.41,46.98 v 95.99" style="fill:#65696e;fill-opacity:1;fill-rule:evenodd;stroke:none" id="path32"/><path d="m 6571.85,2222.06 1439.56,-61.26 -5.7,-90.6 -5.63,-90.69 -1434.4,142.51 c 1.74,16.66 3.25,33.84 4.31,50.66 1.05,16.91 1.66,32.95 1.86,49.38 v 0" style="fill:#ee2922;fill-opacity:1;fill-rule:evenodd;stroke:none" id="path34"/><path d="m 6084.51,2927.72 1466.68,754.32 59.34,-123.16 59.4,-123.2 -1519.91,-643.98 c -10.12,23.14 -20.95,46.72 -31.94,69.56 -11.09,22.97 -22.05,44.69 -33.57,66.46 v 0" style="fill:#ee2922;fill-opacity:1;fill-rule:evenodd;stroke:none" id="path36"/><path d="m 6658.42,1992.03 1229.56,-245.7 -31.55,-187.97 -31.58,-187.96 -1189.89,484.81 23.46,136.82 v 0" style="fill:#fcd006;fill-opacity:1;fill-rule:evenodd;stroke:none" id="path38"/><path d="m 6357.21,1910.44 1233.08,-541.32 -55.66,-138.73 -55.85,-138.83 -1161.32,701.58 39.75,117.3 v 0" style="fill:#ee2922;fill-opacity:1;fill-rule:evenodd;stroke:none" id="path40"/><path d="m 6488.48,1611.85 855.58,-603.61 -59.56,-69.888 -59.66,-69.86 -802.27,666.418 c 11.81,12.46 23.49,25.42 34.45,38.3 11.12,13.03 21.31,25.58 31.46,38.64 v 0" style="fill:#fcd006;fill-opacity:1;fill-rule:evenodd;stroke:none" id="path42"/><path d="m 6118.31,1646.92 815.09,-833.24 -62.62,-52.489 -62.66,-52.531 -758.97,880.22 c 12.07,9.21 24.2,18.94 35.78,28.69 11.67,9.66 22.51,19.33 33.38,29.35 v 0" style="fill:#ee2922;fill-opacity:1;fill-rule:evenodd;stroke:none" id="path44"/><path d="m 5422.47,3350.1 215.62,1450.97 102.61,-19.32 102.62,-19.46 -307.54,-1433.63 c -18.83,4.52 -38.26,8.59 -57.25,12.2 -19.04,3.64 -37.35,6.6 -56.06,9.24 v 0" style="fill:#ee2922;fill-opacity:1;fill-rule:evenodd;stroke:none" id="path46"/><path d="m 5738.09,3324.59 575.66,1233.47 82.31,-47.59 82.27,-47.66 -649.29,-1190.82 c -14.83,9.7 -30.32,19 -45.47,27.78 -15.33,8.85 -30.16,16.95 -45.48,24.82 v 0" style="fill:#ee2922;fill-opacity:1;fill-rule:evenodd;stroke:none" id="path48"/><path d="m 4901.72,3251.3 -677.2,1208.23 87.71,45.09 87.87,45.02 598.69,-1248.57 c -16.78,-7.55 -33.57,-15.74 -49.76,-24.07 -16.4,-8.36 -31.76,-16.79 -47.31,-25.7 v 0" style="fill:#ee2922;fill-opacity:1;fill-rule:evenodd;stroke:none" id="path50"/><path d="m 4546.29,3101.47 -1045.44,1097.71 74.79,85.23 74.85,85.3 978.5,-1174.11 c -14.58,-14.99 -29.09,-30.84 -42.91,-46.64 -13.89,-15.88 -26.85,-31.39 -39.79,-47.49 v 0" style="fill:#ee2922;fill-opacity:1;fill-rule:evenodd;stroke:none" id="path52"/><path d="m 6035.32,3160.28 1020.17,1036.85 67.33,-76.71 67.25,-76.9 -1080.35,-968.15 c -11.81,14.94 -24.3,29.76 -36.76,43.98 -12.52,14.26 -24.82,27.56 -37.64,40.93 v 0" style="fill:#ee2922;fill-opacity:1;fill-rule:evenodd;stroke:none" id="path54"/><path d="m 5622.08,3559.01 382.31,1332.56 145.73,-43.5 145.8,-43.39 -512.81,-1293.79 -161.03,48.12 v 0" style="fill:#fcd006;fill-opacity:1;fill-rule:evenodd;stroke:none" id="path56"/><path d="m 5963.82,3392.35 768.21,1168.15 134.58,-78.82 134.62,-78.72 -888.85,-1097.59 -74.25,45.7 -74.31,41.28 v 0" style="fill:#fcd006;fill-opacity:1;fill-rule:evenodd;stroke:none" id="path58"/><path d="m 6343.26,3238.26 866.61,629.89 67.06,-93.3 67.17,-93.07 -926.97,-546.23 c -11.42,17.7 -23.78,35.7 -36.14,53.1 -12.45,17.17 -24.85,33.44 -37.73,49.61 v 0" style="fill:#fcd006;fill-opacity:1;fill-rule:evenodd;stroke:none" id="path60"/><path d="m 6302.34,2658.17 1354.74,203.67 8.92,-114.41 8.87,-114.48 -1362.71,-101.07 c -0.78,21.34 -1.89,43.24 -3.49,64.38 -1.72,21.21 -3.83,41.45 -6.33,61.91 v 0" style="fill:#ee2922;fill-opacity:1;fill-rule:evenodd;stroke:none" id="path62"/><path d="m 5176.8,3454 -283.18,1386.07 116.36,15.94 116.5,16.01 178.79,-1400.35 c -21.87,-1.99 -44.05,-4.49 -65.48,-7.49 -21.67,-2.96 -42.17,-6.34 -62.99,-10.18 v 0" style="fill:#ee2922;fill-opacity:1;fill-rule:evenodd;stroke:none" id="path64"/><path d="m 6761.28,2436.6 1142.05,60.63 1.83,-104.55 1.89,-104.49 -1148.11,52.99 2.34,95.42 v 0" style="fill:#fcd006;fill-opacity:1;fill-rule:evenodd;stroke:none" id="path66"/><path d="m 4307.48,3124.4 -933.5,660.7 63.46,83.18 63.21,83.08 867.8,-753.51 -60.97,-73.45 v 0" style="fill:#fcd006;fill-opacity:1;fill-rule:evenodd;stroke:none" id="path68"/><path d="m 4947.98,3525.7 -467.7,1357.35 115.01,38.87 114.96,38.71 344.08,-1404.39 -106.35,-30.54 v 0" style="fill:#fcd006;fill-opacity:1;fill-rule:evenodd;stroke:none" id="path70"/><path d="m 5323.32,3588.25 -38.19,1143.01 104.62,-0.2 104.49,-0.13 -75.58,-1146.9 -95.34,4.22 v 0" style="fill:#fcd006;fill-opacity:1;fill-rule:evenodd;stroke:none" id="path72"/><path d="m 6557.25,2885.3 1193.55,347.32 28.27,-106.4 28.28,-106.24 -1228.61,-232.73 -21.49,98.05 v 0" style="fill:#fcd006;fill-opacity:1;fill-rule:evenodd;stroke:none" id="path74"/><path d="m 4613.4,3365.03 -823.39,1064.37 111.88,74.89 111.51,74.72 704.62,-1149.57 -104.62,-64.41 v 0" style="fill:#fcd006;fill-opacity:1;fill-rule:evenodd;stroke:none" id="path76"/><path d="m 5960.43,1760.06 83.74,-55.63 -38.88,-60.32 -39.03,-60.31 -80.87,64.74 c 27.36,35.59 52.37,72.7 75.04,111.52 v 0" style="fill:#fcd006;fill-opacity:1;fill-rule:evenodd;stroke:none" id="path78"/><path d="m 5894.4,3025.5 67.12,74.86 54.02,-47.27 54.1,-47.24 -75.73,-70.68 c -31.26,32.17 -64.54,62.33 -99.51,90.33 v 0" style="fill:#fcd006;fill-opacity:1;fill-rule:evenodd;stroke:none" id="path80"/><path d="m 5402.21,3267.24 99.65,-13.18 -8.6,-71.23 -8.56,-71.31 -101.04,22.63 c 8.99,43.99 15.13,88.4 18.55,133.09 v 0" style="fill:#fcd006;fill-opacity:1;fill-rule:evenodd;stroke:none" id="path82"/><path d="m 5690.42,3246.12 107.42,-24.61 -21.59,-75.84 -21.61,-75.79 -107.83,36.79 c 16.81,45.67 31.39,92.25 43.61,139.45 v 0" style="fill:#ee2922;fill-opacity:1;fill-rule:evenodd;stroke:none" id="path84"/><path d="m 6246.57,2642.26 24.4,-107.41 -77.72,-13.38 -77.67,-13.47 -13.57,113.15 c 48.47,4.67 96.59,11.64 144.56,21.11 v 0" style="fill:#ee2922;fill-opacity:1;fill-rule:evenodd;stroke:none" id="path86"/><path d="m 6423.05,2242.06 2.51,-110.08 -78.79,2.31 -78.76,2.22 9.15,113.62 c 48.37,-5.07 97.03,-7.77 145.89,-8.07 v 0" style="fill:#ee2922;fill-opacity:1;fill-rule:evenodd;stroke:none" id="path88"/><path d="m 5324.13,3368.31 12.46,-79.18 -57.09,-5.92 -57.09,-5.95 -4.29,82.76 c 35.39,1.01 70.78,3.74 106.01,8.29 v 0" style="fill:#ee2922;fill-opacity:1;fill-rule:evenodd;stroke:none" id="path90"/><path d="m 5111.9,3091.44 -100.78,-55.49 -35.98,74.14 -36.01,74 109.66,46.49 c 18.71,-47.27 39.66,-93.76 63.11,-139.14 v 0" style="fill:#ee2922;fill-opacity:1;fill-rule:evenodd;stroke:none" id="path92"/><path d="m 4819.43,3036.76 -53.78,-78.66 -54.2,41.32 -54.3,41.25 63.69,75.21 c 31.44,-27.92 64.29,-54.43 98.59,-79.12 v 0" style="fill:#ee2922;fill-opacity:1;fill-rule:evenodd;stroke:none" id="path94"/><path d="m 6252.34,1971.97 34.97,-14.45 -18.9,-47.99 -18.84,-47.94 -37.22,15.87 c 14.41,31 27.75,62.55 39.99,94.51 v 0" style="fill:#fcd006;fill-opacity:1;fill-rule:evenodd;stroke:none" id="path96"/><path d="m 6451.68,2861.84 37.15,6.96 10.32,-50.41 10.4,-50.5 -39.81,-7.09 c -4.82,33.93 -10.87,67.64 -18.06,101.04 v 0" style="fill:#fcd006;fill-opacity:1;fill-rule:evenodd;stroke:none" id="path98"/><path d="m 6196.12,3127.81 32.59,19 26.81,-44.01 26.74,-44.12 -35.13,-20.01 c -16.03,30.29 -32.92,59.97 -51.01,89.14 v 0" style="fill:#fcd006;fill-opacity:1;fill-rule:evenodd;stroke:none" id="path100"/></g></g></svg>