<svg width="24" height="24" viewBox="0 0 24 24" fill="none" xmlns="http://www.w3.org/2000/svg">
<path d="M24 2V24H0V2H3V3C3 4.103 3.897 5 5 5C6.103 5 7 4.103 7 3V2H17V3C17 4.103 17.897 5 19 5C20.103 5 21 4.103 21 3V2H24ZM22 8H2V22H22V8ZM20 1C20 0.448 19.553 0 19 0C18.447 0 18 0.448 18 1V3C18 3.552 18.447 4 19 4C19.553 4 20 3.552 20 3V1ZM6 3C6 3.552 5.553 4 5 4C4.447 4 4 3.552 4 3V1C4 0.448 4.447 0 5 0C5.553 0 6 0.448 6 1V3ZM12.687 16.482C12.687 15.68 12.269 15.053 11.578 14.787C12.106 14.523 12.414 13.98 12.414 13.284C12.414 11.938 11.102 11.135 9.833 11.135C8.356 11.135 7.242 12.06 7.174 13.898H8.819C8.805 13.137 9.09 12.583 9.844 12.583C10.293 12.583 10.777 12.855 10.777 13.452C10.777 14.206 9.961 14.314 9.21 14.249V15.529C10.277 15.529 10.914 15.596 10.914 16.514C10.914 17.238 10.366 17.562 9.823 17.562C9.001 17.562 8.664 16.948 8.635 16.11H7.001C6.969 18.002 8.115 19 9.843 19C11.386 19 12.687 18.057 12.687 16.482ZM17 19V11.282H15.608C15.435 12.436 14.613 12.773 13.437 12.741V14.087H15.289V19H17Z" fill="#116858"/>
</svg>
