<svg width="23" height="25" viewBox="0 0 23 25" fill="none" xmlns="http://www.w3.org/2000/svg">
<path fill-rule="evenodd" clip-rule="evenodd" d="M23 24.123H0V8.12305H6V0.123047H17V12.123H23V24.123ZM11 19.123H8V23.123H11V19.123ZM15 19.123H12V23.123H15V19.123ZM21 19.123H19V23.123H21V19.123ZM4 19.123H2V23.123H4V19.123ZM15 14.123H13V16.123H15V14.123ZM10 14.123H8V16.123H10V14.123ZM21 14.123H19V16.123H21V14.123ZM4 14.123H2V16.123H4V14.123ZM15 10.123H13V12.123H15V10.123ZM10 10.123H8V12.123H10V10.123ZM4 10.123H2V12.123H4V10.123ZM15 6.12305H13V8.12305H15V6.12305ZM10 6.12305H8V8.12305H10V6.12305ZM15 2.12305H13V4.12305H15V2.12305ZM10 2.12305H8V4.12305H10V2.12305Z" fill="white"/>
</svg>
