<svg width="24" height="25" viewBox="0 0 24 25" fill="none" xmlns="http://www.w3.org/2000/svg">
<path fill-rule="evenodd" clip-rule="evenodd" d="M12.078 0.5C18.665 0.542 24 5.903 24 12.5C24 19.123 18.623 24.5 12 24.5C5.377 24.5 0 19.123 0 12.5C3.887 13.587 7.388 10.107 6 6.5C10.003 7.207 12.786 3.778 12.078 0.5ZM13.5 17.5C14.328 17.5 15 18.172 15 19C15 19.828 14.328 20.5 13.5 20.5C12.672 20.5 12 19.828 12 19C12 18.172 12.672 17.5 13.5 17.5ZM6.663 14.5C7.767 14.5 8.663 15.396 8.663 16.5C8.663 17.604 7.767 18.5 6.663 18.5C5.559 18.5 4.663 17.604 4.663 16.5C4.663 15.396 5.559 14.5 6.663 14.5ZM18 11.5C19.104 11.5 20 12.396 20 13.5C20 14.604 19.104 15.5 18 15.5C16.896 15.5 16 14.604 16 13.5C16 12.396 16.896 11.5 18 11.5ZM12 10.5C12.552 10.5 13 10.948 13 11.5C13 12.052 12.552 12.5 12 12.5C11.448 12.5 11 12.052 11 11.5C11 10.948 11.448 10.5 12 10.5ZM3 7.5C3.552 7.5 4 7.948 4 8.5C4 9.052 3.552 9.5 3 9.5C2.448 9.5 2 9.052 2 8.5C2 7.948 2.448 7.5 3 7.5ZM16.5 5.5C17.328 5.5 18 6.172 18 7C18 7.828 17.328 8.5 16.5 8.5C15.672 8.5 15 7.828 15 7C15 6.172 15.672 5.5 16.5 5.5ZM1.5 3.5C2.328 3.5 3 4.172 3 5C3 5.828 2.328 6.5 1.5 6.5C0.672 6.5 0 5.828 0 5C0 4.172 0.672 3.5 1.5 3.5ZM7.5 1.5C8.328 1.5 9 2.172 9 3C9 3.828 8.328 4.5 7.5 4.5C6.672 4.5 6 3.828 6 3C6 2.172 6.672 1.5 7.5 1.5ZM4 0.5C4.552 0.5 5 0.948 5 1.5C5 2.052 4.552 2.5 4 2.5C3.448 2.5 3 2.052 3 1.5C3 0.948 3.448 0.5 4 0.5Z" fill="#116858"/>
</svg>
