<svg width="36" height="25" viewBox="0 0 36 25" fill="none" xmlns="http://www.w3.org/2000/svg">
<path d="M32.5354 21.9092C31.7415 23.497 30.1186 24.5 28.3434 24.5C24.8593 24.5 22.5933 20.8335 24.1514 17.7172L24.76 16.5C22.1311 16.5 20 14.3689 20 11.74V8.5C20 4.08172 23.5817 0.5 28 0.5C32.4183 0.5 36 4.08172 36 8.5V13.0915C36 14.3334 35.7108 15.5583 35.1554 16.6692L32.5354 21.9092ZM27.24 20.5H28.76L32 14.02V6.5C32 5.39543 31.1046 4.5 30 4.5H26C24.8954 4.5 24 5.39543 24 6.5V10.5C24 11.6046 24.8954 12.5 26 12.5H28.0039C29.4907 12.5 30.4577 14.0646 29.7928 15.3944L27.24 20.5ZM12.5354 21.9092C11.7415 23.497 10.1186 24.5 8.3434 24.5C4.85932 24.5 2.59327 20.8335 4.1514 17.7172L4.76 16.5C2.13112 16.5 0 14.3689 0 11.74V8.5C0 4.08172 3.58172 0.5 8 0.5C12.4183 0.5 16 4.08172 16 8.5V13.0915C16 14.3334 15.7108 15.5583 15.1554 16.6692L12.5354 21.9092ZM7.24 20.5H8.76L12 14.02V6.5C12 5.39543 11.1046 4.5 10 4.5H6C4.89543 4.5 4 5.39543 4 6.5V10.5C4 11.6046 4.89543 12.5 6 12.5H8.00393C9.4907 12.5 10.4577 14.0646 9.79279 15.3944L7.24 20.5Z" fill="#116858"/>
</svg>
