<svg width="24" height="25" viewBox="0 0 24 25" fill="none" xmlns="http://www.w3.org/2000/svg">
<path d="M12 16.5C14.947 16.5 17.333 14.135 17.333 11.216C17.333 8.299 15.246 5.298 12 0.5C8.75395 5.298 6.66795 8.299 6.66795 11.216C6.66795 14.135 9.05295 16.5 12 16.5ZM11.982 3.913C12.293 4.397 12.667 5.238 12.667 6.126C12.667 8.732 9.99995 9.159 9.99995 7.573C9.99995 6.485 11.326 4.877 11.982 3.913ZM12 20.5C9.63295 20.5 6.28895 19.886 4.71495 18.144C5.18795 17.85 5.86495 17.534 6.73595 17.255C7.65895 17.844 9.43795 18.5 12 18.5C14.562 18.5 16.341 17.844 17.265 17.255C18.135 17.533 18.813 17.85 19.287 18.144C17.713 19.886 14.367 20.5 12 20.5ZM23.997 18.5C23.997 21.813 18.627 24.5 12 24.5C5.37495 24.5 0.00295312 21.813 0.00295312 18.5L0.00595312 18.374C0.0489531 17.365 0.620953 16.453 1.51095 15.976C2.40095 15.499 3.47595 15.528 4.33995 16.05L4.36295 16.064C2.84995 16.827 2.00195 17.742 2.00195 18.5C2.00195 20.131 5.89695 22.5 12 22.5C18.103 22.5 21.998 20.131 21.998 18.5C21.998 17.743 21.151 16.829 19.64 16.064L19.661 16.052C20.538 15.523 21.63 15.504 22.525 16C23.42 16.496 23.983 17.434 23.997 18.458V18.5ZM18.998 14.469C20.451 13.063 22.062 14.287 23.4 12.992C23.818 12.589 24.003 12.09 24.003 11.608C24.003 10.329 22.522 9.347 20.982 10.172C19.748 10.833 19.061 12.521 18.998 14.469ZM19.176 9.402C19.806 8.365 20.925 8.832 21.505 7.878C22.193 6.745 20.776 5.588 19.676 6.609C19.061 7.179 18.916 8.263 19.176 9.402ZM3.02295 10.172C1.48395 9.347 0.00195312 10.329 0.00195312 11.608C0.00195312 12.09 0.186953 12.588 0.603953 12.992C1.94195 14.287 3.55395 13.063 5.00595 14.469C4.94395 12.521 4.25795 10.833 3.02295 10.172ZM4.32995 6.609C3.22995 5.588 1.81195 6.745 2.49995 7.878C3.07995 8.832 4.19895 8.365 4.82995 9.402C5.08895 8.263 4.94495 7.179 4.32995 6.609Z" fill="#116858"/>
</svg>
