<svg width="24" height="21" viewBox="0 0 24 21" fill="none" xmlns="http://www.w3.org/2000/svg">
<path fill-rule="evenodd" clip-rule="evenodd" d="M21.826 7.49994H19.74C19.911 7.01294 20.002 6.54294 20.002 6.08994C20.002 3.76394 18.184 2.31394 15.978 2.51694C13.297 2.76394 11.46 6.22694 11 7.00094C10.473 6.13794 8.739 2.76294 6.019 2.50694C3.909 2.30794 2 3.68794 2 6.08894C2 9.19794 6.347 13.1729 11.001 17.7039C12.161 16.5769 13.286 15.4959 14.325 14.4609L15.295 16.3179C13.977 17.6199 12.526 19.0039 11.001 20.4989C4.837 14.4619 0 10.2969 0 6.09594C0 2.80194 2.462 0.56994 5.674 0.49994C7.837 0.49094 9.799 1.45694 11.001 3.45194C12.178 1.49594 14.147 0.50994 16.254 0.50994C19.318 0.50994 22 2.62494 22 6.10494C22 6.56894 21.94 7.03294 21.826 7.49994ZM10.732 11.4999C10.386 12.0979 9.74 12.4999 9 12.4999C7.896 12.4999 7 11.6039 7 10.4999C7 9.39594 7.896 8.49994 9 8.49994C9.74 8.49994 10.386 8.90194 10.732 9.49994H11.954L13.834 6.78994C13.974 6.58794 14.21 6.47494 14.456 6.49094C14.701 6.50694 14.92 6.65194 15.032 6.87094L17.302 11.3079L18.115 9.85794C18.239 9.63694 18.472 9.49994 18.726 9.49994H24V11.4999H19.487L17.728 14.4079C17.596 14.6269 17.355 14.7559 17.099 14.7449C16.844 14.7349 16.615 14.5849 16.501 14.3559L14.245 9.79694L13.256 11.2029C13.125 11.3889 12.911 11.4999 12.683 11.4999H10.732Z" fill="#116858"/>
</svg>
