<svg width="24" height="23" viewBox="0 0 24 23" fill="none" xmlns="http://www.w3.org/2000/svg">
<path fill-rule="evenodd" clip-rule="evenodd" d="M5.662 22.5L0.293 17.135C0.098 16.94 0 16.685 0 16.428C0 16.172 0.098 15.916 0.293 15.721L15.222 0.793C15.417 0.599 15.673 0.5 15.929 0.5C16.184 0.5 16.441 0.599 16.636 0.793L23.707 7.866C23.903 8.061 24 8.317 24 8.574C24 8.83 23.903 9.085 23.707 9.281L12.491 20.5H18.005V22.5H5.662ZM9.319 20.5L3.833 15.014L2.414 16.428L6.49 20.5H9.319ZM9.775 9.071L5.247 13.599L10.905 19.258L15.432 14.728L9.775 9.071Z" fill="#116858"/>
</svg>
