<svg width="24" height="24" viewBox="0 0 24 24" fill="none" xmlns="http://www.w3.org/2000/svg">
<path d="M2.18182 0C0.988364 0 0 0.988364 0 2.18182V21.8182C0 23.0116 0.988364 24 2.18182 24H21.8182C23.0116 24 24 23.0116 24 21.8182V2.18182C24 0.988364 23.0116 0 21.8182 0H2.18182ZM2.18182 2.18182H21.8182V21.8182H16.1585V14.4545H18.9884L19.3975 11.1818H16.1596V9.06764C16.1596 8.11418 16.3931 7.46618 17.7611 7.46618H19.5338V4.5C19.2316 4.46182 18.1833 4.39745 16.9778 4.39745C14.4633 4.39745 12.7505 5.91055 12.7505 8.72727V11.1818H9.88691V14.4545H12.7495V21.8182H2.18182V2.18182Z" fill="#2C3535"/>
</svg>
