<svg width="153" height="80" viewBox="0 0 153 80" fill="none" xmlns="http://www.w3.org/2000/svg">
<g clip-path="url(#clip0_2537_22044)">
<mask id="mask0_2537_22044" style="mask-type:luminance" maskUnits="userSpaceOnUse" x="-27" y="-27" width="206" height="160">
<path d="M-26.3594 -26.5033H178.834V132.642H-26.3594V-26.5033Z" fill="white"/>
</mask>
<g mask="url(#mask0_2537_22044)">
<path d="M27.775 66.6895C46.1753 71.9332 86.3723 78.2254 86.3723 78.2254C108.477 82.4411 127.324 76.6182 138.381 65.7351C149.168 55.6297 155.765 36.9464 150.471 18.6625C142.014 -5.47751 102.473 0.489731 83.641 1.69489C66.1883 3.31069 53.6751 4.78516 37.3095 7.01107C22.5795 9.01337 10.2839 11.5633 4.21933 21.8268C-5.4638 39.1257 1.96842 61.5258 27.775 66.6895Z" fill="#ED1051"/>
<path d="M112.792 47.2426C113.191 47.2426 113.392 47.4511 113.392 47.8626V49.0316C113.392 49.4431 113.191 49.5879 112.792 49.5879H111.734C111.336 49.5879 111.135 49.3802 111.135 48.9687V47.8626C111.135 47.4511 111.336 47.2426 111.734 47.2426H112.792ZM125.245 49.5973C125.628 49.5973 125.913 49.5973 125.918 49.2078V47.6433C125.918 47.352 125.691 47.2223 125.491 47.2197H125.113C124.955 47.2197 124.914 46.9522 124.912 46.944C124.896 46.8186 124.882 46.5997 124.882 46.4726V39.8939C124.882 39.4833 124.865 39.2756 124.466 39.2756H123.37C123.178 39.2756 122.998 39.2261 122.861 39.3683C122.725 39.5096 122.711 39.697 122.712 39.8965L122.713 40.4782C122.714 40.6247 122.714 40.8686 122.714 41.0151V46.9319C122.714 47.0879 122.721 47.3413 122.729 47.4985C122.77 48.2349 123.221 49.5973 124.843 49.5973H125.245ZM118.622 43.6568C117.598 43.6676 116.977 44.553 116.977 45.7841C116.977 46.6971 117.456 47.8932 118.658 47.8712C119.713 47.8544 120.359 47.0526 120.317 45.7707C120.279 44.5841 119.893 43.643 118.622 43.6568ZM118.694 41.7674C120.675 41.7674 122.005 43.3724 122.005 45.7573C122.005 48.1069 120.607 49.7468 118.605 49.7468C117.92 49.7468 117.417 49.5629 117.064 49.3483V50.4996C117.064 50.6241 117.065 50.731 117.065 50.7512V50.7568L117.063 52.3205C117.06 52.732 116.858 52.9375 116.462 52.9375H114.655C114.255 52.9375 114.054 52.7294 114.054 52.3188V51.2928C114.054 50.8805 114.255 50.6728 114.655 50.6728H115.081V43.958C115.081 43.9352 115.078 43.9059 115.076 43.8731H114.847C114.449 43.8731 114.31 43.6667 114.31 43.2544V42.546C114.31 42.1345 114.449 41.9264 114.847 41.9264H115.455C115.645 41.9264 115.926 41.9729 116.107 42.0324C116.297 42.0966 116.532 42.2259 116.708 42.4163C117.089 42.0888 117.713 41.7674 118.694 41.7674ZM79.6132 30.9498C80.1932 30.9498 80.7236 30.705 81.1032 30.3121C81.4845 29.9208 81.7224 29.3719 81.7224 28.7713C81.7224 28.1719 81.4845 27.6243 81.1032 27.2322C80.7236 26.8383 80.1932 26.5932 79.6132 26.594C79.0311 26.5932 78.4998 26.8383 78.1189 27.2322C77.7393 27.6243 77.5023 28.1719 77.5023 28.7713C77.5023 29.3719 77.7393 29.9208 78.1189 30.3121C78.4998 30.705 79.0311 30.9498 79.6132 30.9498ZM82.5242 47.1624H81.5194L80.8688 35.0323H81.5905C81.7189 35.0323 81.8439 34.9793 81.9335 34.8876C82.0248 34.7932 82.0765 34.6639 82.0765 34.5317V33.1296C82.0765 32.9973 82.0248 32.8698 81.9335 32.7745C81.8439 32.6828 81.7189 32.6289 81.5905 32.6289H78.2409C78.047 32.6289 77.8716 32.7474 77.794 32.9318L74.5965 40.5773L71.3382 37.1505C71.2473 37.0553 71.121 37.0002 70.9922 37.0002H68.26C68.1329 37.0002 68.0079 37.0532 67.9166 37.1471C67.8257 37.2397 67.7744 37.3686 67.7744 37.5008V38.9034C67.7744 39.0356 67.8257 39.1627 67.9166 39.2562C68.0079 39.3506 68.1329 39.4045 68.26 39.4045H68.7857L68.0829 47.1624H67.238C67.1096 47.1624 66.985 47.215 66.8941 47.3081C66.8036 47.4016 66.7515 47.5313 66.7515 47.6635V49.0837C66.7515 49.2151 66.8036 49.3431 66.8941 49.4375C66.985 49.531 67.1096 49.5848 67.238 49.5848H70.1653C70.4178 49.5848 70.6316 49.3819 70.6497 49.1216L70.7526 47.7053L71.3989 40.3317L73.8894 43.0027C73.9808 43.0997 74.1057 43.1553 74.2371 43.1553H75.5246C75.7082 43.1553 75.8758 43.0484 75.9581 42.8799L78.134 38.4255L78.6545 47.686L78.72 49.1083C78.7334 49.375 78.9454 49.5848 79.2047 49.5848H82.5242C82.6535 49.5848 82.7772 49.531 82.8681 49.4375C82.9594 49.3431 83.0098 49.2151 83.0098 49.0837V47.6635C83.0098 47.5313 82.9594 47.4016 82.8681 47.3081C82.7772 47.215 82.6535 47.1624 82.5242 47.1624ZM88.931 45.8405C89.0128 45.5863 89.0598 45.3213 89.0714 45.0662C88.8392 45.0671 88.4859 45.074 88.0895 45.1153C87.6681 45.1563 87.2057 45.2429 86.8339 45.3928C86.5835 45.4898 86.3797 45.6152 86.2431 45.7513C86.1639 45.8297 86.1061 45.912 86.0656 45.9995C86.0178 46.1025 85.9907 46.2175 85.9907 46.3701C85.9907 46.5855 86.0467 46.7889 86.1522 46.9548C86.2569 47.1215 86.4047 47.2559 86.6085 47.3413C86.7481 47.399 86.911 47.4352 87.1101 47.4352C87.3324 47.4343 87.5319 47.3917 87.7167 47.3158C87.9025 47.2374 88.0744 47.1258 88.2295 46.9819C88.5419 46.6962 88.7892 46.2865 88.931 45.8405ZM92.5404 47.218C92.668 47.218 92.7942 47.271 92.8847 47.3637C92.9752 47.4563 93.026 47.5869 93.026 47.7183V49.0837C93.026 49.2143 92.9752 49.3448 92.8847 49.4392C92.7942 49.531 92.668 49.5848 92.5404 49.5848H90.7596C90.4929 49.5848 90.2503 49.5469 90.0297 49.4616C89.8087 49.3759 89.6143 49.238 89.4696 49.0561C89.3967 48.9652 89.3377 48.8635 89.2929 48.7584C89.2477 48.8019 89.2037 48.8459 89.155 48.8868C88.9258 49.0949 88.6513 49.2927 88.3217 49.4517C87.8831 49.6637 87.3522 49.8033 86.7391 49.8033C86.2703 49.8033 85.7993 49.7236 85.3568 49.5594C84.916 49.3927 84.5028 49.141 84.162 48.7903C83.9354 48.5581 83.7402 48.2819 83.595 47.9665C83.3989 47.5455 83.2925 47.0564 83.2925 46.5161C83.2925 45.9879 83.4015 45.513 83.601 45.1093C83.7975 44.7021 84.0797 44.3703 84.4037 44.1045C84.6205 43.9278 84.857 43.7787 85.1 43.6534C85.4284 43.4866 85.7718 43.3595 86.1203 43.2604C86.5822 43.1298 87.0502 43.0484 87.4871 42.9984C88.0705 42.9312 88.5979 42.9196 88.9788 42.9196H89.0538C89.0443 42.7235 89.0167 42.5568 88.9762 42.4206C88.9258 42.2496 88.8569 42.1233 88.7763 42.0225C88.7229 41.9557 88.6617 41.8988 88.5932 41.8476C88.4988 41.7825 88.3893 41.7295 88.2588 41.6898C88.086 41.6351 87.8753 41.6058 87.6392 41.6067C87.0799 41.6058 86.5452 41.7726 86.1371 41.96C85.7274 42.1453 85.4439 42.3474 85.3844 42.3909L85.3749 42.3986H85.3728C85.2607 42.4861 85.119 42.518 84.9833 42.4896C84.848 42.4598 84.7286 42.3715 84.6592 42.2453L83.9724 40.9888C83.8561 40.776 83.9052 40.5075 84.0892 40.3537C84.1129 40.3343 84.4727 40.0361 85.1069 39.7401C85.742 39.4437 86.6572 39.1494 87.7814 39.1494C88.4648 39.1494 89.0813 39.2519 89.6191 39.4708C90.1572 39.6897 90.6122 40.0297 90.9561 40.4782C91.1866 40.7768 91.3633 41.1194 91.4887 41.4981C91.6576 42.0048 91.7386 42.5727 91.7386 43.2014V47.218H92.5404ZM105.005 47.218H104.08V43.182C104.08 42.5628 104.019 42.0048 103.886 41.5063C103.788 41.1327 103.645 40.7945 103.455 40.495C103.312 40.2701 103.146 40.0706 102.949 39.8991C102.657 39.6415 102.308 39.4506 101.921 39.3278C101.531 39.2058 101.102 39.1485 100.632 39.1485C100.006 39.1485 99.456 39.2713 98.9834 39.4648C98.4038 39.7022 97.9484 40.0448 97.6011 40.3938C97.5908 40.3537 97.5774 40.3132 97.5645 40.271C97.5123 40.1245 97.4356 39.9857 97.3327 39.8664C97.2581 39.7755 97.1694 39.697 97.0728 39.6307C96.9268 39.5329 96.7656 39.4674 96.5933 39.4269C96.4226 39.3859 96.2395 39.3683 96.0469 39.3683H94.0386C93.9111 39.3683 93.7839 39.4221 93.6943 39.5139C93.6038 39.6061 93.5543 39.7375 93.5543 39.8698V41.234C93.5543 41.3658 93.6038 41.4947 93.6943 41.589C93.7839 41.6817 93.9111 41.7355 94.0386 41.7355H95.0335L95.0331 47.218H94.1256C93.9977 47.218 93.8731 47.271 93.7814 47.3637C93.693 47.4563 93.6418 47.5869 93.6418 47.7183V49.0837C93.6418 49.2143 93.693 49.3448 93.7814 49.4375C93.8731 49.531 93.9977 49.5848 94.1256 49.5848H98.6395C98.7671 49.5848 98.8929 49.531 98.9821 49.4375C99.073 49.3448 99.1238 49.2143 99.1238 49.0837V47.7183C99.1238 47.5869 99.073 47.4563 98.9821 47.3637C98.8929 47.271 98.7671 47.218 98.6395 47.218H97.7144V44.8029C97.7144 44.3988 97.7791 44.0032 97.9014 43.6383C98.0837 43.0911 98.3892 42.6197 98.7813 42.2926C98.9769 42.1285 99.1945 41.9997 99.4323 41.9096C99.6693 41.8213 99.927 41.7717 100.21 41.7717C100.511 41.7717 100.718 41.8247 100.856 41.8971C100.963 41.9535 101.037 42.0182 101.104 42.1048C101.152 42.169 101.197 42.247 101.234 42.3413C101.292 42.4835 101.334 42.6636 101.363 42.8739C101.389 43.0846 101.399 43.3233 101.399 43.5844V49.0837C101.399 49.2143 101.45 49.3448 101.542 49.4375C101.632 49.531 101.756 49.5848 101.886 49.5848H105.005C105.134 49.5848 105.259 49.531 105.35 49.4375C105.437 49.3448 105.49 49.2143 105.49 49.0837V47.7183C105.49 47.5869 105.437 47.4563 105.35 47.3637C105.259 47.271 105.134 47.218 105.005 47.218ZM69.9081 35.6593C70.3868 35.6593 70.8211 35.4572 71.1353 35.134C71.4485 34.81 71.6437 34.361 71.6437 33.8668C71.6437 33.3735 71.4485 32.9245 71.1353 32.5996C70.8211 32.2756 70.3868 32.0744 69.9081 32.0744C69.4303 32.0744 68.9942 32.2756 68.681 32.5996C68.369 32.9245 68.1725 33.3735 68.1725 33.8668C68.1725 34.361 68.369 34.81 68.681 35.134C68.9942 35.4572 69.4303 35.6593 69.9081 35.6593ZM109.703 47.3581C109.614 47.2646 109.489 47.2098 109.361 47.2098H108.794V42.3297V40.963C108.794 40.8324 108.741 40.7027 108.651 40.6109C108.56 40.5161 108.435 40.4631 108.307 40.4631H107.867H106.597H106.574H105.846C105.718 40.4631 105.594 40.5161 105.504 40.6109C105.414 40.7027 105.361 40.8324 105.361 40.963V42.3362C105.361 42.4667 105.414 42.5964 105.504 42.6899C105.594 42.7838 105.718 42.8368 105.846 42.8368H106.111V47.7183V49.0837C106.111 49.2151 106.164 49.3431 106.255 49.4392C106.345 49.531 106.47 49.5848 106.597 49.5848H108.037H108.068H108.307H109.361C109.489 49.5848 109.614 49.531 109.703 49.4392C109.793 49.3431 109.845 49.2143 109.845 49.0837V47.7122C109.845 47.5791 109.793 47.4503 109.703 47.3581ZM106.26 38.9383C106.488 39.1744 106.807 39.3217 107.155 39.3209C107.503 39.3217 107.822 39.1744 108.049 38.9383C108.278 38.7034 108.42 38.3742 108.42 38.014C108.42 37.6555 108.278 37.3272 108.049 37.0907C107.822 36.8554 107.503 36.708 107.155 36.708C106.807 36.708 106.488 36.8554 106.26 37.0907C106.033 37.3272 105.89 37.6555 105.89 38.014C105.89 38.3742 106.033 38.7034 106.26 38.9383ZM44.6944 46.9819C45.0068 46.6971 45.2528 46.2865 45.3959 45.8405C45.4777 45.5863 45.5243 45.3213 45.535 45.0662C45.3041 45.0671 44.9495 45.074 44.5544 45.1153C44.1325 45.1563 43.6711 45.2429 43.2992 45.3928C43.0493 45.4898 42.8433 45.6152 42.7055 45.7513C42.6292 45.8297 42.5706 45.912 42.5288 45.9995C42.484 46.1025 42.4543 46.2175 42.4543 46.3701C42.4543 46.5855 42.5116 46.7889 42.6158 46.9548C42.721 47.1215 42.867 47.2559 43.0743 47.3413C43.21 47.399 43.3759 47.4352 43.5741 47.4352C43.7969 47.4343 43.9959 47.3917 44.1825 47.3158C44.3661 47.2374 44.5384 47.1258 44.6944 46.9819ZM49.0053 47.218C49.1337 47.218 49.2565 47.271 49.3483 47.3637C49.4384 47.4563 49.4901 47.5869 49.4901 47.7183V49.0837C49.4901 49.2151 49.4384 49.3448 49.3483 49.4392C49.2565 49.531 49.1337 49.5848 49.0053 49.5848H47.2245C46.9574 49.5848 46.7148 49.5469 46.4937 49.4616C46.2731 49.3759 46.0771 49.238 45.934 49.0561C45.8621 48.9652 45.8026 48.8635 45.7565 48.7584C45.7147 48.8019 45.6695 48.8459 45.6199 48.8868C45.3907 49.0949 45.1136 49.2927 44.784 49.4517C44.3475 49.6637 43.8158 49.8033 43.204 49.8033C42.7339 49.8033 42.2629 49.7236 41.8204 49.5594C41.3814 49.3927 40.9673 49.141 40.6265 48.7903C40.3977 48.5581 40.2051 48.2819 40.059 47.9665C39.8638 47.5455 39.7574 47.0564 39.7574 46.5161C39.7574 45.9879 39.8655 45.513 40.0646 45.1093C40.2624 44.7021 40.5446 44.3703 40.8691 44.1045C41.0849 43.9278 41.3198 43.7796 41.5654 43.6534C41.8933 43.4866 42.2375 43.3595 42.5848 43.2604C43.048 43.1298 43.5151 43.0484 43.9524 42.9984C44.5341 42.9312 45.0637 42.9196 45.442 42.9196H45.5174C45.5079 42.7235 45.4803 42.5568 45.4402 42.4206C45.3894 42.2496 45.3222 42.1233 45.2412 42.0225C45.1873 41.9557 45.127 41.8988 45.0563 41.8476C44.9646 41.7825 44.8551 41.7295 44.7228 41.6898C44.5492 41.6351 44.3402 41.6058 44.1028 41.6067C43.5435 41.6058 43.0114 41.7726 42.602 41.96C42.1901 42.1453 41.9088 42.3474 41.8493 42.3909L41.8385 42.3986C41.7265 42.4861 41.5847 42.518 41.4482 42.4896C41.3103 42.4598 41.1931 42.3715 41.1254 42.2453L40.4369 40.9888C40.3205 40.7768 40.3692 40.5075 40.5519 40.3537C40.5765 40.3343 40.9358 40.0361 41.5718 39.7401C42.2056 39.4437 43.1221 39.1494 44.2441 39.1494C44.9314 39.1494 45.548 39.2528 46.0831 39.4708C46.6209 39.6897 47.078 40.0297 47.4197 40.4782C47.6489 40.7768 47.826 41.1194 47.9523 41.4981C48.1229 42.0048 48.2022 42.5727 48.2039 43.2014V47.218H49.0053ZM61.4095 47.218H60.4839V43.182C60.4839 42.5628 60.4245 42.0048 60.2909 41.5063C60.1914 41.1327 60.0487 40.7945 59.8592 40.495C59.7161 40.2701 59.5485 40.0706 59.3533 39.8991C59.0603 39.6415 58.7122 39.4506 58.3257 39.3278C57.9353 39.2058 57.5061 39.1485 57.0378 39.1485C56.41 39.1485 55.858 39.2713 55.3871 39.4648C54.8093 39.7022 54.353 40.0448 54.0044 40.3938C53.9936 40.3537 53.982 40.3132 53.9678 40.271C53.9161 40.1245 53.8398 39.9857 53.7385 39.8664C53.6627 39.7755 53.5722 39.697 53.4766 39.6307C53.3318 39.5329 53.1693 39.4674 52.9987 39.4269C52.8259 39.3859 52.6445 39.3683 52.4519 39.3683H50.441C50.3135 39.3683 50.1877 39.4221 50.0985 39.5139C50.0088 39.6061 49.9576 39.7375 49.9576 39.8698V41.234C49.9576 41.3658 50.0088 41.4947 50.0985 41.589C50.1877 41.6817 50.3135 41.7355 50.441 41.7355H51.4372V47.218H50.5281C50.4005 47.218 50.2769 47.271 50.1864 47.3637C50.0955 47.4563 50.0437 47.5869 50.0437 47.7183V49.0837C50.0437 49.2143 50.0955 49.3448 50.1864 49.4375C50.2769 49.531 50.4005 49.5848 50.5281 49.5848H55.0441C55.1699 49.5848 55.297 49.531 55.3871 49.4375C55.4767 49.3448 55.528 49.2143 55.528 49.0837V47.7183C55.528 47.5869 55.4767 47.4563 55.3871 47.3637C55.297 47.271 55.1699 47.218 55.0441 47.218H54.1181V44.8029C54.1181 44.3988 54.1841 44.0032 54.3056 43.6383C54.4865 43.0911 54.7938 42.6197 55.1854 42.2926C55.3819 42.1285 55.5986 41.9997 55.836 41.9096C56.0735 41.8213 56.332 41.7717 56.6134 41.7717C56.915 41.7717 57.1209 41.8247 57.2601 41.8971C57.367 41.9535 57.4411 42.0182 57.5074 42.1048C57.5557 42.169 57.6018 42.247 57.6388 42.3413C57.6949 42.4835 57.7379 42.6636 57.7651 42.8739C57.7922 43.0846 57.8043 43.3233 57.8043 43.5844V49.0837C57.8043 49.2143 57.8564 49.3448 57.9461 49.4375C58.0344 49.531 58.1602 49.5848 58.2886 49.5848H61.4095C61.5366 49.5848 61.6624 49.531 61.752 49.4375C61.8434 49.3448 61.8938 49.2143 61.8938 49.0837V47.7183C61.8938 47.5869 61.8434 47.4563 61.752 47.3637C61.6624 47.271 61.5366 47.218 61.4095 47.218ZM66.7653 40.6109C66.6757 40.5161 66.5485 40.4631 66.421 40.4631H65.6945H65.6726H64.4032H63.9616C63.8332 40.4631 63.7082 40.5161 63.6199 40.6109C63.5272 40.7027 63.4755 40.8324 63.4755 40.9647V42.3306V47.2107H62.9085C62.7818 47.2107 62.6569 47.2646 62.5655 47.3572C62.4759 47.4503 62.4246 47.5791 62.4246 47.7122V49.0837C62.4246 49.2143 62.4759 49.3448 62.5655 49.4375C62.6569 49.531 62.7818 49.5848 62.9085 49.5848H63.9616H64.2007H64.2304H65.6726C65.7988 49.5848 65.9246 49.531 66.0143 49.4375C66.1047 49.3448 66.1582 49.2143 66.1582 49.0837V47.7183V42.8368H66.421C66.5485 42.8368 66.6757 42.7838 66.7653 42.6899C66.8558 42.5964 66.9066 42.4667 66.9066 42.3362V40.9647C66.9066 40.8324 66.8558 40.7027 66.7653 40.6109ZM64.8173 39.5389C65.2223 39.5389 65.5946 39.3683 65.86 39.0929C66.1272 38.8176 66.2913 38.4341 66.2913 38.0149C66.2913 37.5948 66.1272 37.2104 65.86 36.9377C65.5946 36.6624 65.2223 36.49 64.8173 36.49C64.4127 36.49 64.0391 36.6624 63.7733 36.9377C63.507 37.2104 63.3402 37.5948 63.3402 38.0149C63.3402 38.4341 63.507 38.8176 63.7733 39.0929C64.0391 39.3683 64.4127 39.5389 64.8173 39.5389ZM39.1645 39.4445H37.4668C37.4668 39.0822 37.5263 38.8327 37.6064 38.6595C37.6659 38.5298 37.7336 38.4397 37.8111 38.3673C37.8684 38.3126 37.9348 38.27 38.0028 38.2355C38.1067 38.1816 38.2239 38.1446 38.3441 38.1243C38.4626 38.1032 38.5815 38.0963 38.6823 38.0963C38.8659 38.0963 39.009 38.1092 39.1003 38.1209C39.1468 38.1269 39.1779 38.1317 39.199 38.136C39.208 38.1377 39.2158 38.1394 39.2184 38.1411H39.2218C39.3644 38.173 39.5139 38.1377 39.6286 38.0433C39.7445 37.9485 39.8121 37.8046 39.8121 37.6512V36.172C39.8121 35.9269 39.6385 35.7149 39.4032 35.6769C39.3851 35.6735 39.0227 35.6166 38.504 35.6158C38.2084 35.6158 37.8348 35.6407 37.435 35.7317C37.1359 35.8006 36.8197 35.9075 36.5086 36.0733C36.2763 36.197 36.048 36.3543 35.8368 36.5529C35.5206 36.8511 35.2431 37.2406 35.0561 37.7296C34.8682 38.2066 34.7631 38.7767 34.7588 39.4445H33.7406C33.6118 39.4445 33.4872 39.4975 33.3976 39.5902C33.3076 39.6837 33.2559 39.8125 33.2559 39.9452V41.3322C33.2559 41.4645 33.3076 41.5925 33.3976 41.686C33.4872 41.7782 33.6118 41.8329 33.7406 41.8329H34.7588V47.9152V49.3026C34.7588 49.434 34.8113 49.5629 34.9014 49.6572C34.9919 49.7486 35.116 49.8033 35.2431 49.8033H36.9825C37.1101 49.8033 37.2337 49.7486 37.3242 49.6572C37.4151 49.5629 37.4668 49.434 37.4668 49.3026V47.9152V41.8329H39.1645C39.2925 41.8329 39.4191 41.7782 39.5101 41.686C39.5993 41.5925 39.6505 41.4645 39.6505 41.3322V39.9452C39.6505 39.8125 39.5993 39.6837 39.5101 39.5902C39.4191 39.4975 39.2925 39.4445 39.1645 39.4445Z" fill="white"/>
</g>
</g>
<defs>
<clipPath id="clip0_2537_22044">
<rect width="152.131" height="80" fill="white"/>
</clipPath>
</defs>
</svg>
