<svg width="24" height="17" viewBox="0 0 24 17" fill="none" xmlns="http://www.w3.org/2000/svg">
<path fill-rule="evenodd" clip-rule="evenodd" d="M21 7.5C21 6.948 20.552 6.5 20 6.5C19.448 6.5 19 6.948 19 7.5C19 8.051 19.448 8.5 20 8.5C20.552 8.5 21 8.051 21 7.5ZM24 7.986C22.816 10.016 20.71 12.067 18.34 13.309C17.004 12.037 16.244 10.352 16.237 8.532C16.229 6.612 17.059 4.828 18.534 3.508C20.796 4.494 22.792 6.114 24 7.986ZM17.37 13.76C16.757 14.015 16.134 14.207 15.509 14.333C14.388 15.681 12.713 16.5 10.222 16.5C9.835 16.5 9.428 16.48 9 16.439C9.647 15.557 9.939 14.664 10.02 13.786C7.303 12.782 5.344 10.912 4 9.499C2.962 10.674 1.568 11.499 0 11.499C1.07 9.608 1.111 6.788 0 4.501C1.353 4.522 3.001 5.391 4 6.5C5.381 5.3 7.282 3.839 10.008 3.059C9.908 2.231 9.609 1.391 9 0.56C9.429 0.52 9.837 0.5 10.225 0.5C12.692 0.5 14.36 1.301 15.481 2.628C16.161 2.735 16.838 2.9 17.5 3.123C16.047 4.592 15.229 6.493 15.237 8.536C15.245 10.505 16.01 12.335 17.37 13.76Z" fill="#116858"/>
</svg>
