<svg width="24" height="24" viewBox="0 0 24 24" fill="none" xmlns="http://www.w3.org/2000/svg">
<path fill-rule="evenodd" clip-rule="evenodd" d="M22 22H2C0.896 22 0 21.104 0 20V8.00002C0 6.89602 0.896 6.00002 2 6.00002H3.626L3.704 6.28302C3.898 6.91402 4.222 7.50402 4.654 8.00002H2.5C2.224 8.00002 2 8.22402 2 8.50002V14H22V8.50002C22 8.22402 21.776 8.00002 21.5 8.00002H19.346C19.843 7.43102 20.199 6.73602 20.375 6.00002H22C23.104 6.00002 24 6.89602 24 8.00002V20C24 21.104 23.104 22 22 22ZM2 17V19.5C2 19.776 2.224 20 2.5 20H21.5C21.776 20 22 19.776 22 19.5V17H2ZM10.911 12H8C8.584 10.643 9.295 9.16803 10 8.00002C9.353 7.99902 8.428 8.00702 8 8.00002C5.899 7.96502 5.013 6.19403 5 5.00002C4.984 3.46602 6.205 1.99302 8 2.00002C9.499 2.00602 10.814 2.87203 12 4.31302C13.186 2.87203 14.501 2.00602 16 2.00002C17.796 1.99302 19.016 3.46602 19 5.00002C18.987 6.19403 18.101 7.96502 16 8.00002C15.572 8.00702 14.647 7.99902 14 8.00002C14.739 9.19802 15.491 10.772 16 12H13.089C12.848 10.762 12.389 9.34802 12 8.61602C11.612 9.34802 11.098 11.009 10.911 12ZM8.358 4.00202C7.227 4.00202 6.851 5.92002 8.478 6.00002C8.715 6.01202 10.713 6.00002 10.713 6.00002C9.676 4.56002 9.193 4.00202 8.358 4.00202ZM15.629 4.00202C16.76 4.00202 17.136 5.92002 15.509 6.00002C15.272 6.01202 13.287 6.00002 13.287 6.00002C14.324 4.56002 14.794 4.00202 15.629 4.00202Z" fill="#116858"/>
</svg>
