<svg width="28" height="28" viewBox="0 0 28 28" fill="none" xmlns="http://www.w3.org/2000/svg">
<path fill-rule="evenodd" clip-rule="evenodd" d="M17.787 19.8333C16.7055 24.1512 14.8155 26.8333 14 28C13.1845 26.8333 11.2933 24.1523 10.213 19.8333H17.787ZM26.7283 19.8333C24.9107 23.7895 21.3033 26.7552 16.9447 27.6885C18.4788 25.2758 19.5603 22.5995 20.1845 19.8333H26.7283ZM1.27167 19.8333H7.8155C8.44433 22.617 9.5305 25.291 11.0553 27.6885C6.69667 26.7552 3.08933 23.7895 1.27167 19.8333ZM18.2467 17.5H9.75333C9.415 15.1842 9.415 12.817 9.75333 10.5H18.2478C18.5838 12.817 18.5838 15.1842 18.2467 17.5ZM7.39783 17.5H0.442167C0.152833 16.3823 0 15.2087 0 14C0 12.7913 0.152833 11.6188 0.442167 10.5H7.39783C7.091 12.8193 7.091 15.1807 7.39783 17.5ZM27.5578 17.5H20.601C20.9102 15.1807 20.9102 12.8193 20.6022 10.5H27.5578C27.846 11.6188 28 12.7913 28 14C28 15.2087 27.846 16.3823 27.5578 17.5ZM17.787 8.16667H10.213C11.2922 3.84767 13.1833 1.16667 14 0C15.393 1.99267 16.8513 4.43217 17.787 8.16667ZM7.81433 8.1655H1.2705C3.08933 4.2105 6.69667 1.24483 11.0553 0.310333C9.61217 2.57367 8.47233 5.2535 7.81433 8.1655ZM26.7283 8.1655H20.1845C19.5347 5.29317 18.4193 2.62383 16.9435 0.310333C21.3022 1.24483 24.9107 4.2105 26.7283 8.1655Z" fill="#116858"/>
</svg>
