<svg width="14" height="24" viewBox="0 0 14 24" fill="none" xmlns="http://www.w3.org/2000/svg">
<path fill-rule="evenodd" clip-rule="evenodd" d="M10.131 5C10.131 5 11.823 7.025 12.399 7.711C13.612 9.172 13.972 10.021 14 11.872V22C13.985 23.094 13.141 23.961 12.075 23.999C8.707 24.042 5.339 24.042 1.971 23.999C0.898 23.961 0.007 23.082 0 22V11.866C0.009 9.826 0.587 8.945 1.948 7.358C2.539 6.669 3.889 5 3.889 5H10.131ZM12 20H2V22H12V20ZM8 13H6V15H4V17H6V19H8V17H10.023L10 15H8V13ZM9.245 7H4.788C4.154 7.787 3.564 8.522 3.299 8.857C2.273 10.157 2.006 10.664 2 12H12C11.987 10.654 11.816 10.243 10.863 8.992C10.595 8.639 9.934 7.835 9.245 7ZM11 4H3V1C3 0.448 3.448 0 4 0H10C10.552 0 11 0.448 11 1V4Z" fill="#116858"/>
</svg>
