<svg width="24" height="20" viewBox="0 0 24 20" fill="none" xmlns="http://www.w3.org/2000/svg">
<path d="M15.3538 3.99945H11.7998C9.0788 -0.496545 2.2338 -0.523545 0.506799 2.29346C-0.834201 4.47945 0.567799 7.35545 3.7468 7.35545C5.0538 7.35545 6.2668 6.76246 7.9998 7.02646V10.5935L17.0328 19.6355L23.9998 12.6695L15.3538 3.99945ZM3.7478 5.87045C1.7518 5.87045 1.0098 4.27045 1.7918 3.03545C2.8678 1.33445 7.5478 1.09545 9.9818 3.99945H7.9998V5.52845C6.0778 5.29545 4.7998 5.87045 3.7478 5.87045ZM12.9548 8.51546C12.1378 9.33246 10.7488 8.90945 10.5088 7.79545C11.6968 7.88845 12.4108 7.07246 12.3038 6.08746C13.3748 6.37246 13.7488 7.72146 12.9548 8.51546Z" fill="#116858"/>
</svg>
