<?xml version="1.0" encoding="UTF-8" standalone="no"?>
<svg
   viewBox="0 0 63.633128 59.685928"
   version="1.1"
   id="svg8"
   xmlns="http://www.w3.org/2000/svg"
   xmlns:svg="http://www.w3.org/2000/svg">
  <defs
     id="defs1">
    <clipPath
       id="clip1">
      <path
         d="m 11,20 h 63.398438 v 7 H 11 Z m 0,0"
         id="path1" />
    </clipPath>
  </defs>
  <g
     id="surface1"
     transform="translate(-10.765314,-0.05703588)">
    <path
       style="fill:#ffffff;fill-opacity:1;fill-rule:evenodd;stroke:none"
       d="M 40.695313,0.414063 C 53.46875,0.261719 74.117188,11.84375 69.667969,36.429688 68.5625,42.535156 63.238281,53.039063 51.464844,57.820313 43.695313,60.976563 31.394531,60.351563 23.140625,54.226563 0.09375,37.117188 11.117188,0.773438 40.695313,0.414063 Z m 0,0"
       id="path2" />
    <path
       style="fill:#f07a00;fill-opacity:1;fill-rule:evenodd;stroke:none"
       d="m 40.601563,0.0585938 c 12.84375,-0.1562501 33.296875,11.4375002 29.128906,36.2187502 -0.90625,-0.183594 -3.425781,0.136719 -4.464844,1.949219 -1.039062,1.8125 -0.484375,5.179687 1.46875,5.914062 -0.585937,2.304688 -7.339844,10.933594 -15.410156,13.789063 -8.074219,2.851562 -20.425781,2.851562 -28.375,-3.75 C 15,47.574219 14.363281,44.222656 14.078125,43.816406 c 0.429688,0.08203 4.019531,0.703125 7.097656,-0.4375 3.074219,-1.140625 4.636719,-4.695312 4.675782,-5.714843 0,-0.03125 0.0039,-0.06641 0.0078,-0.105469 0.08594,-1.1875 0.953125,-5.347656 -2.167969,-8.328125 -3.1875,-3.042969 -7.210937,-2.484375 -7.210937,-2.484375 0,0 -4.03125,0.03906 -5.703125,1.871094 C 12.378906,6.570313 31.015625,0.171875 40.601563,0.0585938 Z m 0,0"
       id="path3" />
    <path
       style="fill:#f07a00;fill-opacity:1;fill-rule:evenodd;stroke:none"
       d="m 17.042969,31.261719 c 1.648437,0.0078 2.320312,1.203125 2.332031,2.269531 0.01172,1.0625 0.09375,3.796875 -0.320312,4.714844 -0.417969,0.914062 -0.988282,1.15625 -2.15625,1.199219 -1.171875,0.03906 -2.433594,-0.703125 -2.433594,-2.410157 0,-1.832031 -0.734375,-5.773437 2.578125,-5.773437 z m 0,0"
       id="path4" />
    <path
       style="fill:#191717;fill-opacity:1;fill-rule:evenodd;stroke:none"
       d="m 27.089844,49.792969 h 6.054687 v -7.847656 c 0,0 1.472657,2.101562 4.621094,2.101562 3.148438,0 6.910156,-2.148437 6.929688,-6.90625 0.02344,-4.757812 0,-3.1875 0,-3.496094 0,-0.308593 -0.675782,-6.660156 -6.621094,-6.664062 -4.292969,-0.0078 -5.429688,2.484375 -5.429688,2.363281 l -0.01172,-1.878906 h -5.542969 z m 8.761719,-10.652344 c -1.304688,0 -2.625,-0.769531 -2.625,-3.710937 0,-2.949219 1.320312,-3.746094 2.625,-3.746094 1.308593,0 2.511718,0.730469 2.46875,3.75 -0.03906,3.015625 -1.160157,3.707031 -2.46875,3.707031 z m 0,0"
       id="path5" />
    <path
       style="fill:#191717;fill-opacity:1;fill-rule:evenodd;stroke:none"
       d="M 46.003906,49.792969 H 52.0625 v -7.847656 c 0,0 1.46875,2.101562 4.621094,2.101562 3.148437,0 6.910156,-2.148437 6.929687,-6.90625 0.01953,-4.757812 0,-3.1875 0,-3.496094 0,-0.308593 -0.675781,-6.660156 -6.625,-6.664062 -4.289062,-0.0078 -5.429687,2.484375 -5.429687,2.363281 l -0.0078,-1.878906 h -5.546875 z m 8.765625,-10.652344 c -1.308593,0 -2.628906,-0.769531 -2.628906,-3.710937 0,-2.949219 1.320313,-3.746094 2.628906,-3.746094 1.308594,0 2.507813,0.730469 2.46875,3.75 -0.03906,3.015625 -1.160156,3.707031 -2.46875,3.707031 z m 0,0"
       id="path6" />
    <path
       style="fill:#191717;fill-opacity:1;fill-rule:evenodd;stroke:none"
       d="m 29.96875,18.789063 c 0,-0.242188 0.03906,-0.453125 0.117188,-0.652344 0.07813,-0.195313 0.199218,-0.371094 0.359375,-0.523438 0.160156,-0.15625 0.347656,-0.273437 0.5625,-0.351562 0.214843,-0.07422 0.460937,-0.113281 0.734375,-0.113281 0.308593,0 0.582031,0.04687 0.816406,0.136718 0.234375,0.08594 0.429687,0.226563 0.589844,0.40625 0.128906,0.144532 0.226562,0.304688 0.289062,0.488282 0.0625,0.179687 0.09375,0.378906 0.09375,0.59375 0,0.242187 -0.03906,0.460937 -0.117187,0.65625 -0.07813,0.199218 -0.195313,0.367187 -0.355469,0.527343 -0.160156,0.152344 -0.347656,0.269532 -0.566406,0.347657 -0.21875,0.07813 -0.46875,0.113281 -0.746094,0.113281 -0.25,0 -0.476563,-0.03125 -0.679688,-0.09375 C 30.863281,20.257813 30.6875,20.160156 30.53125,20.035156 30.339844,19.878906 30.199219,19.695313 30.105469,19.488281 30.015625,19.28125 29.96875,19.042969 29.96875,18.789063 Z m 1.191406,0 c 0,0.140625 0.01172,0.257812 0.03906,0.363281 0.02734,0.105469 0.07031,0.1875 0.128906,0.253906 0.05469,0.06641 0.117188,0.117188 0.191406,0.148438 0.06641,0.03516 0.144532,0.05078 0.234375,0.05078 0.08203,0 0.160157,-0.01563 0.230469,-0.04687 0.07031,-0.03516 0.132813,-0.08203 0.1875,-0.144531 0.05859,-0.06641 0.09766,-0.152344 0.125,-0.257813 0.02734,-0.113281 0.04297,-0.238281 0.04297,-0.378906 0,-0.132813 -0.01563,-0.253906 -0.04297,-0.359375 -0.02734,-0.09766 -0.07031,-0.183594 -0.125,-0.253906 -0.113281,-0.128907 -0.25,-0.195313 -0.414062,-0.195313 -0.08594,0 -0.164063,0.01953 -0.238282,0.05469 -0.07031,0.03516 -0.136718,0.08594 -0.191406,0.148437 -0.05859,0.07031 -0.101562,0.152344 -0.128906,0.257813 -0.02734,0.101562 -0.03906,0.222656 -0.03906,0.359375 z m 2.957032,-1.574219 h 1.117187 v 0.511719 c 0.05078,-0.105469 0.109375,-0.199219 0.164063,-0.277344 0.05469,-0.07813 0.113281,-0.136719 0.171875,-0.179688 0.05469,-0.03906 0.117187,-0.07031 0.1875,-0.08984 0.07031,-0.02344 0.144531,-0.03125 0.230468,-0.03125 0.171875,0 0.363282,0.05469 0.574219,0.164062 l -0.363281,0.851563 c -0.07422,-0.02734 -0.136719,-0.04687 -0.191406,-0.0625 -0.05469,-0.01563 -0.105469,-0.02344 -0.144532,-0.02344 -0.07813,0 -0.148437,0.01563 -0.207031,0.05078 -0.0625,0.03125 -0.113281,0.07813 -0.152344,0.140625 -0.0625,0.09375 -0.109375,0.222657 -0.140625,0.394532 -0.03125,0.171875 -0.04687,0.378906 -0.04687,0.628906 v 1.054687 h -1.199218 z m 4.8125,0 h 1.113281 v 2.957031 l 0.0078,0.140625 c 0,0.199219 -0.04297,0.386719 -0.128906,0.558594 -0.03906,0.09375 -0.08984,0.171875 -0.144531,0.25 -0.05078,0.07031 -0.113281,0.132812 -0.183594,0.1875 -0.06641,0.05469 -0.148437,0.101562 -0.238281,0.140625 -0.08594,0.03906 -0.183594,0.07031 -0.289063,0.09375 -0.105468,0.02734 -0.21875,0.04687 -0.339843,0.05859 -0.121094,0.01563 -0.25,0.01953 -0.382813,0.01953 -0.3125,0 -0.578125,-0.02344 -0.792969,-0.07422 -0.214843,-0.04297 -0.378906,-0.113281 -0.496093,-0.207031 -0.117188,-0.09766 -0.203125,-0.207031 -0.261719,-0.332031 -0.05859,-0.128907 -0.08594,-0.269532 -0.08594,-0.429688 0,-0.01563 0,-0.03906 0,-0.06641 0,-0.02734 0.0039,-0.05859 0.0039,-0.09375 l 1.15625,0.136719 c 0.01563,0.05469 0.03516,0.09766 0.05469,0.136718 0.02344,0.03516 0.04687,0.06641 0.07813,0.08594 0.04687,0.03125 0.09375,0.05469 0.148438,0.06641 0.05469,0.01563 0.117187,0.02344 0.179687,0.02344 0.08984,0 0.164063,-0.01172 0.226563,-0.03516 0.06641,-0.02344 0.121093,-0.05859 0.164062,-0.101562 0.04297,-0.04687 0.07422,-0.109375 0.09375,-0.191406 0.02344,-0.08203 0.03125,-0.175782 0.03125,-0.292969 v -0.476563 c -0.05859,0.07031 -0.117187,0.128907 -0.175781,0.179688 -0.05859,0.05469 -0.117188,0.08984 -0.175781,0.128906 -0.179688,0.09375 -0.378907,0.144531 -0.59375,0.144531 -0.207032,0 -0.394532,-0.05078 -0.5625,-0.136718 -0.167969,-0.08984 -0.316407,-0.230469 -0.445313,-0.417969 -0.08984,-0.128906 -0.15625,-0.277344 -0.199219,-0.449219 -0.04687,-0.175781 -0.07031,-0.363281 -0.07031,-0.574219 0,-0.242187 0.03125,-0.457031 0.08594,-0.648437 0.05859,-0.183594 0.144532,-0.339844 0.261719,-0.46875 0.117188,-0.125 0.253906,-0.222656 0.40625,-0.285156 0.152344,-0.0625 0.324219,-0.09375 0.515625,-0.09375 0.121094,0 0.230469,0.0078 0.332031,0.02344 0.09766,0.02344 0.183594,0.05469 0.261719,0.09766 0.08203,0.04297 0.160156,0.09766 0.230469,0.164063 0.07422,0.0625 0.144531,0.148437 0.214844,0.246094 z m -1.121094,1.523437 c 0,0.109375 0.01172,0.207032 0.03516,0.292969 0.02344,0.08203 0.0625,0.152344 0.109375,0.207031 0.09375,0.109375 0.222656,0.164063 0.375,0.164063 0.07813,0 0.144531,-0.01563 0.207031,-0.04297 0.05859,-0.02734 0.117188,-0.07031 0.167969,-0.128906 0.05078,-0.05859 0.08594,-0.128906 0.109375,-0.210938 0.02734,-0.08594 0.03906,-0.1875 0.03906,-0.300781 0,-0.113281 -0.01172,-0.210937 -0.03906,-0.300781 -0.02734,-0.08594 -0.06641,-0.160156 -0.117187,-0.21875 -0.05469,-0.0625 -0.113282,-0.105469 -0.175782,-0.136719 -0.06641,-0.03125 -0.136718,-0.04297 -0.214843,-0.04297 -0.148438,0 -0.269532,0.05078 -0.359375,0.160157 -0.04297,0.05859 -0.07813,0.132812 -0.101563,0.226562 -0.02344,0.08984 -0.03516,0.199219 -0.03516,0.332031 z m 4.039062,-0.507812 -1.140625,-0.121094 c 0.02344,-0.101562 0.05078,-0.195312 0.08203,-0.269531 0.03125,-0.07813 0.06641,-0.144531 0.105468,-0.203125 0.04297,-0.05859 0.08984,-0.109375 0.148438,-0.160156 0.05859,-0.05469 0.125,-0.09766 0.203125,-0.140625 0.05469,-0.03125 0.121094,-0.05859 0.195312,-0.08203 0.07422,-0.02344 0.160157,-0.04297 0.253907,-0.05859 0.09766,-0.01563 0.195312,-0.03125 0.300781,-0.03906 0.101562,-0.0039 0.207031,-0.0078 0.316406,-0.0078 0.179688,0 0.34375,0.0039 0.488281,0.01172 0.140625,0.0078 0.269532,0.02734 0.375,0.04687 0.109375,0.01953 0.207032,0.05078 0.296875,0.08594 0.08984,0.04687 0.171875,0.09766 0.242188,0.164062 0.05078,0.03906 0.09766,0.09766 0.136719,0.160157 0.04297,0.06641 0.07813,0.136718 0.105468,0.21875 0.02734,0.07813 0.05078,0.160156 0.06641,0.238281 0.01563,0.07813 0.02344,0.152344 0.02344,0.222656 v 1.386719 c 0,0.07422 0,0.136719 0.0078,0.195312 0.0039,0.05859 0.01172,0.109375 0.01953,0.148438 0.01172,0.04297 0.02344,0.08984 0.04297,0.140625 0.01953,0.05469 0.04297,0.113281 0.07813,0.179687 h -1.121094 c -0.01953,-0.03906 -0.03906,-0.07422 -0.05078,-0.105468 -0.01563,-0.03125 -0.02734,-0.05859 -0.03125,-0.08203 -0.01172,-0.01953 -0.01953,-0.04687 -0.02344,-0.07813 -0.0078,-0.03906 -0.01563,-0.07422 -0.01953,-0.121093 -0.07813,0.07813 -0.15625,0.144531 -0.234375,0.199218 -0.07813,0.05469 -0.15625,0.09375 -0.234375,0.128907 -0.105469,0.04687 -0.21875,0.07813 -0.339844,0.101562 -0.121094,0.01953 -0.253906,0.02734 -0.390625,0.02734 -0.183594,0 -0.347656,-0.01953 -0.488281,-0.0625 C 41.121094,20.3125 41,20.246094 40.90625,20.160156 c -0.09766,-0.08594 -0.167969,-0.183593 -0.214844,-0.289062 -0.05078,-0.105469 -0.07422,-0.222656 -0.07422,-0.347656 0,-0.121094 0.01953,-0.234375 0.05078,-0.328125 0.03516,-0.09766 0.08594,-0.183594 0.15625,-0.257813 0.07031,-0.08203 0.167969,-0.148437 0.296875,-0.207031 0.125,-0.05859 0.28125,-0.101563 0.46875,-0.140625 0.222656,-0.04687 0.410156,-0.08203 0.550781,-0.117188 0.144531,-0.03125 0.25,-0.05859 0.316406,-0.07422 0.06641,-0.01953 0.136719,-0.03906 0.207032,-0.0625 0.07031,-0.02344 0.144531,-0.05078 0.21875,-0.07813 0,-0.07422 -0.0078,-0.136719 -0.02344,-0.191407 -0.01172,-0.05078 -0.03516,-0.08984 -0.06641,-0.121093 -0.03125,-0.03125 -0.07422,-0.04687 -0.128906,-0.0625 -0.05078,-0.01563 -0.117188,-0.02344 -0.195313,-0.02344 -0.09375,0 -0.179687,0.0078 -0.253906,0.02344 -0.07422,0.01563 -0.132813,0.03516 -0.183594,0.07031 -0.03906,0.02344 -0.07422,0.0625 -0.101562,0.109375 -0.03125,0.04297 -0.05859,0.101563 -0.08203,0.167969 z m 1.035157,0.632812 c -0.08203,0.03125 -0.167969,0.05469 -0.253907,0.08203 -0.08594,0.02734 -0.171875,0.05078 -0.261718,0.07422 -0.121094,0.02734 -0.21875,0.0625 -0.292969,0.09375 -0.07813,0.03125 -0.132813,0.05859 -0.160156,0.09375 -0.03906,0.03516 -0.0625,0.07031 -0.07813,0.105469 -0.01563,0.03906 -0.02734,0.07813 -0.02734,0.117188 0,0.05078 0.01172,0.09375 0.02344,0.128906 0.01563,0.03906 0.04297,0.07031 0.07422,0.101562 0.06641,0.0625 0.160156,0.08594 0.289063,0.08594 0.06641,0 0.132812,-0.0039 0.195312,-0.01953 0.05859,-0.01563 0.117188,-0.03906 0.175781,-0.07031 0.05469,-0.03516 0.105469,-0.07031 0.148438,-0.113281 0.03906,-0.03516 0.07031,-0.07813 0.09766,-0.128906 0.04687,-0.08984 0.07031,-0.210938 0.07031,-0.359375 z m 1.875,-1.648437 h 1.109375 v 0.511719 c 0.08203,-0.105469 0.167968,-0.195313 0.25,-0.269532 0.08594,-0.07031 0.167968,-0.132812 0.25,-0.175781 0.08984,-0.04687 0.183593,-0.07813 0.285156,-0.101562 0.105469,-0.01953 0.21875,-0.03125 0.339844,-0.03125 0.164062,0 0.3125,0.01953 0.441406,0.07422 0.128906,0.04687 0.238281,0.121094 0.332031,0.222657 0.09375,0.09375 0.160156,0.21875 0.207031,0.375 0.04687,0.152343 0.06641,0.332031 0.06641,0.535156 v 1.992187 h -1.191407 v -1.71875 c 0,-0.199218 -0.03516,-0.339843 -0.105468,-0.417968 -0.07422,-0.08984 -0.175782,-0.125 -0.308594,-0.125 -0.07031,0 -0.136719,0.01172 -0.195313,0.04297 -0.05859,0.02734 -0.113281,0.07031 -0.15625,0.125 -0.04687,0.05469 -0.07813,0.128907 -0.101562,0.230469 -0.01953,0.09766 -0.03125,0.21875 -0.03125,0.359375 v 1.503906 h -1.191406 z m 4.039062,-1.191406 h 1.191406 v 0.816406 h -1.191406 z m 0,1.191406 h 1.191406 v 3.132812 h -1.191406 z m 1.820313,0 h 2.878906 v 0.703125 l -1.566406,1.609375 h 1.664062 v 0.820312 h -3.097656 v -0.777343 l 1.484375,-1.535157 h -1.363281 z m 4.546875,1.015625 -1.140625,-0.121094 c 0.02734,-0.101562 0.05078,-0.195312 0.08203,-0.269531 0.03125,-0.07813 0.06641,-0.144531 0.105469,-0.203125 0.04297,-0.05859 0.08984,-0.109375 0.148437,-0.160156 0.05859,-0.05469 0.125,-0.09766 0.203125,-0.140625 0.05469,-0.03125 0.121094,-0.05859 0.195313,-0.08203 0.07422,-0.02344 0.160156,-0.04297 0.253906,-0.05859 0.09766,-0.01563 0.195312,-0.03125 0.300781,-0.03906 0.101563,-0.0039 0.207031,-0.0078 0.316406,-0.0078 0.179688,0 0.34375,0.0039 0.488282,0.01172 0.140625,0.0078 0.269531,0.02734 0.375,0.04687 0.109375,0.01953 0.207031,0.05078 0.296875,0.08594 0.08984,0.04687 0.171875,0.09766 0.242187,0.164062 0.05078,0.03906 0.09766,0.09766 0.136719,0.160157 0.04297,0.06641 0.07813,0.136718 0.105469,0.21875 0.02734,0.07813 0.05078,0.160156 0.06641,0.238281 0.01563,0.07813 0.02344,0.152344 0.02344,0.222656 v 1.386719 c 0,0.07422 0,0.136719 0.0078,0.195312 0.0039,0.05859 0.01172,0.109375 0.01953,0.148438 0.01172,0.04297 0.02344,0.08984 0.04297,0.140625 0.01953,0.05469 0.04297,0.113281 0.07813,0.179687 h -1.121094 c -0.01953,-0.03906 -0.03906,-0.07422 -0.05078,-0.105468 -0.01563,-0.03125 -0.02734,-0.05859 -0.03125,-0.08203 -0.01172,-0.01953 -0.01953,-0.04687 -0.02344,-0.07813 -0.0078,-0.03906 -0.01563,-0.07422 -0.01953,-0.121093 -0.07813,0.07813 -0.15625,0.144531 -0.234375,0.199218 -0.07813,0.05469 -0.15625,0.09375 -0.234375,0.128907 -0.105469,0.04687 -0.21875,0.07813 -0.339844,0.101562 -0.121093,0.01953 -0.253906,0.02734 -0.390625,0.02734 -0.183593,0 -0.347656,-0.01953 -0.488281,-0.0625 -0.140625,-0.04297 -0.257812,-0.109375 -0.355469,-0.195313 -0.09766,-0.08594 -0.167968,-0.183593 -0.214843,-0.289062 -0.05078,-0.105469 -0.07422,-0.222656 -0.07422,-0.347656 0,-0.121094 0.01953,-0.234375 0.05078,-0.328125 0.03516,-0.09766 0.08594,-0.183594 0.15625,-0.257813 0.07031,-0.08203 0.167969,-0.148437 0.296875,-0.207031 0.125,-0.05859 0.28125,-0.101563 0.46875,-0.140625 0.222656,-0.04687 0.410156,-0.08203 0.550781,-0.117188 0.144532,-0.03125 0.25,-0.05859 0.316407,-0.07422 0.06641,-0.01953 0.136718,-0.03906 0.207031,-0.0625 0.07031,-0.02344 0.144531,-0.05078 0.21875,-0.07813 0,-0.07422 -0.0078,-0.136719 -0.02344,-0.191407 -0.01172,-0.05078 -0.03516,-0.08984 -0.06641,-0.121093 -0.03125,-0.03125 -0.07422,-0.04687 -0.128906,-0.0625 -0.05078,-0.01563 -0.117188,-0.02344 -0.195313,-0.02344 -0.09375,0 -0.179687,0.0078 -0.253906,0.02344 -0.07422,0.01563 -0.132812,0.03516 -0.183594,0.07031 -0.03906,0.02344 -0.07422,0.0625 -0.101562,0.109375 -0.03125,0.04297 -0.05859,0.101563 -0.08203,0.167969 z m 1.035156,0.632812 c -0.08203,0.03125 -0.167969,0.05469 -0.253906,0.08203 -0.08594,0.02734 -0.171875,0.05078 -0.261719,0.07422 -0.117188,0.02734 -0.21875,0.0625 -0.292969,0.09375 -0.07813,0.03125 -0.132812,0.05859 -0.160156,0.09375 -0.03906,0.03516 -0.0625,0.07031 -0.07813,0.105469 -0.01563,0.03906 -0.02344,0.07813 -0.02344,0.117188 0,0.05078 0.0078,0.09375 0.01953,0.128906 0.01953,0.03906 0.04297,0.07031 0.07422,0.101562 0.06641,0.0625 0.164063,0.08594 0.289063,0.08594 0.06641,0 0.132812,-0.0039 0.195312,-0.01953 0.05859,-0.01563 0.117188,-0.03906 0.175782,-0.07031 0.05469,-0.03516 0.105468,-0.07031 0.148437,-0.113281 0.03906,-0.03516 0.07422,-0.07813 0.09766,-0.128906 0.04687,-0.08984 0.07031,-0.210938 0.07031,-0.359375 z m 4.195312,0.257813 1.128907,0.136719 c -0.0625,0.234375 -0.167969,0.4375 -0.304688,0.613281 -0.07031,0.08984 -0.152344,0.164062 -0.246094,0.230469 -0.08984,0.06641 -0.191406,0.125 -0.304687,0.175781 -0.109375,0.04687 -0.230469,0.08594 -0.371094,0.109375 -0.140625,0.02344 -0.296875,0.03125 -0.46875,0.03125 -0.328125,0 -0.601562,-0.02734 -0.824219,-0.08594 -0.109375,-0.03906 -0.210937,-0.07422 -0.304687,-0.125 -0.09375,-0.05078 -0.179688,-0.109375 -0.257813,-0.179687 -0.08203,-0.06641 -0.152343,-0.144531 -0.214843,-0.230469 -0.05859,-0.07422 -0.113282,-0.164062 -0.15625,-0.257812 -0.04687,-0.09375 -0.08203,-0.203125 -0.105469,-0.324219 -0.02344,-0.125 -0.03516,-0.265625 -0.03516,-0.421875 0,-0.15625 0.01563,-0.304688 0.04297,-0.4375 0.02734,-0.136719 0.07031,-0.257813 0.125,-0.363281 0.03906,-0.07813 0.08594,-0.152344 0.140625,-0.222657 0.05469,-0.07031 0.113282,-0.136718 0.183594,-0.199218 0.07031,-0.0625 0.140625,-0.117188 0.210938,-0.164063 0.07422,-0.04297 0.144531,-0.08203 0.21875,-0.117187 0.117187,-0.04297 0.246093,-0.08203 0.394531,-0.105469 0.148437,-0.02344 0.3125,-0.03516 0.492187,-0.03516 0.257813,0 0.480469,0.01953 0.675782,0.06641 0.195312,0.04687 0.355468,0.113281 0.488281,0.199219 0.132812,0.09766 0.246094,0.207031 0.339844,0.34375 0.09375,0.136718 0.167968,0.285156 0.222656,0.464843 l -1.121094,0.148438 c -0.01563,-0.0625 -0.04297,-0.125 -0.07422,-0.171875 -0.03125,-0.05078 -0.07031,-0.09375 -0.117187,-0.128906 -0.04687,-0.03516 -0.101563,-0.0625 -0.164063,-0.07813 -0.0625,-0.01563 -0.132812,-0.02344 -0.210937,-0.02344 -0.101563,0 -0.1875,0.01953 -0.269531,0.05469 -0.07813,0.03516 -0.148438,0.08594 -0.210938,0.15625 -0.05859,0.07422 -0.105469,0.164062 -0.136719,0.273437 -0.02734,0.105469 -0.04297,0.230469 -0.04297,0.375 0,0.128906 0.01563,0.242188 0.04297,0.335938 0.03125,0.101562 0.07813,0.1875 0.136719,0.25 0.05859,0.07031 0.128906,0.121093 0.207031,0.152343 0.07813,0.03516 0.160157,0.05078 0.253907,0.05078 0.07813,0 0.148437,-0.0078 0.214843,-0.03125 0.06641,-0.01953 0.125,-0.05078 0.179688,-0.08984 0.05469,-0.03906 0.101562,-0.09375 0.140625,-0.15625 0.03906,-0.05859 0.07422,-0.132813 0.101562,-0.21875 z m 1.722657,-3.097656 h 1.191406 v 0.828125 h -1.191406 z m 0,1.191406 h 1.191406 v 3.039062 c 0,0.195313 -0.0039,0.359375 -0.01563,0.5 -0.01563,0.136719 -0.03516,0.242188 -0.06641,0.324219 -0.02734,0.08203 -0.06641,0.152344 -0.117188,0.214844 -0.05078,0.07031 -0.113281,0.125 -0.1875,0.179687 -0.07422,0.04687 -0.167969,0.08594 -0.273437,0.113282 -0.109375,0.02344 -0.234375,0.03516 -0.375,0.03516 -0.113282,0 -0.242188,-0.0078 -0.386719,-0.02344 -0.140625,-0.01953 -0.300781,-0.05078 -0.46875,-0.08203 l 0.179687,-0.871094 c 0.04687,0.0078 0.08984,0.01563 0.125,0.01953 0.03516,0.0039 0.0625,0.0078 0.08203,0.0078 0.105468,0 0.179687,-0.03125 0.234375,-0.105469 0.02734,-0.03125 0.04687,-0.08594 0.05859,-0.152343 0.01563,-0.07031 0.01953,-0.160157 0.01953,-0.265625 z m 3.03125,1.015625 -1.136719,-0.121094 c 0.02344,-0.101562 0.05078,-0.195312 0.08203,-0.269531 0.02734,-0.07813 0.0625,-0.144531 0.101563,-0.203125 0.04297,-0.05859 0.09375,-0.109375 0.152343,-0.160156 0.05859,-0.05469 0.125,-0.09766 0.203125,-0.140625 0.05469,-0.03125 0.117188,-0.05859 0.191407,-0.08203 0.07813,-0.02344 0.160156,-0.04297 0.257812,-0.05859 0.09375,-0.01563 0.195313,-0.03125 0.296875,-0.03906 0.101563,-0.0039 0.207031,-0.0078 0.320313,-0.0078 0.179687,0 0.339843,0.0039 0.484375,0.01172 0.144531,0.0078 0.269531,0.02734 0.378906,0.04687 0.105469,0.01953 0.207031,0.05078 0.296875,0.08594 0.08984,0.04687 0.167969,0.09766 0.242187,0.164062 0.05078,0.03906 0.09766,0.09766 0.136719,0.160157 0.03906,0.06641 0.07422,0.136718 0.101563,0.21875 0.03125,0.07813 0.05469,0.160156 0.06641,0.238281 0.01563,0.07813 0.02344,0.152344 0.02344,0.222656 v 1.386719 c 0,0.07422 0.0039,0.136719 0.0078,0.195312 0.0078,0.05859 0.01172,0.109375 0.02344,0.148438 0.0078,0.04297 0.01953,0.08984 0.03906,0.140625 0.01953,0.05469 0.04687,0.113281 0.07813,0.179687 H 66.375 c -0.01953,-0.03906 -0.03516,-0.07422 -0.05078,-0.105468 -0.01563,-0.03125 -0.02344,-0.05859 -0.03125,-0.08203 -0.0078,-0.01953 -0.01563,-0.04687 -0.02344,-0.07813 -0.0039,-0.03906 -0.01172,-0.07422 -0.01953,-0.121093 -0.07813,0.07813 -0.152344,0.144531 -0.230469,0.199218 -0.07813,0.05469 -0.15625,0.09375 -0.234375,0.128907 -0.105468,0.04687 -0.21875,0.07813 -0.339843,0.101562 -0.125,0.01953 -0.253907,0.02734 -0.390625,0.02734 -0.1875,0 -0.351563,-0.01953 -0.492188,-0.0625 -0.140625,-0.04297 -0.257812,-0.109375 -0.355469,-0.195313 -0.09375,-0.08594 -0.167968,-0.183593 -0.214843,-0.289062 -0.04687,-0.105469 -0.07031,-0.222656 -0.07031,-0.347656 0,-0.121094 0.01563,-0.234375 0.05078,-0.328125 0.03125,-0.09766 0.08203,-0.183594 0.152344,-0.257813 0.07031,-0.08203 0.171875,-0.148437 0.296875,-0.207031 0.128906,-0.05859 0.285156,-0.101563 0.46875,-0.140625 0.226563,-0.04687 0.410156,-0.08203 0.554688,-0.117188 0.144531,-0.03125 0.25,-0.05859 0.316406,-0.07422 0.0625,-0.01953 0.132812,-0.03906 0.203125,-0.0625 0.07422,-0.02344 0.144531,-0.05078 0.21875,-0.07813 0,-0.07422 -0.0039,-0.136719 -0.01953,-0.191407 -0.01563,-0.05078 -0.03906,-0.08984 -0.06641,-0.121093 -0.03516,-0.03125 -0.07813,-0.04687 -0.128906,-0.0625 -0.05469,-0.01563 -0.117187,-0.02344 -0.195312,-0.02344 -0.09766,0 -0.183594,0.0078 -0.257813,0.02344 -0.07031,0.01563 -0.132812,0.03516 -0.179687,0.07031 -0.03906,0.02344 -0.07422,0.0625 -0.105469,0.109375 -0.03125,0.04297 -0.05859,0.101563 -0.08203,0.167969 z m 1.039062,0.632812 c -0.08594,0.03125 -0.167969,0.05469 -0.253906,0.08203 -0.08594,0.02734 -0.171875,0.05078 -0.261719,0.07422 -0.121094,0.02734 -0.21875,0.0625 -0.296875,0.09375 -0.07422,0.03125 -0.128906,0.05859 -0.160156,0.09375 -0.03516,0.03516 -0.0625,0.07031 -0.07813,0.105469 -0.01563,0.03906 -0.02344,0.07813 -0.02344,0.117188 0,0.05078 0.0078,0.09375 0.02344,0.128906 0.01563,0.03906 0.03906,0.07031 0.07422,0.101562 0.0625,0.0625 0.160156,0.08594 0.285156,0.08594 0.07031,0 0.132812,-0.0039 0.195312,-0.01953 0.0625,-0.01563 0.121094,-0.03906 0.175782,-0.07031 0.05859,-0.03516 0.105468,-0.07031 0.148437,-0.113281 0.04297,-0.03516 0.07422,-0.07813 0.09766,-0.128906 0.04687,-0.08984 0.07422,-0.210938 0.07422,-0.359375 z m 0,0"
       id="path7" />
    <g
       clip-path="url(#clip1)"
       clip-rule="nonzero"
       id="g8">
      <path
         style="fill:#ffffff;fill-opacity:1;fill-rule:evenodd;stroke:none"
         d="m 11.992188,25.984375 v -4.324219 h 1.082031 v 0.460938 c 0.07813,-0.08984 0.148437,-0.171875 0.214844,-0.238281 0.07031,-0.06641 0.136718,-0.117188 0.199218,-0.148438 0.08203,-0.05078 0.171875,-0.08594 0.265625,-0.105469 0.09375,-0.02344 0.191407,-0.03516 0.292969,-0.03516 0.199219,0 0.378906,0.03906 0.535156,0.121094 0.15625,0.07422 0.289063,0.195312 0.402344,0.355469 0.109375,0.160156 0.191406,0.339843 0.246094,0.539062 0.05859,0.199219 0.08594,0.417969 0.08594,0.652344 0,0.261719 -0.03125,0.484375 -0.09375,0.6875 -0.05859,0.199219 -0.148437,0.371094 -0.269531,0.507812 -0.117187,0.136719 -0.253906,0.238282 -0.40625,0.308594 -0.15625,0.07031 -0.324219,0.101563 -0.507812,0.101563 -0.08594,0 -0.171875,-0.0078 -0.25,-0.02344 -0.08203,-0.01563 -0.160157,-0.03906 -0.238282,-0.07031 -0.07031,-0.03125 -0.140625,-0.07031 -0.203125,-0.117188 -0.06641,-0.04687 -0.128906,-0.101562 -0.183593,-0.160156 v 1.488281 z m 1.160156,-2.746094 c 0,0.125 0.01172,0.230469 0.03516,0.324219 0.02734,0.09375 0.06641,0.167969 0.113281,0.226563 0.101563,0.121093 0.226563,0.179687 0.382813,0.179687 0.07031,0 0.128906,-0.01563 0.1875,-0.04687 0.05469,-0.02344 0.105469,-0.06641 0.152344,-0.125 0.04297,-0.05469 0.07813,-0.132812 0.09766,-0.230469 0.02344,-0.09766 0.03516,-0.214843 0.03516,-0.351562 0,-0.253906 -0.04687,-0.441406 -0.140625,-0.5625 -0.04297,-0.0625 -0.09766,-0.109375 -0.15625,-0.132813 -0.05859,-0.02734 -0.121094,-0.04297 -0.191406,-0.04297 -0.07422,0 -0.140625,0.01563 -0.199219,0.04297 -0.0625,0.02734 -0.117187,0.07422 -0.167969,0.132813 -0.04687,0.05859 -0.08594,0.136719 -0.113281,0.238281 -0.02344,0.09766 -0.03516,0.214844 -0.03516,0.347656 z m 2.574219,0 c 0,-0.242187 0.03906,-0.457031 0.117187,-0.652343 0.07422,-0.195313 0.191406,-0.371094 0.347656,-0.527344 0.15625,-0.15625 0.339844,-0.273438 0.546875,-0.347656 0.210938,-0.07813 0.445313,-0.117188 0.710938,-0.117188 0.300781,0 0.566406,0.04687 0.796875,0.136719 0.226562,0.08984 0.417969,0.226562 0.570312,0.40625 0.125,0.148437 0.21875,0.308594 0.28125,0.484375 0.0625,0.1875 0.08984,0.382812 0.08984,0.597656 0,0.242188 -0.03516,0.460938 -0.113281,0.660156 -0.07422,0.195313 -0.191406,0.367188 -0.34375,0.523438 -0.15625,0.15625 -0.339844,0.265625 -0.550781,0.351562 -0.210938,0.07422 -0.453125,0.113282 -0.722657,0.113282 -0.246093,0 -0.464843,-0.03125 -0.664062,-0.09766 -0.195313,-0.0625 -0.367188,-0.160156 -0.519531,-0.289062 -0.183594,-0.15625 -0.320313,-0.335938 -0.410157,-0.546875 -0.08984,-0.207031 -0.136718,-0.4375 -0.136718,-0.695313 z m 1.160156,0 c 0,0.132813 0.01172,0.257813 0.03906,0.363282 0.02734,0.101562 0.06641,0.1875 0.121094,0.253906 0.05469,0.0625 0.117188,0.113281 0.1875,0.148437 0.06641,0.03125 0.140625,0.05078 0.226563,0.05078 0.08203,0 0.15625,-0.01953 0.226562,-0.05078 0.06641,-0.03125 0.128906,-0.08594 0.179688,-0.144531 0.05469,-0.07031 0.09766,-0.152344 0.125,-0.257812 0.02734,-0.105469 0.03906,-0.230469 0.03906,-0.375 0,-0.136719 -0.01563,-0.253907 -0.04297,-0.359375 -0.02734,-0.101563 -0.06641,-0.183594 -0.121093,-0.25 -0.109375,-0.132813 -0.242188,-0.203125 -0.398438,-0.203125 -0.08594,0 -0.164062,0.01953 -0.234375,0.05469 -0.06641,0.03516 -0.132812,0.08594 -0.1875,0.152344 -0.05469,0.06641 -0.09375,0.152344 -0.121094,0.25 -0.02734,0.105469 -0.03906,0.226562 -0.03906,0.367187 z m 2.734375,-1.578125 h 2.796875 v 0.707032 l -1.523438,1.609375 h 1.617188 v 0.816406 h -3.007813 v -0.777344 l 1.441407,-1.53125 h -1.324219 z m 0.957031,-1.277343 h 0.898438 v 0.886718 h -0.898438 z m 2.074219,1.277343 h 1.214844 l 0.621093,2.085938 0.582032,-2.085938 h 1.136718 l -1.195312,3.351563 c -0.07031,0.191406 -0.136719,0.351562 -0.207031,0.480469 -0.07031,0.128906 -0.140625,0.226562 -0.210938,0.292968 -0.101562,0.09375 -0.230469,0.164063 -0.382812,0.210938 -0.152344,0.04687 -0.328125,0.07422 -0.535157,0.07422 -0.08203,0 -0.1875,-0.0039 -0.320312,-0.02344 -0.128906,-0.0078 -0.28125,-0.02344 -0.453125,-0.05078 L 22.8125,25.160156 c 0.08203,0.02734 0.167969,0.04687 0.261719,0.0625 0.09375,0.01172 0.191406,0.01953 0.296875,0.01953 0.06641,0 0.128906,-0.0078 0.183594,-0.02344 0.05469,-0.01953 0.101562,-0.04687 0.144531,-0.07031 0.04297,-0.03516 0.08203,-0.08203 0.117187,-0.140625 0.03516,-0.05469 0.06641,-0.128907 0.09766,-0.214844 z m 5.28125,-1.1875 v 1.1875 h 0.632812 v 0.878907 h -0.632812 v 1.109375 c 0,0.07031 0.0039,0.125 0.0078,0.167968 0.0078,0.04297 0.01563,0.07813 0.02734,0.09766 0.01953,0.03516 0.04687,0.05859 0.07813,0.07813 0.03125,0.01563 0.07422,0.02344 0.121094,0.02344 0.04297,0 0.09375,-0.0039 0.152344,-0.01953 0.0625,-0.01172 0.128906,-0.03125 0.207031,-0.05859 l 0.08594,0.835938 c -0.144531,0.02344 -0.285156,0.05469 -0.417968,0.07031 -0.132813,0.01563 -0.257813,0.02344 -0.382813,0.02344 -0.148437,0 -0.273437,-0.0078 -0.378906,-0.02734 -0.105469,-0.02344 -0.191406,-0.05078 -0.257813,-0.08594 -0.07031,-0.03906 -0.128906,-0.08984 -0.179687,-0.144531 -0.05078,-0.0625 -0.08984,-0.128906 -0.121094,-0.207031 -0.03516,-0.07813 -0.0625,-0.179688 -0.07813,-0.308594 -0.01172,-0.125 -0.01953,-0.277344 -0.01953,-0.453125 v -1.10158 H 26.34375 v -0.878907 h 0.433594 v -0.574218 z m 1.1875,0 h 1.179687 v 2.226563 l 0.867188,-1.039063 h 1.417969 l -1.082032,1.101563 1.148438,2.03125 h -1.304688 l -0.609375,-1.253906 -0.4375,0.441406 v 0.8125 h -1.179687 z m 7.0625,4.320313 h -1.082031 v -0.503906 c -0.08203,0.101562 -0.164063,0.191406 -0.246094,0.265625 -0.08203,0.07422 -0.164063,0.136718 -0.242188,0.179687 -0.08203,0.04297 -0.175781,0.07813 -0.277343,0.09766 -0.09766,0.02344 -0.210938,0.03516 -0.328125,0.03516 -0.15625,0 -0.296875,-0.02344 -0.425782,-0.07813 -0.121093,-0.04687 -0.230468,-0.125 -0.320312,-0.214844 -0.08984,-0.101563 -0.15625,-0.226563 -0.203125,-0.382813 -0.04687,-0.152343 -0.07031,-0.332031 -0.07031,-0.535156 v -1.996094 h 1.164063 v 1.730469 c 0,0.191406 0.03516,0.332031 0.105469,0.414063 0.03516,0.04297 0.07813,0.07422 0.125,0.09375 0.05078,0.01563 0.105468,0.02344 0.171875,0.02344 0.07031,0 0.132812,-0.0078 0.1875,-0.03516 0.05469,-0.02734 0.105468,-0.07031 0.148437,-0.125 0.04297,-0.05078 0.07813,-0.128906 0.101563,-0.230469 0.01953,-0.09766 0.03125,-0.21875 0.03125,-0.363281 v -1.507813 h 1.160156 z m 0.703125,1.191406 v -4.324219 h 1.082031 v 0.460938 c 0.07422,-0.08984 0.148438,-0.171875 0.214844,-0.238281 0.06641,-0.06641 0.132812,-0.117188 0.199219,-0.148438 0.08203,-0.05078 0.171875,-0.08594 0.265625,-0.105469 0.09375,-0.02344 0.191406,-0.03516 0.292968,-0.03516 0.199219,0 0.378907,0.03906 0.535157,0.121094 0.15625,0.07422 0.289062,0.195312 0.398437,0.355469 0.113281,0.160156 0.195313,0.339843 0.25,0.539062 0.05469,0.199219 0.08203,0.417969 0.08203,0.652344 0,0.261719 -0.02734,0.484375 -0.08984,0.6875 -0.05859,0.199219 -0.148438,0.371094 -0.269532,0.507812 -0.121093,0.136719 -0.257812,0.238282 -0.410156,0.308594 -0.152344,0.07031 -0.320312,0.101563 -0.503906,0.101563 -0.08594,0 -0.171875,-0.0078 -0.253906,-0.02344 -0.07813,-0.01563 -0.160157,-0.03906 -0.234375,-0.07031 -0.07422,-0.03125 -0.140625,-0.07031 -0.207032,-0.117188 -0.0625,-0.04687 -0.125,-0.101562 -0.183593,-0.160156 v 1.488281 z m 1.15625,-2.746094 c 0,0.125 0.01563,0.230469 0.03906,0.324219 0.02734,0.09375 0.0625,0.167969 0.113282,0.226563 0.09766,0.121093 0.226562,0.179687 0.382812,0.179687 0.06641,0 0.128906,-0.01563 0.183594,-0.04687 0.05859,-0.02344 0.109375,-0.06641 0.15625,-0.125 0.04297,-0.05469 0.07422,-0.132812 0.09766,-0.230469 0.02344,-0.09766 0.03516,-0.214843 0.03516,-0.351562 0,-0.253906 -0.04687,-0.441406 -0.140625,-0.5625 -0.04687,-0.0625 -0.09766,-0.109375 -0.15625,-0.132813 -0.05859,-0.02734 -0.121093,-0.04297 -0.191406,-0.04297 -0.07422,0 -0.140625,0.01563 -0.203125,0.04297 -0.05859,0.02734 -0.113281,0.07422 -0.164062,0.132813 -0.05078,0.05859 -0.08594,0.136719 -0.113282,0.238281 -0.02344,0.09766 -0.03906,0.214844 -0.03906,0.347656 z m 5.898437,1.554688 h -1.082031 v -0.503906 c -0.07813,0.101562 -0.160156,0.191406 -0.242187,0.265625 -0.08203,0.07422 -0.164063,0.136718 -0.246094,0.179687 -0.08203,0.04297 -0.171875,0.07813 -0.273438,0.09766 -0.101562,0.02344 -0.210937,0.03516 -0.332031,0.03516 -0.15625,0 -0.296875,-0.02344 -0.421875,-0.07813 -0.125,-0.04687 -0.230469,-0.125 -0.320312,-0.214844 -0.08984,-0.101563 -0.160157,-0.226563 -0.207032,-0.382813 C 40.773438,24.039063 40.75,23.859375 40.75,23.65625 v -1.996094 h 1.164063 v 1.730469 c 0,0.191406 0.03516,0.332031 0.105468,0.414063 0.03125,0.04297 0.07422,0.07422 0.125,0.09375 0.05078,0.01563 0.105469,0.02344 0.167969,0.02344 0.07031,0 0.132813,-0.0078 0.191406,-0.03516 0.05469,-0.02734 0.105469,-0.07031 0.148438,-0.125 0.04297,-0.05078 0.07422,-0.128906 0.09766,-0.230469 0.02344,-0.09766 0.03516,-0.21875 0.03516,-0.363281 v -1.507813 h 1.15625 z m 0.707032,-4.320313 h 1.167968 V 21.96875 C 45.875,21.90625 45.9375,21.851563 46,21.804688 c 0.06641,-0.04687 0.132813,-0.08594 0.207031,-0.121094 0.152344,-0.0625 0.3125,-0.08984 0.488282,-0.08984 0.183593,0 0.351562,0.03516 0.503906,0.101563 0.152344,0.07031 0.289062,0.171875 0.410156,0.308593 0.117188,0.136719 0.207031,0.304688 0.269531,0.5 0.05859,0.195313 0.08984,0.417969 0.08984,0.679688 0,0.171875 -0.01563,0.332031 -0.04297,0.480469 -0.02734,0.15625 -0.06641,0.296875 -0.121093,0.425781 -0.05469,0.128906 -0.121094,0.242187 -0.195313,0.339844 -0.07813,0.09766 -0.164062,0.179687 -0.261719,0.242187 -0.09766,0.06641 -0.199218,0.113281 -0.304687,0.148438 -0.109375,0.03125 -0.222656,0.04687 -0.34375,0.04687 -0.101563,0 -0.199219,-0.01172 -0.289063,-0.03516 -0.09375,-0.02344 -0.183593,-0.05859 -0.269531,-0.101562 -0.05859,-0.03516 -0.125,-0.08984 -0.195312,-0.15625 -0.06641,-0.06641 -0.140625,-0.152344 -0.214844,-0.242188 v 0.460938 h -1.082031 z m 1.15625,2.746094 c 0,0.136719 0.01172,0.253906 0.03906,0.351563 0.02344,0.09375 0.05859,0.175781 0.105469,0.234375 0.05078,0.0625 0.105469,0.105468 0.167969,0.136718 0.0625,0.03125 0.128906,0.04687 0.207031,0.04687 0.06641,0 0.132812,-0.01563 0.191406,-0.04687 0.05859,-0.02734 0.109375,-0.07422 0.15625,-0.128906 0.04687,-0.06641 0.08203,-0.144531 0.105469,-0.242187 0.02344,-0.101563 0.03516,-0.21875 0.03516,-0.363282 0,-0.125 -0.01172,-0.230468 -0.03516,-0.320312 -0.02344,-0.09375 -0.05469,-0.164063 -0.101563,-0.222656 -0.04297,-0.05859 -0.09766,-0.101563 -0.152343,-0.128907 -0.05469,-0.03125 -0.117188,-0.04687 -0.183594,-0.04687 -0.15625,0 -0.285156,0.05859 -0.382813,0.179688 -0.05078,0.0625 -0.08984,0.136719 -0.113281,0.230469 -0.02734,0.08984 -0.03906,0.199218 -0.03906,0.320312 z M 48.5625,20.472656 h 1.15625 v 4.324219 H 48.5625 Z m 1.9375,0 h 1.15625 v 0.8125 H 50.5 Z m 0,1.1875 h 1.15625 v 3.136719 H 50.5 Z m 4.148438,1.910157 1.097656,0.132812 c -0.0625,0.234375 -0.160156,0.441406 -0.296875,0.617188 -0.06641,0.08594 -0.148438,0.164062 -0.238281,0.226562 -0.08984,0.07031 -0.1875,0.125 -0.296875,0.175781 -0.101563,0.05078 -0.222657,0.08594 -0.359375,0.109375 -0.136719,0.02344 -0.289063,0.03516 -0.453125,0.03516 -0.320313,0 -0.589844,-0.02734 -0.804688,-0.08984 -0.101562,-0.03125 -0.203125,-0.07422 -0.292969,-0.125 -0.09375,-0.04687 -0.175781,-0.109375 -0.253906,-0.175781 -0.07813,-0.07031 -0.144531,-0.144532 -0.207031,-0.230469 -0.05859,-0.08203 -0.109375,-0.164063 -0.152344,-0.257813 -0.04297,-0.09375 -0.07813,-0.203125 -0.101562,-0.328125 -0.01953,-0.125 -0.03125,-0.261718 -0.03125,-0.417968 0,-0.160157 0.01172,-0.304688 0.03906,-0.445313 0.02734,-0.132812 0.06641,-0.253906 0.121094,-0.355469 0.03906,-0.07813 0.08594,-0.15625 0.136719,-0.226562 0.05469,-0.07031 0.113281,-0.136719 0.179687,-0.195313 0.06641,-0.06641 0.136719,-0.121093 0.207031,-0.164062 0.06641,-0.04687 0.140625,-0.08594 0.210938,-0.117188 0.109375,-0.04687 0.238281,-0.08203 0.382812,-0.105468 0.144532,-0.02734 0.304688,-0.03906 0.480469,-0.03906 0.246094,0 0.464844,0.02344 0.652344,0.07031 0.1875,0.04297 0.347656,0.113281 0.476562,0.203125 0.125,0.08984 0.238282,0.203125 0.328125,0.335937 0.08984,0.136719 0.164063,0.292969 0.214844,0.464844 l -1.085937,0.152344 c -0.01953,-0.06641 -0.04297,-0.125 -0.07422,-0.175782 -0.03125,-0.05078 -0.07031,-0.09766 -0.113281,-0.125 -0.04687,-0.03516 -0.09766,-0.0625 -0.160157,-0.07813 -0.0625,-0.01953 -0.128906,-0.02734 -0.207031,-0.02734 -0.09375,0 -0.179687,0.01953 -0.257812,0.05469 -0.07422,0.03906 -0.144532,0.08984 -0.207032,0.160156 -0.05859,0.07031 -0.101562,0.160157 -0.128906,0.269532 -0.03125,0.109375 -0.04297,0.234375 -0.04297,0.375 0,0.128906 0.01172,0.246093 0.04297,0.34375 0.02734,0.09766 0.07031,0.175781 0.128906,0.25 0.05859,0.06641 0.125,0.113281 0.199219,0.148437 0.07813,0.02734 0.160156,0.05078 0.25,0.05078 0.07422,0 0.144531,-0.01172 0.210938,-0.03125 0.0625,-0.01953 0.121093,-0.05078 0.171875,-0.08984 0.05469,-0.04297 0.09766,-0.09375 0.136718,-0.15625 0.03906,-0.0625 0.07031,-0.132813 0.09766,-0.21875 z m 1.5,-1.910157 h 2.800781 v 0.707032 l -1.527344,1.609375 h 1.617188 v 0.816406 H 56.03125 v -0.777344 l 1.445313,-1.53125 h -1.328125 z m 3.363281,0 h 1.074219 v 0.511719 c 0.08203,-0.101562 0.164062,-0.191406 0.246093,-0.265625 0.08203,-0.07422 0.164063,-0.132812 0.246094,-0.179687 0.08203,-0.04297 0.175781,-0.07813 0.273438,-0.09766 0.101562,-0.02344 0.210937,-0.03516 0.328125,-0.03516 0.160156,0 0.304687,0.02344 0.429687,0.07031 0.125,0.05078 0.234375,0.125 0.324219,0.226562 0.08984,0.09766 0.15625,0.222656 0.199219,0.375 0.04297,0.148438 0.06641,0.332031 0.06641,0.539063 v 1.988281 h -1.15625 v -1.71875 c 0,-0.203125 -0.03516,-0.335938 -0.105469,-0.417969 -0.07031,-0.08203 -0.167969,-0.125 -0.296875,-0.125 -0.07031,0 -0.132812,0.01172 -0.191406,0.04297 -0.05859,0.03125 -0.109375,0.07031 -0.152344,0.125 -0.04297,0.05469 -0.07422,0.132812 -0.09766,0.230469 -0.01953,0.101562 -0.03125,0.21875 -0.03125,0.359375 v 1.503906 h -1.15625 z m 7.230469,1.867188 h -2.320313 c 0.01172,0.09375 0.03125,0.183594 0.05469,0.253906 0.02734,0.07031 0.05859,0.128906 0.09766,0.175781 0.05469,0.07031 0.117187,0.121094 0.191406,0.15625 0.07422,0.03125 0.15625,0.04687 0.242188,0.04687 0.05859,0 0.117187,-0.0078 0.171875,-0.01953 0.05469,-0.01953 0.105468,-0.03906 0.15625,-0.07031 0.03125,-0.01563 0.0625,-0.04297 0.09766,-0.07422 0.03125,-0.03516 0.06641,-0.07813 0.105469,-0.117188 l 1.140625,0.109375 c -0.08984,0.15625 -0.183594,0.289063 -0.289063,0.402344 -0.105469,0.113281 -0.222656,0.203125 -0.347656,0.273438 -0.121094,0.06641 -0.269531,0.117187 -0.445313,0.152343 -0.179687,0.03516 -0.382812,0.05078 -0.613281,0.05078 -0.199219,0 -0.378906,-0.01563 -0.535156,-0.04297 -0.15625,-0.03516 -0.292969,-0.07813 -0.40625,-0.128906 -0.113281,-0.0625 -0.21875,-0.140625 -0.3125,-0.234375 -0.09766,-0.09375 -0.179688,-0.203125 -0.257813,-0.328125 -0.07422,-0.128907 -0.132812,-0.265625 -0.167968,-0.414063 -0.03906,-0.148437 -0.05859,-0.308594 -0.05859,-0.480469 0,-0.246093 0.03906,-0.464843 0.113281,-0.664062 0.07422,-0.203125 0.191406,-0.375 0.339844,-0.53125 0.152344,-0.144531 0.332031,-0.257813 0.542969,-0.335938 0.207031,-0.07422 0.445312,-0.113281 0.707031,-0.113281 0.21875,0 0.410156,0.01563 0.582031,0.05078 0.171875,0.02734 0.320313,0.08203 0.445313,0.144532 0.125,0.07422 0.234375,0.160156 0.328125,0.25 0.09766,0.105468 0.175781,0.21875 0.242187,0.347656 0.06641,0.128906 0.113281,0.277344 0.148438,0.445312 0.03125,0.164063 0.04687,0.351563 0.04687,0.558594 z m -1.175782,-0.574219 c -0.01172,-0.117187 -0.03125,-0.214844 -0.0625,-0.300781 -0.03125,-0.08203 -0.07031,-0.148438 -0.117187,-0.199219 -0.04687,-0.05078 -0.105469,-0.08594 -0.167969,-0.113281 -0.06641,-0.02344 -0.136719,-0.04297 -0.214844,-0.04297 -0.09375,0 -0.175781,0.02344 -0.25,0.0625 -0.07422,0.03906 -0.136718,0.09766 -0.191406,0.171875 -0.03516,0.04687 -0.06641,0.109375 -0.08594,0.175781 -0.02344,0.07031 -0.03906,0.152344 -0.05078,0.246094 z m 3.804688,-1.292969 h 1.082031 v 2.960938 l 0.0078,0.140625 c 0,0.199219 -0.04297,0.386719 -0.121094,0.558594 -0.04297,0.09375 -0.08984,0.171875 -0.140625,0.246093 -0.05469,0.07031 -0.113281,0.136719 -0.179688,0.191407 -0.06641,0.05469 -0.144531,0.09766 -0.230468,0.140625 -0.08594,0.03906 -0.179688,0.07031 -0.28125,0.09375 -0.101563,0.02344 -0.214844,0.04297 -0.332032,0.05469 -0.117187,0.01563 -0.242187,0.02344 -0.375,0.02344 -0.300781,0 -0.558593,-0.02734 -0.765625,-0.07422 -0.210937,-0.04687 -0.371093,-0.117188 -0.484375,-0.210938 -0.113281,-0.09375 -0.195312,-0.207031 -0.253906,-0.332031 -0.05469,-0.125 -0.08203,-0.265625 -0.08203,-0.425781 0,-0.01953 0,-0.04297 0,-0.07031 0,-0.02344 0.0039,-0.05469 0.0039,-0.08984 l 1.125,0.128906 c 0.01563,0.05859 0.03125,0.105469 0.05078,0.140625 0.02344,0.03516 0.04687,0.06641 0.07813,0.08984 0.04297,0.02734 0.08984,0.05078 0.144532,0.0625 0.05078,0.01953 0.109375,0.02734 0.171875,0.02734 0.08594,0 0.160156,-0.01172 0.222656,-0.03516 0.0625,-0.02344 0.113281,-0.05859 0.15625,-0.109375 0.04297,-0.03906 0.07422,-0.105469 0.09375,-0.183594 0.01953,-0.08203 0.03125,-0.179687 0.03125,-0.292968 v -0.480469 c -0.05859,0.07031 -0.117188,0.132812 -0.171875,0.183594 -0.05859,0.05078 -0.113281,0.09375 -0.171875,0.125 -0.175781,0.09766 -0.367188,0.140625 -0.578125,0.140625 -0.199219,0 -0.382813,-0.04297 -0.542969,-0.132813 -0.164062,-0.08984 -0.308594,-0.226562 -0.433594,-0.410156 -0.08594,-0.132813 -0.152343,-0.28125 -0.195312,-0.457031 -0.04297,-0.167969 -0.06641,-0.359375 -0.06641,-0.570313 0,-0.246094 0.02734,-0.460937 0.08203,-0.648437 0.05859,-0.1875 0.140625,-0.34375 0.253906,-0.46875 0.113281,-0.128907 0.246094,-0.222657 0.394531,-0.285157 0.148438,-0.07031 0.316407,-0.09766 0.503907,-0.09766 0.117187,0 0.222656,0.01172 0.316406,0.02734 0.09766,0.02344 0.183594,0.04687 0.257812,0.09375 0.07813,0.04297 0.152344,0.09766 0.226563,0.164062 0.07031,0.07031 0.136719,0.152344 0.203125,0.242188 z m -1.085938,1.523438 c 0,0.109375 0.01172,0.210937 0.03516,0.292969 0.02344,0.08594 0.05859,0.152343 0.105468,0.207031 0.08984,0.105469 0.214844,0.164062 0.363282,0.164062 0.07422,0 0.140625,-0.01563 0.199218,-0.04297 0.05859,-0.02734 0.113282,-0.07031 0.164063,-0.125 0.04687,-0.05859 0.08594,-0.132813 0.109375,-0.214844 0.02344,-0.08594 0.03516,-0.183594 0.03516,-0.300781 0,-0.109375 -0.01172,-0.210938 -0.03906,-0.296875 -0.02344,-0.08594 -0.0625,-0.160157 -0.113282,-0.222657 -0.05078,-0.05859 -0.109375,-0.105468 -0.171875,-0.132812 -0.0625,-0.03125 -0.128906,-0.04687 -0.207031,-0.04687 -0.144531,0 -0.261719,0.05469 -0.347656,0.164062 -0.04297,0.05469 -0.07422,0.128907 -0.101563,0.222657 -0.01953,0.08984 -0.03125,0.203125 -0.03125,0.332031 z m 2.726563,0.05469 c 0,-0.242187 0.03906,-0.457031 0.117187,-0.652343 0.07422,-0.195313 0.191407,-0.371094 0.347657,-0.527344 0.15625,-0.15625 0.339843,-0.273438 0.546875,-0.347656 0.210937,-0.07813 0.445312,-0.117188 0.710937,-0.117188 0.304688,0 0.566406,0.04687 0.796875,0.136719 0.226563,0.08984 0.417969,0.226562 0.570313,0.40625 0.125,0.148437 0.21875,0.308594 0.28125,0.484375 0.0625,0.1875 0.08984,0.382812 0.08984,0.597656 0,0.242188 -0.03516,0.460938 -0.113281,0.660156 -0.07422,0.195313 -0.191406,0.367188 -0.34375,0.523438 -0.15625,0.15625 -0.339844,0.265625 -0.550781,0.351562 -0.210938,0.07422 -0.453125,0.113282 -0.722656,0.113282 -0.246094,0 -0.464844,-0.03125 -0.660157,-0.09766 -0.199218,-0.0625 -0.371093,-0.160156 -0.523437,-0.289062 -0.183594,-0.15625 -0.320313,-0.335938 -0.410156,-0.546875 -0.08984,-0.207031 -0.136719,-0.4375 -0.136719,-0.695313 z m 1.160156,0 c 0,0.132813 0.01172,0.257813 0.03906,0.363282 0.02734,0.101562 0.06641,0.1875 0.121093,0.253906 0.05469,0.0625 0.117188,0.113281 0.1875,0.148437 0.06641,0.03125 0.144532,0.05078 0.226563,0.05078 0.08203,0 0.15625,-0.01953 0.226562,-0.05078 0.06641,-0.03125 0.128907,-0.08594 0.179688,-0.144531 0.05859,-0.07031 0.09766,-0.152344 0.125,-0.257812 0.02734,-0.105469 0.03906,-0.230469 0.03906,-0.375 0,-0.136719 -0.01563,-0.253907 -0.04297,-0.359375 -0.02734,-0.101563 -0.06641,-0.183594 -0.121094,-0.25 -0.109375,-0.132813 -0.242188,-0.203125 -0.398438,-0.203125 -0.08594,0 -0.164062,0.01953 -0.230468,0.05469 -0.07031,0.03516 -0.136719,0.08594 -0.191407,0.152344 -0.05469,0.06641 -0.09375,0.152344 -0.121093,0.25 -0.02734,0.105469 -0.03906,0.226562 -0.03906,0.367187 z m 0,0"
         id="path8" />
    </g>
  </g>
</svg>
