<svg width="30" height="20" viewBox="0 0 30 20" fill="none" xmlns="http://www.w3.org/2000/svg">
<path d="M20.6641 8.66663C22.8774 8.66663 24.6507 6.87996 24.6507 4.66663C24.6507 2.45329 22.8774 0.666626 20.6641 0.666626C18.4507 0.666626 16.6641 2.45329 16.6641 4.66663C16.6641 6.87996 18.4507 8.66663 20.6641 8.66663ZM9.9974 8.66663C12.2107 8.66663 13.9841 6.87996 13.9841 4.66663C13.9841 2.45329 12.2107 0.666626 9.9974 0.666626C7.78406 0.666626 5.9974 2.45329 5.9974 4.66663C5.9974 6.87996 7.78406 8.66663 9.9974 8.66663ZM9.9974 11.3333C6.89073 11.3333 0.664062 12.8933 0.664062 16V18C0.664062 18.7333 1.26406 19.3333 1.9974 19.3333H17.9974C18.7307 19.3333 19.3307 18.7333 19.3307 18V16C19.3307 12.8933 13.1041 11.3333 9.9974 11.3333ZM20.6641 11.3333C20.2774 11.3333 19.8374 11.36 19.3707 11.4C19.3974 11.4133 19.4107 11.44 19.4241 11.4533C20.9441 12.56 21.9974 14.04 21.9974 16V18C21.9974 18.4666 21.9041 18.92 21.7574 19.3333H28.6641C29.3974 19.3333 29.9974 18.7333 29.9974 18V16C29.9974 12.8933 23.7707 11.3333 20.6641 11.3333Z" fill="#116858"/>
</svg>
