<svg width="21" height="20" viewBox="0 0 21 20" fill="none" xmlns="http://www.w3.org/2000/svg">
<path fill-rule="evenodd" clip-rule="evenodd" d="M10.4616 9.16696C13.2366 9.16696 16.3424 14.2695 16.8216 16.4303C17.3008 18.592 15.9916 20.3711 13.9183 19.857C13.0083 19.6311 11.2083 18.7678 10.4999 18.7811C9.72911 18.7945 8.51745 19.4778 7.51078 19.8245C5.29661 20.5878 3.57995 18.7553 4.16911 16.4303C4.81411 13.8878 7.90245 9.16696 10.4616 9.16696ZM19.4558 5.50862C20.4458 5.95779 20.8133 7.85862 20.2008 9.90029C19.6141 11.8511 18.2591 13.072 16.4041 12.2303C14.7949 11.4995 14.6058 9.58196 15.6591 7.83862C16.7208 6.08279 18.4649 5.05862 19.4558 5.50862ZM1.14911 6.09696C0.279114 6.70446 0.265781 8.59362 1.21745 10.4428C2.12745 12.2095 3.64495 13.1395 5.27411 12.0011C6.68745 11.0136 6.52745 9.14029 5.20578 7.65529C3.87578 6.16112 2.01911 5.48946 1.14911 6.09696ZM14.1849 0.0202894C15.2874 0.229456 16.1191 2.04362 16.0033 4.23862C15.8916 6.33612 14.8324 7.89029 12.7683 7.49862C10.9774 7.15946 10.3199 5.28446 10.9508 3.28112C11.5849 1.26362 13.0833 -0.188877 14.1849 0.0202894ZM5.60578 0.0686227C4.54911 0.444456 4.00578 2.36529 4.45828 4.51612C4.89078 6.57196 6.17661 7.94446 8.15578 7.24029C9.87245 6.63029 10.2341 4.67612 9.30328 2.79362C8.36578 0.896956 6.66245 -0.307211 5.60578 0.0686227Z" fill="#116858"/>
</svg>
