<svg width="24" height="24" viewBox="0 0 24 24" fill="none" xmlns="http://www.w3.org/2000/svg">
<g clip-path="url(#clip0_3123_25929)">
<path fill-rule="evenodd" clip-rule="evenodd" d="M14 23.9999H10V20.9999C10 20.4699 9.789 19.9609 9.414 19.5859C9.039 19.2109 8.53 18.9999 8 18.9999C7.47 18.9999 6.961 19.2109 6.586 19.5859C6.211 19.9609 6 20.4699 6 20.9999V23.9999H2V9.27495L8 3.99995L14 9.27495V23.9999ZM16.415 18.9999H15V15.9999H17C20.37 15.9999 19.936 21.9999 24 21.9999V23.9999H23C18.399 23.9999 18.598 18.9999 16.415 18.9999ZM15 13.9999H17.5C17.633 13.9999 17.76 14.0529 17.854 14.1459C17.947 14.2399 18 14.3669 18 14.4999C18 14.6329 17.947 14.7599 17.854 14.8539C17.76 14.9469 17.633 14.9999 17.5 14.9999H15V13.9999ZM10 14.9999V10.9999C10 9.89595 9.104 8.99995 8 8.99995C6.896 8.99995 6 9.89595 6 10.9999V14.9999H10ZM8 -0.0290527L16 7.07895L14.672 8.57095L8 2.64395L1.328 8.57095L0 7.07895L8 -0.0290527Z" fill="#116858"/>
</g>
<defs>
<clipPath id="clip0_3123_25929">
<rect width="24" height="24" fill="white"/>
</clipPath>
</defs>
</svg>
