<svg width="24" height="25" viewBox="0 0 24 25" fill="none" xmlns="http://www.w3.org/2000/svg">
<g clip-path="url(#clip0_3123_25958)">
<path fill-rule="evenodd" clip-rule="evenodd" d="M17.151 10.038C18.463 10.089 19.47 11.142 19.489 12.492V13.618C19.873 13.696 21.255 13.978 21.628 14.065C23.252 14.482 23.995 15.752 23.989 17.393C23.978 19.004 23.294 19.801 22.857 20.801C22.599 21.413 22.506 21.912 22.49 22.576L22.489 24.5H15.768C15.772 23.738 15.683 22.755 15.363 22.063C14.934 21.13 13.988 20.314 12.903 19.147C12.098 18.23 11.999 17.131 12.464 16.277C12.863 15.544 13.638 15.071 14.689 15.152C14.689 14.246 14.678 13.34 14.689 12.435C14.759 10.958 15.883 10.023 17.151 10.038ZM20.589 22.5C20.616 20.862 21.125 19.944 21.535 19.162C21.857 18.548 22.088 18.106 22.088 17.39C22.088 16.575 21.828 16.244 21.505 16.083C21.269 15.966 20.997 16.148 20.997 16.423V16.906C20.997 17.072 20.869 17.207 20.712 17.207C20.553 17.207 20.425 17.072 20.425 16.906V16.096C20.425 15.882 20.283 15.7 20.086 15.659C19.825 15.604 19.581 15.816 19.581 16.096V16.534C19.581 16.701 19.453 16.836 19.296 16.836C19.137 16.836 19.009 16.701 19.009 16.534V15.862C19.009 15.648 18.866 15.464 18.668 15.422C18.405 15.367 18.16 15.58 18.16 15.862V16.165C18.16 16.332 18.032 16.467 17.876 16.467C17.716 16.467 17.588 16.332 17.588 16.165V12.497C17.588 12.224 17.36 11.993 17.089 11.993C16.818 11.993 16.589 12.224 16.589 12.497V18.794C16.057 18.097 15.159 17.099 14.528 17.103C14.111 17.104 13.963 17.465 14.307 17.828C15.62 19.216 17.162 20.484 17.525 22.5H20.589ZM24 13.138C23.861 13.029 23.715 12.928 23.565 12.834C23.082 12.536 22.551 12.332 22 12.201V2.607C16.83 2.997 14.453 4.079 13 4.939V13.5C12.14 13.789 11.468 14.352 11 15.033V4.942C9.526 4.071 7.157 2.996 2 2.607V16.311C5.724 16.566 8.622 17.324 10.318 17.877C10.359 18.227 10.443 18.573 10.566 18.903C10.782 19.486 11.118 20.01 11.537 20.467C11.239 20.424 10.946 20.338 10.667 20.21C7.795 18.895 3.937 18.335 0 18.215V0.5C4.584 0.641 9.062 1.377 12 3.207C14.938 1.377 19.416 0.641 24 0.5V13.138ZM4 14.231C6.086 14.543 8.451 15.255 10 15.905V14.84C8.332 14.218 6.119 13.526 4 13.214V14.231ZM4 12.2C6.086 12.512 8.451 13.223 10 13.873V12.809C8.332 12.187 6.119 11.493 4 11.184V12.2ZM4 10.169C6.086 10.48 8.451 11.192 10 11.842V10.778C8.332 10.156 6.119 9.462 4 9.152V10.169ZM4 8.138C6.086 8.449 8.451 9.162 10 9.81V8.746C8.332 8.124 6.119 7.432 4 7.121V8.138ZM20 7.121C17.88 7.432 15.668 8.124 14 8.746V9.81C15.548 9.162 17.914 8.449 20 8.138V7.121ZM4 5.08C6.119 5.389 8.332 6.083 10 6.705V7.769C8.451 7.12 6.086 6.408 4 6.096V5.08ZM20 6.096C17.914 6.408 15.548 7.12 14 7.769V6.705C15.668 6.083 17.88 5.389 20 5.08V6.096Z" fill="#116858"/>
</g>
<defs>
<clipPath id="clip0_3123_25958">
<rect width="24" height="24" fill="white" transform="translate(0 0.5)"/>
</clipPath>
</defs>
</svg>
