<svg width="229" height="64" viewBox="0 0 229 64" fill="none" xmlns="http://www.w3.org/2000/svg">
<path d="M226.262 13.4715C225.69 14.9672 225.028 16.468 224.284 17.9725C223.531 19.477 222.749 20.9702 221.937 22.4508C221.124 23.9315 220.304 25.3909 219.483 26.8264C218.663 28.2607 217.903 29.6662 217.211 31.0365C217.136 31.1895 217.053 31.3875 216.97 31.6308C216.888 31.8753 216.812 32.1373 216.737 32.4194C216.662 32.7027 216.587 33.0024 216.512 33.3221C216.436 33.6418 216.376 33.9552 216.331 34.2599V34.5796C216.331 34.9758 216.369 35.3607 216.451 35.733C216.534 36.1066 216.639 36.4426 216.76 36.7385C216.88 37.0357 217.008 37.2726 217.143 37.4482C217.279 37.6224 217.407 37.7114 217.527 37.7114C217.82 37.7114 218.159 37.65 218.535 37.5284C218.911 37.4055 219.31 37.2413 219.732 37.0369C220.161 36.8326 220.598 36.5944 221.041 36.3273C221.485 36.0615 221.921 35.7907 222.335 35.5161C223.306 34.8767 224.321 34.137 225.382 33.2995C227.888 31.4916 229.934 36.2082 227.377 38.0763C225.999 38.9953 224.63 39.814 223.283 40.5336C222.696 40.8345 222.087 41.1329 221.463 41.4275C220.838 41.7234 220.206 41.9842 219.567 42.2149C218.934 42.4443 218.317 42.6261 217.708 42.7628C217.106 42.9007 216.542 42.9684 216.015 42.9684C215.203 42.9684 214.45 42.6136 213.751 41.909C213.059 41.2019 212.449 40.2553 211.929 39.0642C211.786 38.7332 211.658 38.386 211.53 38.0261C211.53 38.0236 211.53 38.0261 211.523 38.0236C211.47 37.8707 211.433 37.7516 211.184 37.9133L211.214 37.8757C210.951 38.0462 210.688 38.2192 210.41 38.3722C209.597 38.816 208.74 39.1696 207.844 39.4366C206.949 39.7011 206.069 39.8353 205.195 39.8353C205.09 39.8353 204.955 39.8177 204.797 39.7864C204.646 39.7525 204.368 39.6961 203.977 39.6146C203.879 39.5933 203.758 39.5695 203.631 39.5444C203.45 39.5081 203.382 39.577 203.232 39.7137V39.7099C201.998 40.837 200.546 41.6357 198.861 41.8049C198.207 41.8689 197.047 41.3736 196.852 40.7179C196.656 40.0622 196.566 37.8581 199.493 36.4778C202.976 34.8328 203.495 29.9771 203.51 29.7953C203.548 29.5659 203.871 27.5248 202.856 26.8553C202.254 26.4616 201.419 26.6346 200.283 27.3868C197.356 29.3352 195.505 34.8868 194.851 38.0525L194.542 41.9178V42.3277C194.542 45.0885 194.301 47.596 193.835 49.8477C193.361 52.1007 192.729 54.0239 191.939 55.6162C191.15 57.2097 190.238 58.4396 189.215 59.3035C188.192 60.1686 187.139 60.5998 186.033 60.5998C185.175 60.5998 184.461 60.3867 183.889 59.9617C183.316 59.5367 182.865 58.9624 182.526 58.239C182.188 57.5169 181.947 56.6731 181.804 55.7065C181.661 54.7398 181.586 53.718 181.586 52.6385C181.586 52.0104 181.684 51.3033 181.879 50.516C182.075 49.7261 182.338 48.9011 182.669 48.036C183 47.171 183.376 46.2908 183.791 45.3957C184.205 44.5017 184.626 43.6316 185.063 42.7904C185.86 41.2608 186.748 39.6961 187.718 38.0913C187.808 37.9459 188.651 36.7047 189.757 35.0748C189.945 34.7965 190.088 34.3878 190.095 33.9038C190.118 32.2639 190.11 30.2253 190.095 28.3322C190.08 25.7219 190.065 23.257 190.155 22.491C190.313 21.1595 190.901 19.5522 192.827 19.4544C193.429 19.4255 193.955 19.6537 194.399 20.1364C195.084 20.8686 195.362 21.9844 195.279 22.6615C195.272 22.7705 194.978 25.2881 195.467 25.9475C195.648 26.1632 195.844 26.2522 196.024 25.9162C196.047 25.8648 198.606 20.7432 203.209 20.7432C204.691 20.7432 205.911 21.266 206.821 22.2966C208.439 24.1246 208.732 27.0922 208.499 29.0794C208.356 30.2654 207.807 32.3554 206.821 34.5044C206.746 34.6774 206.746 34.7764 206.927 34.7338C207.732 34.4893 208.484 34.201 209.176 33.8599C209.522 33.6932 209.845 33.5139 210.161 33.3283C210.357 33.1992 210.44 33.0563 210.41 32.7077V32.6977C210.327 31.8163 210.282 30.9124 210.282 29.9859C210.282 28.5027 210.5 26.5243 210.929 24.0481C211.365 21.572 211.583 20.3345 211.583 20.3358C211.583 20.3358 211.914 19.0983 212.569 16.6272C213.224 14.1548 213.886 12.1714 214.548 10.6782C215.21 9.18495 215.925 7.78827 216.7 6.48939C217.474 5.19302 218.287 4.06214 219.137 3.09801C219.987 2.13388 220.876 1.37661 221.801 0.824965C222.734 0.27457 223.674 0 224.63 0C225.329 0 225.901 0.131643 226.352 0.398691C226.811 0.665739 227.165 1.0193 227.429 1.45685C227.685 1.89566 227.865 2.39089 227.971 2.9463C228.076 3.50046 228.129 4.0659 228.129 4.64012C228.129 6.06939 227.963 7.52373 227.625 9.00566C227.285 10.4863 226.834 11.9745 226.262 13.4715ZM188.967 42.7778C188.741 43.2066 188.515 43.6755 188.29 44.2096C188.019 44.8666 187.763 45.5486 187.522 46.257C187.282 46.9666 187.064 47.675 186.868 48.3833C186.672 49.093 186.507 49.7524 186.364 50.363C186.221 50.9748 186.108 51.5014 186.025 51.9465C185.943 52.3903 185.898 52.7113 185.898 52.9081C185.898 53.0272 185.928 53.224 185.98 53.4936C186.033 53.7644 186.116 54.034 186.236 54.306C186.356 54.5756 186.514 54.8163 186.71 55.0269C186.906 55.2376 187.146 55.3429 187.432 55.3429C187.688 55.3429 187.899 55.2037 188.064 54.9266C188.23 54.6471 188.365 54.2747 188.47 53.8108C188.576 53.3444 188.651 52.8178 188.696 52.2323C188.741 51.6468 188.779 51.045 188.801 50.4294C188.831 49.8126 188.846 49.2108 188.854 48.6253C188.861 48.0386 188.884 47.5132 188.914 47.0481C188.959 46.2369 188.997 45.5499 189.019 44.9857C189.049 44.4227 189.065 43.9526 189.08 43.5765C189.087 43.3583 189.095 43.1565 189.102 42.9684C189.117 42.6362 189.049 42.665 188.967 42.7778ZM223.042 5.72335C223.02 5.41117 222.952 5.25571 222.839 5.25571C222.425 5.25571 221.982 5.54156 221.508 6.11578C221.026 6.68999 220.552 7.46731 220.071 8.44774C219.597 9.42692 219.024 11.0204 218.362 13.2258L217.369 16.5369C217.369 16.5394 217.166 17.5625 216.76 19.6086C216.399 21.4441 216.173 23.0664 216.075 24.5007C216.075 24.7314 216.211 24.6725 216.324 24.4744C216.918 23.3899 217.542 22.2001 218.197 20.8887C218.956 19.3654 219.68 17.7969 220.364 16.1809C221.041 14.566 221.628 12.955 222.125 11.3477C222.621 9.7391 222.937 8.24213 223.08 6.85549C223.08 6.41417 223.065 6.03679 223.042 5.72335ZM184.205 40.1989C184.122 40.4885 183.994 40.7944 183.821 41.1191C183.648 41.4426 183.406 41.7422 183.09 42.0168C182.775 42.2939 182.376 42.5208 181.894 42.7001C181.413 42.8794 180.826 42.9684 180.134 42.9684C179.577 42.9684 179.073 42.9032 178.622 42.7716C178.171 42.6399 177.78 42.4418 177.456 42.1723C177.133 41.9027 176.884 41.5579 176.704 41.1379C176.523 40.7179 176.433 40.2127 176.433 39.6196C176.433 39.1232 176.508 38.6367 176.666 38.1615C176.824 37.6864 177.072 37.2639 177.403 36.8902C177.734 36.5179 178.163 36.222 178.69 36.0013C179.216 35.7807 179.841 35.6716 180.563 35.6716C181.812 35.6716 182.759 35.96 183.406 36.5392C184.055 37.1172 184.378 37.9446 184.378 39.0191C184.378 39.0743 184.371 39.2134 184.355 39.4328C184.34 39.6548 184.288 39.908 184.205 40.1989ZM172.355 39.9444C171.7 40.4948 171.008 40.9925 170.278 41.4388C169.549 41.8877 168.75 42.2538 167.877 42.5396C167.005 42.8255 166.019 42.9684 164.921 42.9684C164.38 42.9684 163.921 42.7941 163.56 42.4481C163.183 42.0996 162.89 41.6144 162.664 40.9925C162.439 40.3719 162.281 39.6397 162.183 38.7947C162.085 37.9509 162.033 37.0344 162.033 36.0402C162.033 35.0811 162.07 34.0618 162.138 32.9873C162.19 32.0733 162.273 31.1468 162.371 30.214C162.371 30.2053 162.364 30.2015 162.371 30.1915C162.424 29.878 162.145 29.8078 161.941 30.0761L157.495 41.3699C157.104 42.0005 156.668 42.4268 156.186 42.6437C155.705 42.8593 155.148 42.9697 154.515 42.9697C154.034 42.9697 153.65 42.8405 153.372 42.5848C153.086 42.329 152.86 41.9967 152.702 41.5943C152.544 41.1906 152.439 40.748 152.386 40.2628C152.334 39.7801 152.303 39.3087 152.303 38.8549C152.303 38.6593 152.318 38.3772 152.349 38.0123C152.379 37.6488 152.424 37.2325 152.484 36.7624C152.544 36.2909 152.612 35.7932 152.695 35.2704C152.762 34.7476 152.838 34.2273 152.913 33.7107C153.071 32.5886 153.259 31.3813 153.477 30.105C153.477 30.0999 153.469 30.0987 153.477 30.0949C153.53 29.7765 153.191 29.7965 152.98 30.0874C152.853 30.2868 152.717 30.5287 152.567 30.8234C152.334 31.2797 152.003 31.9467 151.589 32.8281C151.168 33.7107 150.626 34.8554 149.971 36.2609C149.317 37.6676 148.475 39.3915 147.435 41.4301C147.134 42.0306 146.781 42.4381 146.382 42.65C145.983 42.8631 145.547 42.9684 145.066 42.9684C144.449 42.9684 143.952 42.8405 143.576 42.5835C143.2 42.3277 142.907 41.9817 142.704 41.5492C142.568 41.252 142.47 40.916 142.395 40.5637C142.388 40.5499 142.38 40.5386 142.373 40.5098C142.29 40.1838 142.132 40.3004 141.899 40.5098L141.906 40.4872C141.733 40.6414 141.568 40.8007 141.387 40.9511C140.665 41.5467 139.889 42.0507 139.061 42.4631C138.234 42.8756 137.406 43.0812 136.579 43.0812C135.578 43.0812 134.743 42.7628 134.081 42.1271C133.48 41.5617 132.967 40.753 132.516 39.73C132.508 39.7199 132.501 39.7199 132.493 39.7062C132.343 39.3664 132.117 39.6109 131.906 39.8303V39.8177C131.635 40.0873 131.342 40.3594 131.004 40.6364C130.477 41.0702 129.898 41.4627 129.266 41.8124C128.634 42.1647 127.98 42.4519 127.302 42.6775C126.618 42.902 125.932 43.0148 125.248 43.0148C124.533 43.0148 123.826 42.8656 123.141 42.5685C122.457 42.2713 121.855 41.8438 121.328 41.2871C121.11 41.0627 120.922 40.8132 120.742 40.5499C120.742 40.5437 120.734 40.5462 120.727 40.5399C120.561 40.3042 120.358 40.3606 120.177 40.5399V40.5361C119.169 41.5266 118.311 42.3064 117.604 42.8568C117.468 42.9458 117.363 43.0148 117.288 43.0587C115.843 43.9965 114.798 44.6835 114.151 45.1223C113.744 45.3944 113.466 45.8859 113.316 46.5967C113.165 47.3076 113 48.6366 112.819 50.5874C112.744 51.1504 112.691 51.5841 112.654 51.8876C112.563 52.5771 112.481 53.2529 112.398 53.9174C112.315 54.5831 112.157 55.3341 111.947 56.1729C111.727 57.0116 111.471 57.7802 111.186 58.4848C110.9 59.1856 110.531 59.8877 110.072 60.5911C109.613 61.2919 109.094 61.8837 108.523 62.3689C107.951 62.8516 107.266 63.2452 106.469 63.5461C105.672 63.8483 104.799 64 103.85 64C103.083 64 102.375 63.9122 101.729 63.7392C101.082 63.5649 100.487 63.3017 99.9382 62.9456C99.3891 62.5895 98.9453 62.0968 98.6067 61.4612C98.2682 60.8268 98.0651 60.0858 97.9899 59.2395C97.862 57.6535 98.2983 55.9698 99.2913 54.1857C99.863 53.1902 100.262 52.4944 100.48 52.1019C100.698 51.7083 101.052 51.1541 101.541 50.437C102.029 49.7186 102.526 49.0729 103.037 48.4987C104.091 47.3051 104.964 46.3498 105.649 45.6314C106.243 45.0045 106.95 44.3312 107.748 43.6166C107.973 43.411 108.116 43.1828 108.154 42.9684L108.493 40.9536C108.53 40.6966 108.372 40.7806 108.177 40.9536L108.199 40.926C106.634 42.3102 105.115 43.0148 103.624 43.0148C102.458 43.0148 101.375 42.6587 100.39 41.9479C99.7577 41.494 99.2386 40.9599 98.8098 40.3631C98.8023 40.3556 98.7873 40.3531 98.7798 40.3405C98.6293 40.1387 98.4563 40.2051 98.2231 40.4195V40.402C98.02 40.585 97.8244 40.7718 97.6062 40.9486C96.8828 41.5454 96.108 42.0494 95.2805 42.4606C94.4531 42.8744 93.6256 43.0787 92.7981 43.0787C91.8052 43.0787 90.9702 42.7615 90.2994 42.1271C89.7051 41.563 89.1936 40.758 88.7423 39.74C88.7347 39.73 88.7272 39.7275 88.7197 39.7112C88.5617 39.3689 88.4263 39.5231 88.2006 39.7576L88.2157 39.73C87.9223 40.0284 87.6064 40.3293 87.2302 40.6352C86.6961 41.069 86.1169 41.4614 85.4925 41.8124C84.8607 42.1635 84.2062 42.4506 83.5217 42.6763C82.8434 42.9007 82.1588 43.0135 81.4743 43.0135C80.7521 43.0135 80.045 42.8643 79.368 42.5685C78.6834 42.2701 78.0741 41.8425 77.5476 41.2871C77.3821 41.1116 77.2316 40.921 77.0887 40.7229C77.0887 40.7192 77.0812 40.7229 77.0812 40.7192C76.9382 40.5324 76.69 40.5926 76.4417 40.7756V40.7706C76.1183 41.005 75.786 41.2282 75.44 41.4388C74.7103 41.8864 73.9092 42.2538 73.0366 42.5396C72.1652 42.8242 71.1785 42.9684 70.0802 42.9684C69.5386 42.9684 69.0835 42.7941 68.7162 42.4468C68.3463 42.0996 68.0492 41.6131 67.8248 40.9925C67.5978 40.3719 67.4373 39.6397 67.3396 38.7947C67.2405 37.9497 67.1916 37.0332 67.1916 36.0402C67.1916 35.0798 67.2255 34.0618 67.2932 32.9873C67.3546 32.0332 67.4373 31.0678 67.5402 30.0962C67.5389 29.7527 67.2969 29.6925 67.0549 30.1902L62.6556 41.3686C62.2644 41.9993 61.8293 42.4255 61.3479 42.6424C60.8665 42.8593 60.3098 42.9684 59.6779 42.9684C59.1965 42.9684 58.8116 42.8393 58.527 42.5835C58.2424 42.3277 58.0179 41.9955 57.86 41.5918C57.702 41.1893 57.5967 40.7468 57.5465 40.2616C57.4914 39.7789 57.465 39.3075 57.465 38.8536C57.465 38.6568 57.4813 38.3759 57.5114 38.0111C57.5403 37.6475 57.5867 37.2313 57.6456 36.7611C57.7083 36.2897 57.7735 35.792 57.8499 35.2691C57.9252 34.7463 57.9991 34.226 58.0744 33.7095C58.2248 32.6187 58.4079 31.4415 58.616 30.2028C58.6737 29.779 58.4655 29.7201 58.0556 30.2554C58.0393 30.2767 58.0242 30.2918 58.0079 30.3068C57.9176 30.4598 57.8249 30.629 57.7258 30.8234C57.4914 31.2785 57.1641 31.9467 56.7441 32.8281C56.3229 33.7107 55.785 34.8554 55.1306 36.2609C54.4761 37.6676 53.6286 39.3915 52.5917 41.4288C52.2896 42.0306 51.9398 42.4368 51.5423 42.6487C51.1437 42.8631 50.7036 42.9684 50.2221 42.9684C49.6041 42.9684 49.1101 42.8393 48.734 42.5835C48.3553 42.3277 48.0657 41.9817 47.8639 41.5479C47.662 41.1154 47.5253 40.6251 47.4576 40.0748C47.3899 39.5244 47.3561 38.9552 47.3561 38.3697C47.3561 37.7465 47.3924 37.0081 47.4689 36.1568C47.5441 35.3042 47.6407 34.4078 47.7623 33.4637C47.8513 32.7717 47.9704 32.0056 48.1196 31.1681C48.2701 30.2868 48.1848 29.8479 47.5028 29.1534H47.5078C47.3034 28.9528 47.1041 28.7609 46.8935 28.5516C46.1174 27.7818 45.3551 27.1286 44.6029 26.592C44.1553 26.2735 43.7503 25.9889 43.3779 25.7319C42.6633 25.2454 42.6395 25.7507 42.8601 26.3349C42.8614 26.3412 42.8614 26.3462 42.8639 26.3525C43.1122 26.9681 43.3153 27.6075 43.4645 28.2695C43.6814 29.2436 43.7904 30.3419 43.7904 31.5681C43.7904 32.4595 43.6926 33.3584 43.4983 34.2636C43.3027 35.1701 43.0206 36.0465 42.6508 36.8927C42.2822 37.7378 41.8321 38.5326 41.2967 39.2736C40.7626 40.0133 40.1546 40.6552 39.47 41.1981C38.7842 41.7435 38.0357 42.1748 37.2246 42.4895C36.4121 42.8079 35.547 42.9671 34.628 42.9671C33.3053 42.9671 32.1732 42.6763 31.2329 42.0933C30.2913 41.5128 29.5215 40.7543 28.9197 39.8165C28.3192 38.8799 27.8779 37.8218 27.5995 36.6432C27.3225 35.4635 27.1833 34.2712 27.1833 33.0625C27.1833 31.0678 27.4303 29.349 27.928 27.9046C28.4233 26.4628 29.1341 25.2091 30.0581 24.1421C30.9834 23.079 32.1155 22.239 33.4558 21.6284C34.796 21.0166 36.2993 20.7106 37.9693 20.7106C39.3986 20.7106 40.7376 20.9326 41.9863 21.3789C43.2338 21.8252 44.4023 22.422 45.493 23.1705C46.4684 23.8375 47.3761 24.6662 48.2287 25.6416C48.2538 25.6642 48.2776 25.6843 48.3064 25.7169C48.9596 26.4302 49.1076 26.0503 49.2492 25.3959L49.2518 25.3997C49.3119 25.1288 49.3721 24.8555 49.4335 24.6023C49.6141 23.855 49.7796 23.2457 49.93 22.7718C50.0792 22.2828 50.2221 21.8942 50.3588 21.6058C50.493 21.3149 50.6472 21.0905 50.8214 20.93C50.992 20.7696 51.2001 20.6643 51.4395 20.6103C51.6815 20.5564 51.9887 20.5301 52.3648 20.5301C52.9365 20.5301 53.3841 20.5489 53.7088 20.5865C54.031 20.6254 54.2718 20.7157 54.4297 20.8623C54.5889 21.0078 54.6817 21.2146 54.7118 21.4905C54.7407 21.765 54.7557 22.1387 54.7557 22.6113C54.7557 22.8721 54.7457 23.168 54.7218 23.504C54.6993 23.84 54.6654 24.1986 54.6215 24.5797C54.5902 24.9608 54.5451 25.3495 54.4849 25.7444C54.3796 26.5092 54.3206 26.9054 54.3056 26.9342C54.1213 27.8432 53.9307 28.8475 53.7351 29.9395C53.6549 30.4146 53.9445 30.6127 54.2191 30.046C54.2993 29.8843 54.3883 29.7 54.4974 29.4756C54.8648 28.7133 55.2647 27.9573 55.6935 27.2101C56.1223 26.4628 56.5849 25.6805 57.0814 24.8656C57.5779 24.0481 58.0518 23.3297 58.5019 22.7041C58.9407 22.0785 59.4033 21.5594 59.891 21.1469C60.38 20.7357 60.963 20.5301 61.64 20.5301C62.2732 20.5301 62.8135 20.7157 63.2649 21.0905C63.7175 21.4641 63.9419 21.9945 63.9419 22.6803C63.9419 23.2746 63.9043 23.84 63.8303 24.3728C63.7388 25.0599 63.6498 25.5764 63.5595 25.9275C63.4542 26.3262 63.3326 26.8126 63.1959 27.3919C63.0906 27.8959 62.9038 28.6205 62.633 29.5659C62.6041 29.6624 62.5766 29.794 62.5477 29.9432L62.559 29.9319C62.4738 30.4134 62.7671 30.6152 63.043 30.0448C63.0693 29.9934 63.0956 29.9595 63.1219 29.9332C63.1909 29.799 63.2674 29.6549 63.3539 29.4856C63.7451 28.7321 64.1701 27.9799 64.6302 27.2339C65.0866 26.4854 65.578 25.7018 66.0971 24.8781C66.6149 24.0544 67.1001 23.3297 67.5527 22.7041C67.9877 22.0948 68.424 21.5795 68.8603 21.1607C69.2966 20.742 69.8295 20.5314 70.4639 20.5314C71.1685 20.5314 71.7678 20.7169 72.2567 21.093C72.7457 21.4641 72.9889 21.9957 72.9889 22.6815C72.9889 23.7334 72.9375 24.7339 72.8322 25.6792C72.7269 26.6233 72.5689 27.6689 72.3583 28.8111C72.1464 29.9558 71.9884 30.9964 71.8831 31.9354C71.7803 32.8732 71.7264 33.8675 71.7264 34.9193C71.7264 35.7431 71.8317 36.4151 72.0411 36.9329C72.253 37.4519 72.5075 37.7114 72.8096 37.7114C73.1256 37.7114 73.4553 37.6425 73.8026 37.5046C74.1474 37.3679 74.501 37.1924 74.862 36.978C75.0413 36.8739 75.2143 36.7611 75.3874 36.6395C75.613 36.4753 75.786 36.2834 75.8387 35.7493V35.7393C75.8914 34.8667 76.0418 33.9753 76.2838 33.0663C76.6072 31.8765 77.0962 30.5889 77.7657 29.2048C78.4277 27.8194 79.1423 26.6208 79.9096 25.614C80.6694 24.6035 81.5044 23.7246 82.4146 22.9711C83.3261 22.2201 84.2814 21.6196 85.2894 21.1758C86.2975 20.7332 87.3205 20.5088 88.3661 20.5088C88.7122 20.5088 88.983 20.579 89.1786 20.7157C89.3741 20.8523 89.5396 21.009 89.6675 21.1846C89.7954 21.3613 89.9233 21.5318 90.0436 21.6998C90.164 21.8678 90.3145 21.9895 90.4962 22.0672C90.6768 22.1437 90.8649 22.1938 91.0529 22.2151C91.241 22.2377 91.4366 22.2502 91.6321 22.2502C91.7976 22.2502 91.9707 22.2465 92.1437 22.2377C92.3167 22.2302 92.4897 22.2277 92.6552 22.2277C92.8809 22.2277 93.0915 22.249 93.2871 22.2954C93.4902 22.3418 93.6632 22.4408 93.8137 22.5925C93.9641 22.7455 94.077 22.9599 94.1597 23.2344C94.2424 23.5077 94.2876 23.8826 94.2876 24.3553C94.2876 25.0774 94.2124 25.8798 94.0619 26.7587C93.9115 27.6413 93.7384 28.5428 93.5429 29.4656C93.3473 30.3908 93.1291 31.4427 92.8809 32.625C92.6326 33.8073 92.5048 34.804 92.5048 35.6152C92.5048 36.3072 92.5725 36.8489 92.7003 37.2375C92.8282 37.6299 93.099 37.8243 93.5203 37.8243C93.8362 37.8243 94.1672 37.7453 94.5133 37.5886C94.8593 37.4306 95.2128 37.2237 95.5664 36.9692C95.92 36.7147 96.2735 36.4289 96.6271 36.1054C96.8603 35.891 97.0709 35.6653 97.289 35.4422C97.4245 35.2691 97.5298 35.0472 97.5824 34.7388C97.59 34.715 97.59 34.7024 97.5975 34.6836C97.7028 34.0392 97.862 33.3722 98.1027 32.6789C98.8851 30.3219 99.6674 28.3773 100.465 26.8427C101.262 25.3094 102.293 23.9754 103.557 22.8433C105.393 21.1958 107.176 20.3721 108.906 20.3721C109.689 20.3721 110.26 20.5928 110.621 21.0354C110.667 21.0817 110.734 21.1695 110.824 21.2999C110.915 21.4303 110.982 21.5093 111.013 21.5406C111.058 21.5695 111.118 21.6321 111.208 21.7237C111.298 21.8139 111.381 21.8729 111.456 21.8942C111.532 21.918 111.629 21.9518 111.75 21.9995C111.87 22.0446 112.006 22.0735 112.157 22.0898C112.308 22.1048 112.488 22.1136 112.684 22.1136L113.677 22.0898C114.354 22.0898 114.82 22.2954 115.076 22.7041C115.166 22.8696 115.264 23.0903 115.369 23.3636C115.55 23.8337 115.572 25.3884 115.437 28.0275C115.392 28.8462 115.196 29.8592 114.858 31.0691C114.519 32.2777 114.301 33.6205 114.196 35.0961C114.098 36.4652 113.948 38.218 113.744 40.3456C113.722 40.6377 113.805 40.7769 114.053 40.6327C114.391 40.4208 114.73 40.1876 115.099 39.9093C116.422 38.91 117.874 37.2639 119.463 34.9795C119.613 34.7551 119.779 34.3213 119.854 33.9815V33.979C119.914 33.6769 119.982 33.3722 120.065 33.0663C120.388 31.8765 120.877 30.5889 121.539 29.2035C122.209 27.8181 122.923 26.6208 123.683 25.6128C124.45 24.6035 125.285 23.7234 126.195 22.9699C127.099 22.2189 128.062 21.6184 129.07 21.1745C130.071 20.732 131.094 20.5088 132.139 20.5088C132.493 20.5088 132.764 20.5777 132.959 20.7144C133.155 20.8511 133.32 21.009 133.448 21.1846C133.576 21.3601 133.698 21.5318 133.826 21.6986C133.946 21.8678 134.097 21.9895 134.277 22.0659C134.458 22.1424 134.646 22.1926 134.834 22.2151C135.022 22.2364 135.217 22.249 135.413 22.249C135.578 22.249 135.751 22.2452 135.924 22.2364C136.098 22.2289 136.263 22.2264 136.429 22.2264C136.662 22.2264 136.872 22.2477 137.068 22.2954C137.264 22.3405 137.437 22.4396 137.587 22.5913C137.737 22.7455 137.858 22.9586 137.941 23.2344C138.023 23.5077 138.061 23.8814 138.061 24.3553C138.061 25.0774 137.986 25.8786 137.835 26.7587C137.685 27.6413 137.512 28.5428 137.324 29.4656C137.128 30.3896 136.91 31.4427 136.654 32.625C136.413 33.8073 136.286 34.8027 136.286 35.6152C136.286 36.306 136.346 36.8476 136.474 37.2375C136.602 37.6287 136.88 37.823 137.301 37.823C137.617 37.823 137.948 37.744 138.294 37.5873C138.64 37.4293 138.986 37.2225 139.34 36.968C139.693 36.7147 140.047 36.4276 140.4 36.1054C140.755 35.7819 141.094 35.4484 141.41 35.1049C141.695 34.7839 141.996 34.4417 142.29 34.0894C142.448 33.88 142.598 33.5076 142.651 33.1002C142.658 33.0914 142.658 33.0914 142.658 33.0851C142.779 32.2338 142.929 31.2885 143.132 30.2354C143.365 29.0267 143.569 27.9736 143.742 27.0734C143.922 26.1732 144.095 25.3495 144.276 24.6023C144.456 23.8563 144.622 23.2457 144.772 22.7731C144.923 22.2841 145.066 21.8942 145.201 21.6058C145.336 21.3149 145.487 21.0918 145.667 20.93C145.833 20.7708 146.043 20.6643 146.284 20.6116C146.525 20.5577 146.833 20.5314 147.209 20.5314C147.781 20.5314 148.226 20.5502 148.55 20.5878C148.873 20.6266 149.114 20.7169 149.272 20.8623C149.43 21.0078 149.528 21.2159 149.558 21.4917C149.58 21.7663 149.603 22.1387 149.603 22.6126C149.603 22.8721 149.588 23.1692 149.565 23.504C149.543 23.8412 149.513 24.1998 149.467 24.5797C149.437 24.9608 149.385 25.3495 149.332 25.7457C149.227 26.5105 149.167 26.9054 149.152 26.9355C148.971 27.8068 148.79 28.7685 148.602 29.8103C148.535 30.2115 148.655 30.8785 148.948 30.2842C149.046 30.0849 149.174 29.8216 149.34 29.4756C149.708 28.7133 150.107 27.9585 150.536 27.2101C150.964 26.4628 151.431 25.6805 151.927 24.8668C152.424 24.0494 152.898 23.3297 153.342 22.7041C153.785 22.0785 154.244 21.5607 154.733 21.1482C155.223 20.7357 155.81 20.5314 156.487 20.5314C157.119 20.5314 157.661 20.7169 158.112 21.0918C158.563 21.4641 158.789 21.9957 158.789 22.6803C158.789 23.2758 158.744 23.8412 158.669 24.3728C158.578 25.0599 158.488 25.5777 158.405 25.9275C158.3 26.3262 158.172 26.8139 158.037 27.3919C157.932 27.8971 157.751 28.6218 157.48 29.5659C157.45 29.6473 157.428 29.7489 157.405 29.8668C157.36 30.2705 157.48 30.8534 157.758 30.2817C157.796 30.2053 157.826 30.1564 157.864 30.13C157.954 29.9533 158.059 29.7489 158.195 29.4869C158.586 28.7321 159.015 27.9811 159.474 27.2339C159.932 26.4867 160.421 25.7018 160.941 24.8781C161.46 24.0544 161.941 23.331 162.394 22.7054C162.83 22.096 163.266 21.5795 163.703 21.1607C164.139 20.742 164.673 20.5326 165.305 20.5326C166.012 20.5326 166.614 20.7182 167.095 21.093C167.592 21.4654 167.832 21.997 167.832 22.6815C167.832 23.7347 167.78 24.7339 167.674 25.6792C167.569 26.6233 167.411 27.6689 167.2 28.8123C166.99 29.957 166.832 30.9976 166.727 31.9354C166.621 32.8745 166.569 33.8675 166.569 34.9206C166.569 35.7431 166.674 36.4151 166.885 36.9329C167.095 37.4532 167.351 37.7127 167.652 37.7127C167.968 37.7127 168.299 37.6437 168.645 37.5058C168.991 37.3679 169.344 37.1924 169.707 36.9793C170.068 36.7649 170.421 36.5179 170.767 36.2358C171.113 35.9537 171.444 35.6603 171.76 35.3557C172.332 34.8103 172.896 34.1947 173.46 33.5402C173.596 33.3559 173.754 33.1679 173.949 32.976C175.898 31.0164 176.567 36.6019 174.333 38.3483C173.671 38.8624 173.009 39.394 172.355 39.9444ZM107.876 48.9713C106.905 49.7324 105.95 50.8745 105.01 52.4079C103.985 54.0779 103.173 55.7729 102.571 57.4956C102.075 58.9311 102.33 59.6482 103.338 59.6482C103.699 59.6482 104.023 59.6031 104.301 59.5116C104.581 59.4213 104.837 59.2596 105.077 59.0251C105.318 58.7907 105.529 58.5387 105.709 58.2666C105.89 57.9946 106.085 57.6021 106.288 57.0868C106.492 56.5741 106.672 56.0713 106.838 55.5811C107.003 55.0884 107.199 54.4364 107.424 53.6215C107.56 53.1827 107.658 52.7025 107.725 52.1797C107.785 51.6556 107.868 51.0099 107.958 50.2401C108.011 49.8327 108.049 49.5092 108.079 49.2584C108.116 48.9412 108.041 48.851 107.876 48.9713ZM39.2995 28.0451C39.1942 27.4483 39.0362 26.9305 38.8268 26.4904C38.615 26.0541 38.3454 25.7068 38.0132 25.4485C37.6834 25.1928 37.2835 25.0649 36.8171 25.0649C36.2002 25.0649 35.6147 25.3282 35.0568 25.8573C34.5002 26.3876 34.0125 27.0621 33.5899 27.8858C33.1699 28.7083 32.839 29.6185 32.5982 30.6177C32.3575 31.6132 32.2359 32.7378 32.2359 33.9928C32.2359 34.6272 32.2973 35.2253 32.4164 35.7844C32.5381 36.3424 32.7261 36.8288 32.9806 37.2463C33.2364 37.6613 33.5749 37.9923 33.9962 38.2418C34.4174 38.4925 34.9227 38.6166 35.5094 38.6166C36.0197 38.6166 36.5162 38.3571 36.9976 37.8343C37.4791 37.3128 37.9003 36.657 38.2614 35.8622C38.6225 35.0698 38.9108 34.1107 39.1302 32.9848C39.3484 31.8602 39.4562 30.8585 39.4575 29.9821C39.4575 29.2888 39.4048 28.6406 39.2995 28.0451ZM88.6821 24.8743C88.148 24.9094 87.6289 25.0536 87.1174 25.3207C86.5306 25.6278 85.974 26.0441 85.4549 26.5681C84.9359 27.091 84.462 27.6902 84.0257 28.3648C83.5894 29.0393 83.1606 29.8705 82.7381 30.8585C82.3168 31.8477 82.0159 32.7153 81.8429 33.4663C81.6699 34.2135 81.5871 34.9181 81.5871 35.5776C81.5871 35.9675 81.6097 36.3449 81.6624 36.7097C81.715 37.077 81.8128 37.4043 81.9482 37.6926C82.0836 37.981 82.2642 38.2142 82.4898 38.3935C82.7155 38.5728 83.0026 38.663 83.3486 38.663C83.9053 38.663 84.4168 38.4186 84.8607 37.9321C85.3195 37.4444 85.7107 36.8601 86.0417 36.1756C86.3727 35.4898 86.636 34.7839 86.8391 34.053C87.0497 33.3246 87.1776 32.7153 87.2378 32.2288L88.81 25.3382C88.8777 25.0662 88.8852 24.8731 88.6821 24.8743ZM109.982 24.7427C108.327 24.838 106.868 26.0014 105.596 28.2594C104.166 30.7669 103.384 32.467 103.248 33.3584C102.962 35.2779 103.098 36.7285 103.654 37.7102C104.015 38.3446 104.491 38.663 105.077 38.663C106.1 38.663 106.95 37.8393 107.627 36.1932C108.154 34.893 108.447 33.5854 108.508 32.2714L110.095 25.2091C110.14 24.9985 110.163 24.7602 109.982 24.7427ZM132.177 24.9007C131.741 24.9621 131.312 25.1 130.891 25.3207C130.304 25.6278 129.755 26.0441 129.236 26.5681C128.717 27.091 128.243 27.6902 127.799 28.3648C127.37 29.0393 126.934 29.8705 126.513 30.8585C126.091 31.8477 125.797 32.7153 125.624 33.4663C125.451 34.2135 125.368 34.9181 125.368 35.5776C125.368 35.9675 125.391 36.3449 125.443 36.7097C125.496 37.077 125.594 37.4043 125.722 37.6926C125.864 37.981 126.046 38.2142 126.272 38.3935C126.498 38.5728 126.783 38.663 127.129 38.663C127.686 38.663 128.19 38.4186 128.641 37.9321C129.093 37.4444 129.484 36.8601 129.815 36.1756C130.146 35.4898 130.417 34.7839 130.62 34.053C130.823 33.3246 130.958 32.7153 131.019 32.2288L132.553 25.4924C132.628 25.1715 132.681 24.8643 132.177 24.9007ZM27.4015 22.437C26.332 23.5679 24.983 24.5459 23.3544 25.3696C21.8423 26.1343 20.0746 26.6797 18.0748 27.0233C18.0635 27.027 18.0585 27.0358 18.046 27.0383C17.7463 27.091 17.5997 27.274 17.5984 27.62C17.5658 28.4375 17.537 29.2135 17.5144 29.9169C17.5006 30.2792 17.4868 30.6416 17.473 31.0064C17.4592 31.3687 17.4492 31.701 17.4417 32.0006C17.4342 32.3003 17.4279 32.5636 17.4204 32.7867C17.4141 33.0099 17.4116 33.1641 17.4116 33.2469C17.3828 34.2248 17.2687 35.2391 17.0656 36.2897C16.8637 37.3403 16.5703 38.3672 16.1867 39.3689C15.9159 40.076 15.5874 40.7493 15.2326 41.405C14.5643 42.8142 12.9946 43.1389 11.8136 42.5885C10.7316 42.0858 10.4458 40.5775 10.8733 39.419C10.8984 39.3626 10.9272 39.31 10.951 39.251C11.2858 38.4624 11.5491 37.5685 11.7434 36.5705C11.9377 35.57 12.0844 34.5683 12.181 33.5615C12.2775 32.556 12.3414 31.5957 12.369 30.6804C12.3966 29.7652 12.4092 28.9854 12.4092 28.3434V27.8695C12.4092 27.6263 12.3251 27.3267 12.0431 27.2113C12.0405 27.2088 12.0393 27.2076 12.038 27.2076C11.0752 26.8176 10.2928 26.4691 9.71234 26.1657C9.05789 25.8222 8.56516 25.4924 8.23543 25.1777C7.90444 24.8618 7.69506 24.5296 7.60479 24.1798C7.51452 23.83 7.47064 23.4212 7.47064 22.9548C7.47064 22.6966 7.47691 22.4433 7.4907 22.1913C7.50324 21.9418 7.54211 21.7187 7.60354 21.5256C7.66623 21.3325 7.75524 21.1733 7.8731 21.0529C7.98844 20.9313 8.15143 20.8699 8.35829 20.8699C8.49621 20.8699 8.62284 20.8987 8.73943 20.9564C8.85603 21.0153 9.00523 21.0943 9.18326 21.1958C9.63837 21.4579 10.0509 21.671 10.4232 21.839C10.7956 22.007 11.1128 22.1399 11.3736 22.2415C11.509 22.2929 11.6243 22.323 11.7472 22.3631C12.0757 22.4345 12.2349 22.2415 12.2035 21.9619L12.0757 20.8022L10.8069 15.3559C10.8069 15.2995 10.8044 15.2531 10.7968 15.218C10.7906 15.1829 10.7868 15.1152 10.7868 15.0161C10.7868 14.6651 10.8595 14.378 11.0062 14.1535C11.1516 13.9291 11.3309 13.7511 11.5466 13.6169C11.7635 13.4828 12.0017 13.3925 12.2662 13.3436C12.5295 13.2947 12.7865 13.2697 13.036 13.2697C13.8635 13.2697 14.5556 13.4778 15.116 13.894C15.6764 14.3103 16.1315 14.8356 16.4813 15.47C16.8324 16.1044 17.0969 16.8027 17.28 17.5637C17.4617 18.326 17.5921 19.0557 17.6686 19.754C17.7463 20.4511 17.7877 21.073 17.7952 21.6146C17.7965 21.7813 17.799 21.9255 17.8003 22.0572C17.8216 22.1926 17.8993 22.2277 18.0761 22.2089C19.2897 21.9957 20.3554 21.681 21.2556 21.2548C22.2385 20.7884 23.0535 20.2367 23.6979 19.6011C24.3423 18.9667 24.8187 18.2646 25.1309 17.5023C25.4431 16.7388 25.5998 15.9552 25.5998 15.149C25.5998 14.3642 25.4506 13.5618 25.1522 12.7418C24.8538 11.9219 24.3373 11.1746 23.6013 10.5014C22.8654 9.82812 21.88 9.27396 20.645 8.84017C19.4088 8.40512 17.8554 8.18822 15.9823 8.18822C14.5756 8.18822 13.3018 8.45777 12.1597 8.99689C11.0187 9.53474 10.0007 10.2657 9.11054 11.1884C8.21913 12.1124 7.44557 13.1882 6.79111 14.4193C6.13666 15.6505 5.59755 16.9619 5.17252 18.3536C5.15748 18.4037 5.1462 18.4551 5.13115 18.5066C4.63216 20.0411 2.76282 20.1715 1.50908 19.6224C0.345601 19.1134 -0.295063 18.1217 0.133718 16.8566C0.304227 16.3501 0.481006 15.8486 0.685366 15.3659C1.43636 13.5743 2.34658 11.9394 3.41979 10.4625C4.49049 8.98435 5.69784 7.71681 7.04061 6.65739C8.38462 5.59672 9.84524 4.77803 11.425 4.1988C13.0047 3.62082 14.6847 3.33246 16.4663 3.33246C18.8145 3.33246 20.8744 3.6484 22.6422 4.28154C24.4113 4.91469 25.8832 5.7572 27.0579 6.80659C28.2314 7.85848 29.1153 9.06459 29.7109 10.4274C30.3051 11.7915 30.6023 13.2045 30.6023 14.6651C30.6023 16.0329 30.3365 17.3882 29.8049 18.7285C29.2733 20.0687 28.4709 21.3062 27.4015 22.437Z" fill="#FB635F"/>
</svg>
