<svg version="1.1" id="Warstwa_1" xmlns="http://www.w3.org/2000/svg" x="0" y="0" viewBox="0 0 454.6 181.8" xml:space="preserve"><style>.st2{fill:#c91618}.st3{fill:#7ead2a}.st4{fill:#37a6de}</style><path d="M435.1 94.9c-.6 0-1.3 0-1.9.1l15.5-37.5.1-.3.1-.3c2.1-5.9 1.7-12.4-1.2-17.8-2.8-5.4-7.8-9.3-13.6-10.9h-.2c-2.1-.5-4.2-.8-6.2-.8-6.5 0-12.4 2.6-16.5 7.1-4.1-4.4-10-7.1-16.5-7.1-2.1 0-4.1.3-6.2.8h-.2c-3.6.9-6.8 2.8-9.4 5.3-1.5-1-3.2-1.8-4.8-2.5-3.1-1.3-6.6-2.2-10-2.5-1.1-.1-2.2-.2-3.3-.2-2.1 0-4.3.2-6.5.6-4.5.8-8.1 2.3-11.1 3.9-.5-.2-.9-.5-1.4-.7l-.1-.1-.1-.1c-3.8-1.8-8.4-3-13.1-3.3-.9-.1-1.9-.1-2.8-.1-4.2 0-8.3.7-12.1 2.1-2.4.9-4.6 2-6.6 3.3-2 1.2-3.8 2.7-5.5 4.2l-.1.1-.1.1c-.8.7-1.5 1.5-2.2 2.3-7.4-8.2-18.1-13.1-30.4-13.1-6.4 0-12.3 1.3-17.6 3.6.6-2 .9-4.2.9-6.4C252 11.3 241.3.8 227.6.8c-13.5 0-24.5 10.7-24.5 23.9 0 1.6.2 3.1.5 4.6-2.4-.8-5-1.3-7.7-1.3-7.6 0-14.4 3.8-18.6 9.5-4.1-5.7-10.9-9.4-18.6-9.4-3.2 0-6.2.7-9 1.8-.9-11.3-10.7-20.2-22.6-20.2-12.2 0-22.4 9.6-22.7 21.4V33c-.3.2-.7.5-1 .7-6.4-3.9-14.1-6.1-22.5-6.1-7.2 0-13.8 1.6-19.5 4.5-4.2-3.2-9.7-4.9-16.5-4.9-4.1 0-7.9.9-11.4 2.5-2.9-1.3-6.2-2.1-9.7-2.1C11.6 27.6 1.4 37.2 1 49V88.4c.3 9.9 7.5 18.2 17 20.7-.1.7 0 1.5.1 2.2-9.8.8-17.5 9.1-17.5 19.1 0 3.7 1.1 7.3 3 10.3a21.2 21.2 0 00-3.4 11.5v.2c0 10.6 8.5 19 19.3 19H39c3.5 0 6.8-1 9.6-2.7 3.1 1.9 6.7 3 10.5 3h.4c3.4 0 6.5-.8 9.3-2.3 2.8 1.5 5.9 2.3 9.2 2.3h.4c4.1 0 7.9-1.2 11.2-3.4 3.2 2.1 7 3.4 11 3.4 4.2 0 8.1-1.3 11.3-3.5 4.4 2.4 9.5 3.8 14.9 3.8 5.5 0 10.5-1.1 14.9-3.1 3 1.8 6.5 2.9 10.2 2.9 4.8 0 9.1-1.7 12.5-4.4 3.3 2.6 7.5 4.1 12.1 4.1H196c3.5 0 6.8-1 9.6-2.7 4.3 2.1 9.1 3.2 14.1 3.2 2.1 0 4.2-.2 6.2-.6 1.6.4 3.3.7 5 .7 2.9 0 5.6-.6 8-1.7 2.2.9 4.7 1.4 7.2 1.4 3.2 0 6.2-.7 8.8-2.1 2.7 1.3 5.7 2.1 8.9 2.1 2.4 0 4.7-.4 6.9-1.2 2.1.8 4.4 1.2 6.8 1.2 10.8 0 19.6-8.5 19.6-19 3.5 3.8 8.2 6.3 13.5 7.2 1.4.2 2.9.4 4.3.4 6.1 0 11.6-2.1 16.3-5.5 4.2 6 10.3 9.9 17.2 11.1 1.4.2 2.8.3 4.1.3 3.8 0 7.5-.9 10.8-2.6 3.8 5 9.7 8.2 16.5 8.2.4 0 .7 0 1.1-.1 3.4 5.8 9.8 9.7 17 9.7 7.5 0 14.1-4.2 17.4-10.3 3.2-.6 6.2-1.7 9-3.3 3.2 2.1 7 3.4 11 3.4 10.8 0 19.6-8.5 19.6-19.1V114c-.3-10.5-9-19.1-19.8-19.1z" fill="#fff"/><path class="st2" d="M352.7 120.6c-6.9-1.2-11.3 5.1-12.5 10.8-1.4 7.1 1.7 18.3 10.4 19.8 6.9 1.2 11.3-5.1 12.5-10.8 1.4-7.1-1.8-18.3-10.4-19.8zM312.5 105.5c1-4.9-.7-10.5-6.6-11.5-8.5-1.4-16.8 7.5-18.2 14.8-1 4.9.8 10.6 6.6 11.5 8.5 1.5 16.7-7.4 18.2-14.8zM322.7 116c-8.6-1.4-15.9 8-17.4 15.1-1.1 5.7.6 13 7.5 14.1 8.7 1.5 15.9-8 17.4-15.1 1.1-5.7-.6-13-7.5-14.1zM377.4 107.3c-5.9-1-9.6 3.7-10.6 8.6-1.5 7.4 2.8 18.4 11.3 19.8 5.8 1 9.6-3.7 10.6-8.7 1.5-7.2-2.8-18.2-11.3-19.7zM362.4 102.8c3.6-3.4 7.6-8.2 10.5-12.5 1.4-2.1 2.6-4.3 3.7-6.6 1.2-2.4 2.1-4.8 2.8-7.2.8-2.6 1.2-5.3 1.4-7.8.1-2.9-.1-5.7-.6-8.3-.7-3.3-1.9-6.1-3.5-8.5-1-1.5-2.2-2.8-3.5-3.9-1.4-1.2-3.1-2.2-4.8-3-1.7-.7-3.7-1.2-5.7-1.4-1.8-.2-3.7-.1-5.6.3-3.4.6-5.9 1.9-8.7 3.5-1.9 1.1-3.6 2.4-5.3 4-.7-.7-1.4-1.3-2.1-1.9-.9-.7-1.8-1.4-2.7-2-1-.6-2-1.1-3.1-1.7-2.2-1-5.1-1.7-7.9-1.9-2.9-.2-5.8.2-8.5 1.1-1.4.5-2.7 1.1-3.9 1.9-1.2.7-2.3 1.6-3.3 2.5-1.8 1.7-3.3 3.8-4.4 6.3-1 2.1-1.6 4.3-1.9 6.7-.3 2.1-.2 4.3.1 6.5.2 2 .8 4 1.5 6 1.3 3.5 3.3 7 5.8 10.2 1.1 1.5 2.4 2.9 3.8 4.2 1.3 1.3 4.7 4.1 6.6 5.4 2.5 1.8 6.5 3.3 9.2 2.8 1.1-.1 1.9-.6 2.4-1.3 2-2.6-1.9-6.9-6.1-11.5-8.8-9.6-9.4-14.4-9.9-17.3v-.1c-.6-4.4 1.5-8.6 5-9.8 4.2-1.5 8-.3 11.2 3.7.4.5.8 1.1 1.2 1.6 1.5 2.2 3 4.3 6.7 4.7 3.8.4 5.7-2.1 8.1-5l.6-.7c1.9-2.3 6-5.9 11.4-3.6s6 11.3 3.2 18.1c-3.2 7.5-8.5 14.3-12.4 18-3.8 3.6-8.4 7.3-13.7 11.1-4.3 3.2-6.4 5.3-6.1 7.9.1.6.4 1.4 1.7 2 .8.3 1.9.5 3.2.5 3.1-.1 7.6-1.3 12.5-4.4 2.1-1.4 7.3-5 11.1-8.6z"/><path class="st3" d="M119.2 44.9V31.7c.1-3.7 3.6-6.7 7.6-6.7 4.1 0 7.6 2.9 7.6 6.7v13.2h5.7c3 0 5.4 2.7 5.4 6 0 3.1-2.4 5.8-5.4 6h-5.7v32.5c0 3.8-3.5 6.7-7.6 6.7-4 0-7.5-3-7.6-6.7V56.8h-4.1c-3-.1-5.4-2.8-5.4-6s2.4-6 5.4-6h4.1zM227.4 33.7c5.2 0 9.3-3.9 9.3-8.9s-4.1-8.8-9.3-8.8c-5.1 0-9.4 3.8-9.4 8.8 0 5 4.3 8.9 9.4 8.9zM227.3 43c-4 0-7.5 3-7.6 6.7v38.6c0 3.6-1.1 8-6.6 8h-.3c-3.8.1-7.1 2.7-7.1 6.7s3.2 6.9 7.1 6.9h3c14.3 0 19.1-8.6 19.1-22V49.7c-.1-3.8-3.5-6.7-7.6-6.7zM285.9 90.7c-5.1 3.4-11.5 4.5-17.4 4.5-14.5 0-26.4-10.5-26.4-26.4 0-15.9 11.9-26.1 26.4-26.1 14.4 0 25.9 10.6 25.9 26.5 0 2.7-2.3 4.7-4.7 4.7h-32.6c.8 5.8 7.1 8.3 12.5 8.3 3 0 5.6-.2 8.8-2.4 3.5-2.4 7.4-1.7 9.5.8 2.8 3.3 1.7 7.9-2 10.1zm-6.7-26.2c-.8-6.2-5-9.2-10.6-9.2s-10 2.8-11.3 9.2h21.9zM412.1 106.3c-1.4 3.4-4.9 5.3-9.5 4.2-3.7-.9-5.8-5.2-4.3-9.1l5.1-13-15.7-36.6c-1.4-3.9.8-8 4.4-9 4.8-1.2 8.2 1 9.4 4.3l9.5 24.7 9.7-24.7c1.2-3.4 4.7-5.5 9.4-4.3 3.7 1 5.8 5.1 4.4 9L417.6 93l-5.5 13.3zM107.2 68.8c0-15.9-11.9-26.1-26.6-26.1S54 52.9 54 68.8c0 15.9 11.8 26.4 26.5 26.4 4.6 0 8.9-1 12.7-2.9 1.4 1.9 3.7 3.1 6.3 3.1 4.1 0 7.6-2.9 7.6-6.7V70c0-.4.1-.8.1-1.2zM80.6 80.6c-6.2 0-11.4-4.9-11.4-11.8 0-6.8 5.2-11.5 11.4-11.5 6.1 0 11.1 4.4 11.4 10.9v1.2c-.3 6.6-5.4 11.2-11.4 11.2zM195.6 43.2c-4 0-7.5 3-7.6 6.7v20.8h-.1c-1.1 5.6-5.5 9.4-11 9.4s-10.1-4-11-9.8V50c0-3.8-3.5-6.7-7.6-6.7-4 0-7.5 3-7.6 6.7v17.5l.4 7.2v.1c2.7 12.2 13.1 20 25.8 20 4.5 0 8.7-1 12.4-2.9 1.4 1.8 3.7 3 6.2 3 4.1 0 7.6-2.9 7.6-6.7V49.9c0-3.8-3.4-6.7-7.5-6.7z"/><g><path class="st3" d="M53.9 50.7c-.5 3.8-4.2 5.6-7.5 5.6-1.1 0-2.7-.1-3.7-.1-8.5 0-11.4 6.6-11.6 19.4v12.6c0 3.8-3.5 6.8-7.7 6.8-4 0-7.5-3.1-7.7-6.8V49.5c.1-3.7 3.6-6.8 7.7-6.8 4.2 0 7.7 3 7.7 6.8v5.6c2.8-9.5 8.2-12.8 13.5-12.8 5 0 10.3 1.2 9.3 8.4z"/></g><g><path class="st4" d="M379.6 146.4c3 0 5.5 2.2 5.5 5.3 0 3.1-2.5 5.3-5.5 5.3s-5.5-2.2-5.5-5.3c0-3.1 2.5-5.3 5.5-5.3zM408.7 126.2c-8.6 0-15.6 6-15.6 15.3V162.7c.1 2.2 2.1 3.9 4.4 3.9 2.4 0 4.4-1.7 4.4-3.9v-7.1c2 .9 4.3 1.4 6.7 1.4 8.6 0 15.6-6.2 15.6-15.5.1-9.4-6.8-15.3-15.5-15.3zm0 22.2c-3.6 0-6.7-2.9-6.7-6.9s3.1-6.7 6.7-6.7c3.7 0 6.7 2.7 6.7 6.7.1 4-3 6.9-6.7 6.9zM439.4 152.6c0 2.2-2 3.9-4.4 3.9-2.4 0-4.4-1.8-4.4-3.9V114c.1-2.2 2.1-3.9 4.4-3.9 2.4 0 4.4 1.7 4.4 3.9v38.6z"/></g><g><path class="st4" d="M27.9 148.3h10.8c2 0 3.8 1.9 3.8 4.1 0 2.2-1.8 4.1-3.8 4.1H19.2c-2 0-4.2-1.3-4.2-3.8v-.2c0-1.4.5-2.9 1.8-4.3l12.3-13.4h-9.9c-2 0-3.8-1.9-3.8-4.1 0-2.2 1.8-4.1 3.8-4.1h18.5c2 0 4.2 1.3 4.2 3.8v.2c0 1.4-.5 2.9-1.8 4.3l-12.2 13.4zM77.3 144.4L82 129c.5-2 2.8-3.3 5.6-2.6 2.2.6 3.4 3.3 2.6 5.3l-7.6 21.6c-.8 2.2-2.5 3.5-4.7 3.5h-.4c-2.2 0-3.8-1.3-4.5-3.5l-4.9-15.9-4.7 15.9c-.7 2.2-2.3 3.5-4.5 3.5h-.4c-2.2 0-3.8-1.3-4.7-3.5L46 131.7c-.8-2.1.4-4.7 2.6-5.3 2.8-.8 5.1.6 5.6 2.6l4.7 15.4 4.3-14.5c.7-2.4 2.3-3.6 4.5-3.6h.5c2.2 0 3.8 1.2 4.5 3.6l4.6 14.5zM100.2 110.3c3 0 5.4 2.2 5.4 5.2 0 2.9-2.4 5.3-5.4 5.3-3 0-5.6-2.3-5.6-5.3s2.6-5.2 5.6-5.2zm4.5 42.6c0 2.2-2.1 4-4.5 4s-4.4-1.8-4.5-4v-22.6c.1-2.2 2.1-4 4.5-4s4.5 1.7 4.5 4v22.6zM136.7 154.4c-3 2-6.8 2.7-10.3 2.7-8.6 0-15.6-6.2-15.6-15.6s7-15.4 15.6-15.4c8.5 0 15.3 6.3 15.3 15.7 0 1.6-1.3 2.8-2.8 2.8h-19.3c.4 3.5 4.2 4.9 7.4 4.9 1.8 0 3.3-.1 5.2-1.4 2.1-1.4 4.4-1 5.6.4 1.7 1.9 1.1 4.6-1.1 5.9zm-4-15.5c-.4-3.7-2.9-5.4-6.3-5.4-3.3 0-5.9 1.7-6.7 5.4h13zM169.4 130.9c-.3 2.2-2.4 3.3-4.4 3.3-.6 0-1.6-.1-2.2-.1-5 0-6.7 3.8-6.8 11.3v7.4c0 2.2-2.1 4-4.5 4s-4.4-1.8-4.5-4v-22.6c.1-2.2 2.1-4 4.5-4s4.5 1.7 4.5 4v3.3c1.7-5.6 4.8-7.5 7.9-7.5 3 0 6.1.7 5.5 4.9zM184.9 148.3h10.8c2 0 3.8 1.9 3.8 4.1 0 2.2-1.8 4.1-3.8 4.1h-19.5c-2 0-4.2-1.3-4.2-3.8v-.2c0-1.4.5-2.9 1.8-4.3l12.3-13.4h-9.9c-2 0-3.8-1.9-3.8-4.1 0-2.2 1.8-4.1 3.8-4.1h18.5c2 0 4.2 1.3 4.2 3.8v.2c0 1.4-.5 2.9-1.8 4.3l-12.2 13.4zM250.3 144.7v8.1c0 2.2-2 4-4.5 4-2.4 0-4.4-1.8-4.5-4V114c.1-2.2 2.1-4 4.5-4s4.5 1.7 4.5 4v20.9l7-7c1.4-1.6 4-1.9 5.8-.5 1.7 1.3 2.1 3.9.6 5.7l-7 6.8 9.9 10.3c1.7 1.8 1.5 4.5-.3 5.8-1.6 1.3-4.6 1.2-5.9-.4l-10.1-10.9zM277.2 110.3c3 0 5.4 2.2 5.4 5.2 0 2.9-2.4 5.3-5.4 5.3s-5.6-2.3-5.6-5.3 2.6-5.2 5.6-5.2zm4.5 42.6c0 2.2-2 4-4.5 4-2.4 0-4.4-1.8-4.5-4v-22.6c.1-2.2 2.1-4 4.5-4s4.5 1.7 4.5 4v22.6z"/></g><path class="st4" d="M235.1 141.4c0-9.4-7-15.4-15.8-15.4-8.7 0-15.7 6-15.7 15.4s7 15.6 15.7 15.6c2.7 0 5.3-.6 7.6-1.8.8 1.1 2.2 1.8 3.7 1.8 2.4 0 4.4-1.7 4.4-3.9V143c.1-.5.1-1 .1-1.6zm-15.7 7c-3.7 0-6.7-2.9-6.7-7 0-4 3.1-6.8 6.7-6.8 3.7 0 6.8 2.8 6.8 6.8-.1 4.1-3.1 7-6.8 7z"/></svg>