<svg width="24" height="25" viewBox="0 0 24 25" fill="none" xmlns="http://www.w3.org/2000/svg">
<path d="M8 22.5H6.066C5.511 22.5 5.033 22.113 4.919 21.571C4.67 20.387 4.909 18.431 5.672 17.5H8V22.5ZM5.886 14.333L7.404 15.294L5.479 10.271L0.08 10.889L1.615 11.875C0.924 13.167 0 15.084 0 16.506C0 18.476 1.403 20.107 3.907 22.229C3.042 19.548 4.403 16.735 5.886 14.333ZM9 22.5H11V17.5H9V22.5ZM17.627 8.857L19.724 3.843L18.114 4.702C16.234 1.765 14.932 0.5 12.694 0.5C11.394 0.5 9.861 0.935 7.957 1.646C10.72 2.201 12.51 4.762 13.883 7.229L12.304 8.085L17.627 8.857ZM16.379 17.751V15.954L13.008 20.236L16.379 24.5V22.676C17.842 22.582 19.986 22.358 21.195 21.609C22.869 20.571 23.515 18.519 24 15.273C22.177 17.419 19.201 17.746 16.379 17.751ZM10.076 7.549L11.224 5.496C10.784 4.376 9.193 3.211 8.038 2.851C7.509 2.686 6.938 2.914 6.667 3.398L5.711 5.108L10.076 7.549ZM5.223 5.981L4.259 7.706L8.623 10.147L9.587 8.423L5.223 5.981ZM21.544 10.797L20.492 9.101L16.242 11.735L17.294 13.431L21.544 10.797ZM23.093 13.293L22.072 11.647L17.822 14.281L19.051 16.263C20.244 16.421 22.033 15.594 22.908 14.758C23.309 14.375 23.385 13.765 23.093 13.293Z" fill="#116858"/>
</svg>
