<svg width="21" height="16" viewBox="0 0 21 16" fill="none" xmlns="http://www.w3.org/2000/svg">
<path d="M10.5217 9.76333C7.62583 11.1575 4.26833 12.7792 3.45167 13.1717C1.91167 13.9125 0.5 11.9675 0.5 11.9675L7.80083 8.44583L10.5217 9.76333ZM17.13 15.5C16.5583 15.5 15.9692 15.3717 15.41 15.1008C13.7908 14.3167 12.9492 12.6 13.3283 11.0558C13.545 10.175 13.0817 10.055 12.3742 9.7125L0.55 3.99083C0.55 3.99083 1.96667 2.05 3.505 2.79417C4.45 3.25167 8.24583 5.08333 11.5167 6.67L12.3375 6.275C13.0458 5.93417 13.5092 5.815 13.295 4.93417C12.9192 3.38833 13.765 1.67333 15.3867 0.894167C15.9442 0.626667 16.5308 0.5 17.0983 0.5C19.0242 0.5 20.4692 1.91333 20.4692 3.6675C20.4692 4.98583 19.6475 6.2975 18.2917 6.97833C16.9375 7.65833 15.9875 7.12833 14.6417 7.7825L14.2217 7.98667L14.6817 8.21167C16.0258 8.86917 16.9767 8.34167 18.3292 9.025C19.6825 9.7075 20.5 11.0183 20.5 12.3333C20.5 14.09 19.0508 15.5 17.13 15.5ZM15.0008 4.82083C15.4083 5.6725 16.5642 5.96917 17.5775 5.48167C18.5917 4.995 19.085 3.90417 18.6783 3.05167C18.2708 2.2 17.115 1.9025 16.1008 2.39C15.0867 2.8775 14.5942 3.96833 15.0008 4.82083ZM11.965 7.84167C11.965 7.49667 11.6858 7.21667 11.34 7.21667C10.995 7.21667 10.715 7.49667 10.715 7.84167C10.715 8.18667 10.995 8.46667 11.34 8.46667C11.685 8.46667 11.965 8.18667 11.965 7.84167ZM17.6125 10.5192C16.6 10.0292 15.4425 10.3225 15.0333 11.1742C14.6242 12.0258 15.115 13.1175 16.1275 13.6067C17.14 14.0967 18.2967 13.8025 18.7058 12.9508C19.1158 12.1 18.625 11.0092 17.6125 10.5192Z" fill="#116858"/>
</svg>
