<svg width="21" height="20" viewBox="0 0 21 20" fill="none" xmlns="http://www.w3.org/2000/svg">
<path d="M4.66667 5.83333C6.9675 5.83333 8.83333 7.69917 8.83333 10C8.83333 12.3008 6.9675 14.1667 4.66667 14.1667C2.36583 14.1667 0.5 12.3008 0.5 10C0.5 7.69917 2.36583 5.83333 4.66667 5.83333ZM13.935 15.8875C13.8742 16.1383 13.8333 16.3967 13.8333 16.6667C13.8333 18.5075 15.3258 20 17.1667 20C19.0075 20 20.5 18.5075 20.5 16.6667C20.5 14.8258 19.0075 13.3333 17.1667 13.3333C16.1958 13.3333 15.33 13.755 14.7208 14.4175L10.1475 11.9783C9.95583 12.5083 9.69 13.0025 9.36167 13.4483L13.935 15.8875ZM20.5 3.33333C20.5 1.4925 19.0075 0 17.1667 0C15.3258 0 13.8333 1.4925 13.8333 3.33333C13.8333 3.60333 13.8742 3.86167 13.935 4.1125L9.36167 6.55167C9.69083 6.9975 9.95583 7.49083 10.1475 8.02167L14.7208 5.5825C15.33 6.245 16.1958 6.66667 17.1667 6.66667C19.0075 6.66667 20.5 5.17417 20.5 3.33333Z" fill="#116858"/>
</svg>
