<svg width="20" height="20" viewBox="0 0 20 20" fill="none" xmlns="http://www.w3.org/2000/svg">
<path d="M9.322 0.923C9.448 0.664 9.712 0.5 10 0.5C10.289 0.5 10.552 0.664 10.678 0.923C11.652 2.921 13.328 6.363 13.328 6.363C13.328 6.363 17.139 6.887 19.35 7.192C19.753 7.247 20 7.588 20 7.939C20 8.129 19.928 8.322 19.769 8.475C18.159 10.013 15.387 12.666 15.387 12.666C15.387 12.666 16.064 16.433 16.456 18.618C16.539 19.08 16.181 19.5 15.714 19.5C15.592 19.5 15.47 19.471 15.359 19.411C13.391 18.363 10 16.56 10 16.56C10 16.56 6.609 18.363 4.641 19.411C4.53 19.471 4.407 19.5 4.285 19.5C3.82 19.5 3.46 19.079 3.544 18.618C3.937 16.433 4.614 12.666 4.614 12.666C4.614 12.666 1.841 10.013 0.232 8.475C0.0720001 8.322 0 8.129 0 7.94C0 7.588 0.249 7.246 0.651 7.192C2.862 6.887 6.672 6.363 6.672 6.363C6.672 6.363 8.349 2.921 9.322 0.923Z" fill="#116858"/>
</svg>
