<svg width="21" height="20" viewBox="0 0 21 20" fill="none" xmlns="http://www.w3.org/2000/svg">
<path fill-rule="evenodd" clip-rule="evenodd" d="M11.9167 3.37837C11.6217 3.85171 11.0983 4.16671 10.5 4.16671C9.58 4.16671 8.83333 3.42004 8.83333 2.50004C8.83333 1.58004 9.58 0.833374 10.5 0.833374C11.1325 0.833374 11.6833 1.18671 11.9658 1.70587C14.1242 1.95171 15.6208 3.19421 15.4933 5.23837C15.3392 7.62087 12.7483 11.5875 10.4925 13.3134C10.4117 14.2075 9.90167 15.1734 8.9975 15.7367C9.825 17.0775 11.1108 17.6409 12.5125 17.4759C13.87 17.3167 15.1325 16.3375 15.8125 15.2317C15.1158 14.6975 14.6667 13.8592 14.6667 12.9167C14.6667 11.3067 15.9733 9.99921 17.5833 9.99921C19.1925 9.99921 20.5 11.3067 20.5 12.9167C20.5 14.53 19.1692 15.9175 17.3933 15.8259C16.4308 17.6025 14.3925 19.1667 12.1 19.1667C9.83917 19.1667 8.1075 17.9192 7.16667 15.8325C6.28917 15.3067 5.6425 14.2184 5.5125 13.3084C3.2 11.5267 0.5 7.33254 0.5 5.00587C0.5 3.02087 2.0625 1.93754 4.03333 1.70837C4.315 1.18754 4.86667 0.833374 5.5 0.833374C6.42 0.833374 7.16667 1.58004 7.16667 2.50004C7.16667 3.42004 6.42 4.16671 5.5 4.16671C4.90417 4.16671 4.38083 3.85337 4.08667 3.38254C2.37833 3.63171 1.96 4.45504 2.26167 5.65921C2.78917 7.79837 5.26583 11.3825 7.185 12.4267C7.81583 12.7734 8.17917 12.7775 8.81833 12.4284C11.09 11.1925 13.8025 6.84754 13.8333 5.04671C13.8517 3.97337 12.9758 3.52921 11.9167 3.37837ZM17.5833 14.1667C16.8933 14.1667 16.3333 13.605 16.3333 12.9167C16.3333 12.2267 16.8933 11.6667 17.5833 11.6667C18.2733 11.6667 18.8333 12.2267 18.8333 12.9167C18.8333 13.605 18.2733 14.1667 17.5833 14.1667Z" fill="#116858"/>
</svg>
