<svg width="117" height="80" viewBox="0 0 117 80" fill="none" xmlns="http://www.w3.org/2000/svg">
<path fill-rule="evenodd" clip-rule="evenodd" d="M98.7018 34.7613C96.9947 34.7613 95.6073 33.4852 95.6073 31.9131C95.6073 30.3398 96.9947 29.0663 98.7018 29.0663C100.412 29.0663 101.798 30.3398 101.798 31.9131C101.798 33.4852 100.412 34.7613 98.7018 34.7613ZM112.411 28.8047C110.853 29.0849 109.154 29.3661 107.898 28.0028C106.071 26.0154 105.834 25.3625 105.335 23.9926C104.903 22.805 104.275 21.0786 102.244 17.4762C100.821 14.9377 97.0951 12.8005 97.0951 12.8005C97.0951 12.8005 98.0759 6.7317 100.654 1.26647C101 0.540696 100.223 0.170898 98.8507 0.170898C95.5293 0.170898 88.712 2.33423 85.8359 6.85747C85.8359 6.85747 85.9651 6.58119 83.0368 5.27741C80.1503 3.99141 75.1019 2.65794 70.808 1.7849C70.4339 1.68763 69.823 1.56681 69.0493 1.44156C67.9113 4.19891 66.6735 7.51976 65.5135 11.2903C65.6773 11.2949 65.8432 11.3002 66.0116 11.306C70.1019 11.6872 77.0619 12.772 79.7244 16.4415C81.7653 19.2546 79.4902 22.5756 76.8745 21.4062C68.7734 17.7848 67.1676 17.3778 63.8073 17.4597L63.5807 17.4658C59.8291 17.5749 57.3739 19.1793 56.0315 21.2571C54.7954 23.1698 54.5031 25.4835 55.0126 27.4013C55.2027 28.1167 55.5035 28.7775 55.9093 29.341C57.2485 31.2032 59.1205 32.3327 61.2005 33.1533C62.7006 33.7451 64.3089 34.1758 65.9045 34.603C68.6762 35.345 71.409 36.0767 73.4669 37.6253C75.6325 39.2496 84.1082 45.7145 77.6296 55.9918C74.951 60.2372 69.6805 62.723 66.8907 63.7958C66.0138 64.1053 65.1014 64.3611 64.1906 64.5701C65.6555 69.5007 67.5978 74.2692 70.011 78.8462C70.3193 78.7838 70.6144 78.7218 70.8934 78.6621L70.9111 78.666C70.9183 78.6675 70.9253 78.6689 70.9322 78.6697C71.6512 78.517 72.3751 78.3422 73.1013 78.1507C73.2771 78.1058 73.4109 78.0702 73.4943 78.0466C73.4962 78.0461 73.4977 78.045 73.4992 78.044C73.5004 78.0432 73.5018 78.0423 73.5035 78.0416C83.2068 75.3911 93.3467 69.4345 99.7974 63.4093C101.032 62.2525 102.997 60.1334 105.809 56.4118C106.113 56.0081 105.039 55.6258 102.915 54.8701C101.731 54.449 100.222 53.9121 98.4437 53.1909C97.6301 52.8675 98.1207 51.8483 98.6189 52.0127C103.292 53.5688 107.832 53.6821 108.241 53.2741C109.714 51.8119 111.717 50.5627 113.426 49.8878C115.845 48.9293 115.954 45.1674 116.092 40.4229C116.147 38.515 116.207 36.4476 116.424 34.3402C117.068 27.9644 114.967 28.3434 112.487 28.7909L112.411 28.8047ZM11.4381 31.1557C11.3656 31.1557 11.2943 31.1502 11.2234 31.1419C10.4294 31.0513 9.75259 30.4656 9.59348 29.6605C9.3912 28.6437 10.0628 27.6731 11.0918 27.4745C12.1098 27.2762 13.1073 27.9278 13.3087 28.9412C13.3164 28.9797 13.3211 29.018 13.3258 29.0563L13.3277 29.0719C13.4466 30.0267 12.7837 30.9295 11.8071 31.1194C11.6835 31.1439 11.5597 31.1557 11.4381 31.1557ZM17.1537 26.5603C16.9106 25.6985 15.9779 23.6932 12.7252 23.6466C12.5971 23.6447 12.4702 23.6435 12.3452 23.6435C7.7329 23.6435 5.23641 24.969 4.93646 27.5673C4.71086 29.5007 6.3951 31.8639 8.50461 33.859C6.68146 35.268 4.82575 35.9353 2.97614 35.8394C2.87099 35.8343 2.76776 35.8393 2.66592 35.849C1.65329 35.9451 0.835286 36.7507 0.780276 37.777C0.734145 38.6367 1.23654 39.3994 1.98718 39.7412C2.22254 39.8481 2.48156 39.9152 2.75644 39.9295C2.95002 39.9397 3.14082 39.9443 3.33074 39.9443C6.82611 39.9443 9.70473 38.291 11.7967 36.5021C13.0128 37.3094 14.8561 38.2663 16.4525 38.9661C16.4754 37.4132 16.5952 35.866 16.8104 34.3276C16.1384 33.9935 15.5227 33.6486 15.0217 33.3065C16.7702 31.0154 17.734 28.5593 17.1537 26.5603ZM55.6807 64.9504C55.7179 64.9512 55.7562 64.9567 55.7964 64.9715C56.3265 65.0687 56.8361 65.1492 57.319 65.2119C58.7377 70.2621 60.6151 75.1593 62.946 79.8777C61.8167 79.9576 60.7367 79.9763 59.7908 79.9004L59.785 79.8997C55.7544 79.8149 52.097 79.107 50.5647 78.6699C36.8122 74.745 27.5035 66.4398 22.1675 54.201C21.6413 52.9383 21.1499 51.621 20.7076 50.2423C20.563 49.7935 20.4313 49.3339 20.304 48.8701C20.2882 48.8105 20.2716 48.7507 20.2551 48.691C20.2442 48.6518 20.2333 48.6127 20.2226 48.5736C20.1401 48.2568 20.0642 47.9339 19.9884 47.6122L19.9855 47.5999C19.8834 47.1627 19.7869 46.7239 19.7024 46.2782C19.7006 46.2687 19.6985 46.259 19.6965 46.2493C19.6851 46.1945 19.6733 46.1381 19.6645 46.0801C18.8456 41.6556 18.8287 37.0484 19.784 32.4297C23.4335 14.8241 35.2456 2.21872 56.6575 0.85353C56.6575 0.85353 57.4483 0.802165 58.5273 0.762915C59.3179 0.718376 60.1484 0.707283 60.9889 0.719911C61.3401 0.722131 61.6846 0.729469 62.0155 0.741925C60.8122 3.80356 59.5499 7.40068 58.3925 11.4352C57.6298 11.499 57.1166 11.5642 56.857 11.6011C56.8323 11.605 56.8073 11.6085 56.7823 11.6121C56.7516 11.6163 56.721 11.6206 56.6909 11.6258L56.6674 11.6296C49.1622 12.9301 45.2943 19.0015 44.5785 24.981C44.3283 27.0704 44.9343 29.1926 46.0385 31.1191C47.6672 33.9618 50.72 35.2878 54.1874 36.2561C55.3174 36.5718 56.4914 36.8496 57.6745 37.1295C58.7539 37.3848 59.8407 37.642 60.9086 37.9313C63.9542 38.7567 66.8456 39.8442 68.9678 41.9012C71.4305 44.2879 71.7053 48.1991 71.2824 50.4125C70.4999 54.5092 67.4497 57.5541 62.6015 58.2873C60.5729 58.594 58.2298 58.4959 55.6056 57.9002C52.5947 57.2168 49.2148 55.8796 45.5169 53.7468C42.2582 51.8701 38.9205 56.057 40.639 58.1901C43.1814 61.3467 50.3969 63.9632 55.6807 64.9504Z" fill="#E64164"/>
</svg>
